<?xml version="1.0" encoding="UTF-8"?>
<svg id="Layer_2" data-name="Layer 2" xmlns="http://www.w3.org/2000/svg" viewBox="0 0 762.47 760.04">
  <defs>
    <style>
      .cls-1 {
        fill: #dfceb1;
      }

      .cls-2 {
        fill: #2a5b84;
      }

      .cls-3 {
        fill: #26465f;
      }

      .cls-4 {
        fill: #417197;
      }

      .cls-5 {
        fill: #728089;
      }
    </style>
  </defs>
  <g id="Layer_2-2" data-name="Layer 2">
    <g>
      <path class="cls-3" d="M172.81,259.39c-2.31-8.27-7.44-12.6-10.71-19.79-46.16-101.63,3.95-206.42,109.93-233.3,88.1-22.34,166.86,15.71,204.82,98.54,1.97,4.29,3.1,14.06,7.63,16.35,1.74.88,10.74,2.4,12.53,3.24,27.65,13.09,28.62,70.62,15.43,94.61-1.66,3.02-6.55,2.97-5.45,9.63.42,2.55,17.8,18.08,20.79,22.5,2.31,3.41,7.31,14.38,9.2,18.57.48,1.07,1.96,8.9,2.84,9.62,18.7-7.51,27.76-23.21,36.15-40.36,29.06-97.4,149.48-90.81,180.94,6.57,10.1,31.28,5.43,53.33-6,83.6-7.51,19.88-20.81,59.3-47.66,55.28-3.79-.57-14.99-6.2-18.76-9.19-6.42-5.09-13.43-15.03-11.63-23.16.14-.65,5.27-10.6,6.02-11.92,1.16-2.04,6.12-6.36,7.86-9.59,13.85-25.65,25.14-69.44-3.68-89.25-21.97-15.1-39.35-1.99-49.16,18.83-11.89,25.21-12.92,41.57-37.3,61.51-2.93,2.39-22.59,13.98-22.78,15.34-.28,1.99,2.04,3.82,3.35,4.96,29.88,26.03,73.65,57.41,80.5,99.03,1.05,6.37.41,8.7,2.1,15.07.27,1.03-2.44,17.93-3.07,20.48-3.24,13.18-21.17,26.12-33.33,27.88-4.35.63-15.37-1.65-19.73-3.19-.96-.34-6.63-4.92-7.34-4.99-1.74-.17-8.14,4.58-9.86,5.27-2.72,1.1-6.24-.37-7.17,2.84-6.26-2.95-13.15-1.48-20.13-6.38-9.73-6.82-15.52-21.5-18.34-32.64-2.63-2.63-13.7,9.63-16.34,11.64s-9.63,5.57-12.96,7.28c-6.78,5.54,4.71,20.9,8.7,25.74,5.44,6.6,25.79,23.16,33.41,27.32,16.14,8.82,55.76,17.28,64.09,34.85,8.1,17.1,11.55,52.46,9.19,71.74-2.74,22.43-20.47,52.71-42.88,61.34-37.19,14.32-60.61-10.1-67.16-43.61-1.33-6.83,1.91-16.56-4.76-21.33-4.04-2.88-17.37-5.38-22.46-7.07-31.15-10.35-59.53-19.68-83.7-44.57-9.18-9.45-16.3-20.93-25.62-30.32-.82-.38-2.49,1.18-2.49,1.5v19c0,2.92,8.16,22.21,10.23,24.27,9.23,9.18,27.37,17.06,37.03,25.18,8.49,7.13,5.76,5.58,7.77,15.34,9.79,47.52-31.83,132.15-91.82,113.8-34.9-10.68-27.17-37.92-23.28-67.65,1.42-10.9-3.55-7.37-10.14-11.47-22.59-14.07-55.36-46.9-63.51-72.75-11.83-37.49-.63-69.29-7.4-104.6-4.29-22.4-12.77-45.29-16.93-68.07-1.59-8.7,1.72-21.59-7.66-27.34-3.77-2.31-11.76-1.97-15.52-3.3-73.65-26.06-139.45-80.07-176.59-150.6-10.47-19.88-28.37-61.59-15.54-82.21,5.39-8.65,17.59-9.06,23.06-13.41,1.25-1,3.52-5.65,5.97-7.59,9.51-7.5,21.39-9.13,33.44-6.67,6.99,1.43,13.23,9.98,22.18,8.52,5.95-.97,7.62-2.06,15.34.88,13.1,4.99,20.15,18.19,21.35,31.69.76,8.55-2.95,31.81-1.42,36.42.78,2.34,15.94,18.17,18.79,20.7,6.7,5.95,21.4,16.57,29.66,19.36.89,3.2,1.68,3.67,1.99,0-.62-.15-1.51.16-1.99,0ZM237.81,295.39c20.38,8.47,32.68,16.59,55.45,18.05,57.16,3.67,113.86-19.95,148.89-65.72,6.41-8.38,13.36-11.18,10.57-23.56-.7-3.12-6.54-12.76-7.8-16.59-9.45-28.74-9.71-46.1,6.31-71.75,3.55-5.69,7.54-3.17,5.15-14.51-5.38-25.5-41.64-65.29-64.35-77.86-68.76-38.05-154.52-17.46-201.93,45.21-1.47,1.94-2.89,6.51-3.29,8.73-.58.26-2.13-.19-3,0-1.29,1.07,2.15,4.67,3,0,4.43-1.98,6.03-6.19,9.34-8.63,75.05-55.37,222.45-38.18,230.71,75.08,4.79,65.71-29.81,109.34-90.25,128.65-4.29,1.37-7.07,1.89-12.09,2.93-25.31,5.24-61.37,8.16-86.71-1.03-.08-.03.22-1.47-.27-1.69-1.69-.75-6.48-3.55-6.74-2.81-2.2,6.35,3.75,4.15,7.01,5.5ZM317.52,85.73c-72.59-10.32-143.03,22.79-137.76,106.21,5.04,79.61,96.71,95.94,156.23,75.34,51.32-17.77,75.81-63.52,63.19-116.75-9.91-41.82-43.95-59.43-81.66-64.79ZM488.58,145.63c-9.4-8.71-19.03,13.41-19.81,20.22-1.24,10.74.08,29.3,6.41,38.21,5.65,7.94,12.6,8.35,16.8-1.04,5.08-11.39,5.89-30.2,2.77-42.06-.58-2.22-5.13-14.36-6.17-15.32ZM57.5,166.73c-1.93-.59-3.73-.4-5.69-.35-2.59,10.06,19.9,46.31-3.31,41.79-5.66-1.1-7.14-11.96-9.88-17.1-7.89-14.84-15.82-12.49-14.79,4.8.79,13.16,13.23,37.14,19.82,49.17,2.36,4.31,19.3,32.15,21.62,32.39,4.66.48,37.63-33.11,42.58-38.47-1.12-5.75-10.43-11.89-11.04-17.17s5.12-9.18,5.98-15.91c.58-4.52.49-15.36-.02-19.98-.37-3.3-2.71-9.84-6.32-8.36-4.24,1.74-3.94,25.27-9.39,26.79-2.47.69-10.56-1.88-12.32-3.68-4.14-4.23-6.06-30.48-17.26-33.92ZM684.51,196.73c-16.66-4.91-14.8,2.51-14.68,16.65,5.61.12,10.78,1.33,14.98,3,1.54-5.82,5.91-10.21,6.05-16.41-2.28.34-6.01-3.14-6.35-3.24ZM648.81,196.39c-3.13.9-19.9,4.76-20.86,6.14-1.88,2.7,6.96,13.89,8.5,16.85,2.46.39,5.47-3.93,7.16-4.95,1.33-.8,5.19-.78,5.19-1.04v-17ZM711.54,214.68c-3.66-1.61-9.32,5.76-9.59,9.17-.31,3.85,7.48,11.44,11.25,11.44.78,0,9.2-3.6,9.48-4.04.4-.63.35-3.41.19-4.37-.13-.82-10.57-11.87-11.33-12.2ZM612.79,217.42c-.38-.28-2.12.1-2.96-.03.07,4.93-11.07,23.01-8.9,25.89,13.83,6.39,12.2,3.97,19.95-7.38,1.01-3.86-3.34-7.39-5.01-10.28-.42-.73-2.73-7.93-3.09-8.19ZM493.54,250.68c-2.59-.69-11.42-.7-14.29-.37-1.76.2-1.39,1.89-2.15,2.04-2.4.48-5.05-.43-7.63.23-2.27.59-9.71,11.99-7.58,14.72l54.91,27.07c.04-8.87-3.02-17.57-7.18-25.3-1.71-3.18-13.04-17.6-16.08-18.41ZM732.53,250.7c-2.57-.93-11.23,1.58-11.76,3.36-1.59,5.27,1.79,8.12,1.97,9.09,1.15,6.17-.78,14.97,8.35,13.2.7-.14.62-1.59,1.44-1.9,1.19-.46,3.31.3,4.63-.19,3.95-1.48.69-21.62-4.63-23.55ZM126.14,258c-.56-.34.21-2.04-1.3-1.6l-46.01,41.96c36.95,36.66,80.91,70.07,132.25,81.08.99.21.35,2.82,2.73,1.94.57-10.14,2.18-30.26,17.63-22.61.51.25,6.15,6.31,6.38,7.11,2.79,9.77,1.72,33.01,3.15,44.87.81,6.72,7.12,44.78,9.75,48.03,6.41,3.06,14.11.77,20.67,1.54,1.82.21,1.1,2.01,2.88,2.15,3.9.32,27.12,1.43,28.56-.08-10.37-41.08-14.4-82.76-14.44-125.06-1.33-1.76-17.46-3.16-20.8-4.02-29.79-7.64-52.21-25.94-79.97-39.02-24.35-11.48-39.2-22.71-61.47-36.28ZM596.53,262.72c-7.86-2.89-9.14,7.4-13.72,11.14,11.95,17.65,15.08,14.79,20.9-4.09.03-6.89-4.35-2.85-7.19-7.06ZM450.44,289.78c-16.07-4.04-12.28.76-22.36,7.65-40.2,27.47-61.68,32.02-107.82,39.88-1.43.24-3.31,3.83-7.44,2.07.4,40.6,3.43,81.9,15.93,120.59,5.71-.59,11.99.11,17.63-.51,39.49-4.33,74.24-12.76,110.25-31.98,1.32-.7,4.81-.84,5.09-1.2.32-.41.35-9.04.18-10.45-.2-1.76-1.95-1.43-2.04-2.15-.61-5.04,0-10.94-1.17-16.15-7.26-3.46-33.05-15.57-34.8-22.89-2.1-8.8,7.29-14.78,15.2-13.2.68.14.78,1.6,1.53,1.84,31.17,10.17,61.9,30.14,89.45,49.07,1,.68,4.03,4.97,4.36,5.04l44.35-42.05c.64-.92-5.4-6.81-6.3-7.59-26.41-22.83-88.44-69.51-122.04-77.97ZM572.48,292.76c-6.72-3.71-10.31,4.04-15.46,7.6-.94.65-7.8,2.51-8.76,3.98-1.8,2.75,3.46,8.8,4.52,11.56,3.78,3.78,25.18-11.4,25.74-12.77,1.36-3.33-3.47-8.95-6.03-10.37ZM737.81,295.39h-15l-2.91,16.35c4.61,2.75,9.48,4.42,14.91,3.66l3-20ZM720.52,331.73c-1.17-.47-7.86-1.47-8.74-.91-2.64,6.21-23.65,30.48-6.46,30.54,7.13.03,4.71-2.79,6.6-5.13,5.68-7.05,6.5-9.4,8.99-18.07.11-.4,4.75-4.34-.39-6.43ZM600.54,391.68c-1.17-.51-2.32-.66-3.46,0l-44.25,44.44c-.6,1.98,9.57,22.3,11.14,25.64.81,1.72.3,4.57.94,5.82,1.88,3.72,8.82,15.17,13.66,12.56,6.09-3.27-8.86-32.18,9.59-26.59.32.1,4.2,3.36,5.3,4.18,10.78,8.09,12.3,25.46,29.9,22.72,1.72-.27,1.25-1.64,2.21-1.99s2.74.17,3.52-.3c8.95-5.41,7.94-21.99,6.79-31.34-1.35-11.01-10.88-27.74-18.04-36.69-1.73-2.16-16.14-17.94-17.3-18.45ZM488.79,415.41l-1.99.48c.18,15.87,7.14,30.65,9.17,46.32,4.76,3.23,4.94-.91,6.14-1.5,4.64-2.27,23.78-14.32,23.72-18.75-.03-2.28-33.59-21.97-37.05-26.55ZM467.81,453.39c-1.9-.07-3.83.22-5.62.84-21.58,7.43-43.92,21.03-65.85,23.27-5.18.53-10.81.03-16.81.93-35.23,5.25-76.67,11.75-114.27,8.04-1.14-.11-3.58-3.91-7.44-2.07,14.01,47-11.09,97.32,22.19,139.35.89,1.13,9.38,9.72,10.04,9.95,10.37,3.53,34.71-9.53,44.04-15.3,3.26-2.02,22.27-15.94,23.15-18.03,1.53-3.61.13-7.59-.54-11.17-.13-.7-1.74-.86-1.84-1.54-1.59-10.27-.77-20.8-1.17-31.15-9.45-1.97-25.98-5.49-19.46-18.74.52-1.06,9.47-5.37,10.03-5.45,9.84-1.38,32.1-1.78,42.09-.98,2.37.19,4.38.21,6.65,1.13,3.22,1.3,15.12,23.26,18.99,28.28,11.25,14.56,42.32,39.03,59.55,42.58,3.74.77,10.12-.96,13.46-2.99,7.23-4.4,23.57-24.97,27.72-32.76,3.98-7.46,6.73-15.51,9.14-23.57-6.57-7.17-16.75-14.59-22.69-21.97-7.25-9-11.38-20.01-16.2-30.29-5.79-12.36-13.09-24.89-15.17-38.37ZM550.42,559.81c-12.67-3.46-7.84.32-10.71,6.78-4.12,9.29-14.99,25.65-21.31,33.41-2.19,2.68-13.45,11.58-13.86,12.41-.45.92-1.2,1.43-.73,2.97,4.79-.6,30.96,9.04,32.59,12.39,3.48,15.5,3.42,30.93,10.5,44.82,5.85,11.46,13.13,15.01,26.09,11.68,33.83-8.69,35.59-74.67,24.11-99.63-3.33-7.24-6.94-5.9-11.47-8.37-7.74-4.21-27.17-14.28-35.21-16.47ZM374.56,619.68c-4.82-2.19-11.76,8.09-15.49,10.74-11.87,8.41-26.51,15.37-39.63,21.13-1.61.71-3.85.73-5.62.84.47,5.44,6.83,6.86,10.19,9.06,1.42.93,4.89,4.66,6.02,5.25,2.19,1.15,7.19.51,9.85,3.27,2.58,18.08-9.12,43.78.31,60.03,4.72,8.13,21.12,7.57,29.17,5.45,7.28-1.92,25.86-23.85,29.35-30.91,4.91-9.95,11.28-33.1,12.16-43.62.38-4.54-.07-9.73-.33-14.29-7.33-4.84-14.29-10.25-21.45-15.29-1.02-.72-2.73-.47-3.92-1.32-1.72-1.23-9.73-9.95-10.6-10.34Z"/>
      <path class="cls-2" d="M317.52,85.73c37.72,5.36,71.75,22.97,81.66,64.79,12.62,53.23-11.87,98.99-63.19,116.75-59.52,20.61-151.19,4.27-156.23-75.34-5.28-83.42,65.17-116.53,137.76-106.21ZM254.45,132.06c10.98-15.11-1.68-22.04-16.34-16.36-8.11,3.14-26.61,21.38-30.21,29.48-4.56,10.27-16.3,49.43,6.42,45.22,5.47-1.01,6.87-15.41,8.79-20.22,6.05-15.13,12.47-22.48,24.04-33.44,1.18-1.12,4.97-1.48,7.3-4.69Z"/>
      <path class="cls-1" d="M467.81,453.39c2.08,13.48,9.38,26.01,15.17,38.37,4.82,10.28,8.95,21.29,16.2,30.29,5.94,7.38,16.12,14.8,22.69,21.97-2.41,8.06-5.16,16.11-9.14,23.57-4.16,7.78-20.5,28.36-27.72,32.76-3.34,2.03-9.72,3.76-13.46,2.99-17.22-3.55-48.3-28.02-59.55-42.58-3.88-5.02-15.77-26.98-18.99-28.28-2.27-.92-4.28-.94-6.65-1.13-9.99-.8-32.25-.4-42.09.98-.57.08-9.51,4.39-10.03,5.45-6.53,13.25,10.01,16.77,19.46,18.74.41,10.35-.42,20.88,1.17,31.15.1.68,1.71.84,1.84,1.54.67,3.58,2.07,7.56.54,11.17-.89,2.09-19.9,16.01-23.15,18.03-9.33,5.78-33.67,18.83-44.04,15.3-.67-.23-9.15-8.82-10.04-9.95-33.28-42.03-8.18-92.35-22.19-139.35,3.86-1.84,6.29,1.96,7.44,2.07,37.61,3.72,79.05-2.79,114.27-8.04,6.01-.89,11.64-.4,16.81-.93,21.93-2.24,44.27-15.85,65.85-23.27,1.79-.62,3.72-.91,5.62-.84Z"/>
      <path class="cls-1" d="M450.44,289.78c33.6,8.46,95.63,55.14,122.04,77.97.9.78,6.94,6.67,6.3,7.59l-44.35,42.05c-.33-.06-3.36-4.35-4.36-5.04-27.55-18.93-58.28-38.9-89.45-49.07-.75-.24-.85-1.71-1.53-1.84-7.91-1.58-17.31,4.39-15.2,13.2,1.75,7.32,27.54,19.43,34.8,22.89,1.18,5.21.56,11.1,1.17,16.15.09.72,1.84.4,2.04,2.15.16,1.41.14,10.04-.18,10.45-.28.36-3.77.5-5.09,1.2-36.01,19.22-70.76,27.65-110.25,31.98-5.64.62-11.92-.08-17.63.51-12.5-38.69-15.53-79.99-15.93-120.59,4.14,1.76,6.02-1.83,7.44-2.07,46.15-7.86,67.63-12.41,107.82-39.88,10.08-6.89,6.29-11.69,22.36-7.65Z"/>
      <path class="cls-1" d="M126.14,258c22.27,13.57,37.12,24.8,61.47,36.28,27.76,13.08,50.17,31.38,79.97,39.02,3.33.86,19.47,2.26,20.8,4.02.05,42.31,4.07,83.98,14.44,125.06-1.45,1.51-24.67.4-28.56.08-1.78-.15-1.06-1.94-2.88-2.15-6.56-.76-14.26,1.52-20.67-1.54-2.63-3.25-8.94-41.31-9.75-48.03-1.42-11.86-.36-35.1-3.15-44.87-.23-.8-5.87-6.85-6.38-7.11-15.45-7.65-17.07,12.47-17.63,22.61-2.37.88-1.74-1.72-2.73-1.94-51.33-11.01-95.3-44.42-132.25-81.08l46.01-41.96c1.51-.44.73,1.26,1.3,1.6Z"/>
      <path class="cls-1" d="M186.81,97.39c.4-2.22,1.82-6.78,3.29-8.73C237.51,25.99,323.27,5.41,392.03,43.45c22.71,12.57,58.97,52.36,64.35,77.86,2.39,11.34-1.6,8.82-5.15,14.51-16.02,25.65-15.76,43.01-6.31,71.75,1.26,3.84,7.09,13.47,7.8,16.59,2.79,12.37-4.15,15.18-10.57,23.56-35.03,45.77-91.73,69.39-148.89,65.72-22.77-1.46-35.08-9.58-55.45-18.05v-1c25.34,9.19,61.4,6.27,86.71,1.03,5.02-1.04,7.79-1.56,12.09-2.93,60.44-19.31,95.05-62.94,90.25-128.65-8.26-113.27-155.66-130.46-230.71-75.08-3.31,2.44-4.91,6.65-9.34,8.63-.84,4.67-4.29,1.07-3,0,.87-.19,2.41.25,3,0Z"/>
      <path class="cls-5" d="M550.42,559.81c8.04,2.19,27.47,12.26,35.21,16.47,4.53,2.46,8.14,1.13,11.47,8.37,11.49,24.96,9.72,90.94-24.11,99.63-12.96,3.33-20.25-.22-26.09-11.68-7.08-13.89-7.02-29.33-10.5-44.82-1.62-3.35-27.79-12.99-32.59-12.39-.47-1.54.28-2.05.73-2.97.41-.84,11.67-9.73,13.86-12.41,6.32-7.76,17.19-24.13,21.31-33.41,2.87-6.47-1.96-10.24,10.71-6.78Z"/>
      <path class="cls-5" d="M374.56,619.68c.87.39,8.88,9.11,10.6,10.34,1.19.85,2.9.61,3.92,1.32,7.17,5.04,14.12,10.45,21.45,15.29.26,4.57.71,9.75.33,14.29-.88,10.53-7.25,33.67-12.16,43.62-3.49,7.07-22.07,28.99-29.35,30.91-8.05,2.12-24.45,2.68-29.17-5.45-9.43-16.25,2.26-41.95-.31-60.03-2.66-2.76-7.66-2.13-9.85-3.27-1.13-.59-4.59-4.32-6.02-5.25-3.36-2.2-9.71-3.63-10.19-9.06,1.77-.12,4.01-.14,5.62-.84,13.11-5.76,27.75-12.72,39.63-21.13,3.73-2.64,10.67-12.93,15.49-10.74Z"/>
      <path class="cls-5" d="M57.5,166.73c11.2,3.45,13.12,29.69,17.26,33.92,1.76,1.8,9.85,4.37,12.32,3.68,5.45-1.52,5.16-25.05,9.39-26.79,3.6-1.48,5.95,5.06,6.32,8.36.51,4.61.6,15.46.02,19.98-.87,6.73-6.59,10.7-5.98,15.91s9.93,11.42,11.04,17.17c-4.95,5.35-37.92,38.94-42.58,38.47-2.32-.24-19.27-28.08-21.62-32.39-6.59-12.04-19.03-36.01-19.82-49.17-1.04-17.28,6.9-19.64,14.79-4.8,2.73,5.14,4.22,16,9.88,17.1,23.2,4.52.71-31.73,3.31-41.79,1.96-.06,3.76-.25,5.69.35Z"/>
      <path class="cls-5" d="M600.54,391.68c1.16.51,15.58,16.3,17.3,18.45,7.17,8.96,16.69,25.68,18.04,36.69,1.15,9.35,2.16,25.93-6.79,31.34-.78.47-2.54-.05-3.52.3s-.5,1.73-2.21,1.99c-17.61,2.74-19.12-14.63-29.9-22.72-1.1-.83-4.98-4.09-5.3-4.18-18.45-5.6-3.5,23.31-9.59,26.59-4.84,2.6-11.78-8.84-13.66-12.56-.64-1.25-.13-4.1-.94-5.82-1.58-3.34-11.75-23.65-11.14-25.64l44.25-44.44c1.14-.66,2.29-.51,3.46,0Z"/>
      <path class="cls-4" d="M488.58,145.63c1.04.96,5.59,13.1,6.17,15.32,3.12,11.86,2.31,30.67-2.77,42.06-4.19,9.39-11.15,8.99-16.8,1.04-6.33-8.9-7.65-27.46-6.41-38.21.78-6.81,10.41-28.93,19.81-20.22Z"/>
      <path class="cls-4" d="M493.54,250.68c3.03.8,14.37,15.23,16.08,18.41,4.16,7.73,7.22,16.42,7.18,25.3l-54.91-27.07c-2.13-2.74,5.31-14.14,7.58-14.72,2.58-.67,5.23.25,7.63-.23.76-.15.39-1.84,2.15-2.04,2.87-.33,11.7-.32,14.29.37Z"/>
      <path class="cls-5" d="M488.79,415.41c3.46,4.57,37.02,24.27,37.05,26.55.06,4.44-19.08,16.49-23.72,18.75-1.2.59-1.38,4.72-6.14,1.5-2.03-15.67-8.99-30.45-9.17-46.32l1.99-.48Z"/>
      <path class="cls-4" d="M572.48,292.76c2.56,1.41,7.39,7.03,6.03,10.37-.56,1.37-21.96,16.56-25.74,12.77-1.06-2.77-6.31-8.82-4.52-11.56.96-1.47,7.82-3.33,8.76-3.98,5.15-3.56,8.74-11.31,15.46-7.6Z"/>
      <path class="cls-4" d="M720.52,331.73c5.14,2.08.5,6.03.39,6.43-2.5,8.66-3.31,11.02-8.99,18.07-1.89,2.34.53,5.16-6.6,5.13-17.19-.06,3.82-24.32,6.46-30.54.88-.56,7.57.44,8.74.91Z"/>
      <path class="cls-4" d="M732.53,250.7c5.33,1.93,8.58,22.08,4.63,23.55-1.31.49-3.43-.27-4.63.19-.82.32-.74,1.77-1.44,1.9-9.13,1.77-7.2-7.03-8.35-13.2-.18-.97-3.56-3.82-1.97-9.09.54-1.78,9.19-4.29,11.76-3.36Z"/>
      <path class="cls-4" d="M612.79,217.42c.35.26,2.67,7.47,3.09,8.19,1.67,2.89,6.02,6.42,5.01,10.28-7.75,11.36-6.12,13.77-19.95,7.38-2.17-2.88,8.97-20.95,8.9-25.89.84.13,2.58-.25,2.96.03Z"/>
      <path class="cls-4" d="M684.51,196.73c.34.1,4.07,3.58,6.35,3.24-.14,6.21-4.51,10.59-6.05,16.41-4.2-1.67-9.36-2.88-14.98-3-.12-14.14-1.98-21.56,14.68-16.65Z"/>
      <path class="cls-4" d="M648.81,196.39v17c0,.26-3.86.25-5.19,1.04-1.7,1.02-4.7,5.34-7.16,4.95-1.54-2.97-10.38-14.16-8.5-16.85.96-1.38,17.73-5.24,20.86-6.14Z"/>
      <path class="cls-4" d="M596.53,262.72c2.83,4.2,7.22.16,7.19,7.06-5.82,18.88-8.95,21.74-20.9,4.09,4.58-3.75,5.85-14.04,13.72-11.14Z"/>
      <path class="cls-4" d="M737.81,295.39l-3,20c-5.43.76-10.3-.9-14.91-3.66l2.91-16.35h15Z"/>
      <path class="cls-4" d="M711.54,214.68c.76.33,11.2,11.38,11.33,12.2.15.96.21,3.74-.19,4.37-.28.43-8.7,4.03-9.48,4.04-3.77,0-11.55-7.59-11.25-11.44.27-3.41,5.93-10.77,9.59-9.17Z"/>
      <path class="cls-5" d="M237.81,295.39c-3.25-1.35-9.2.85-7.01-5.5.25-.73,5.05,2.06,6.74,2.81.49.22.19,1.66.27,1.69v1Z"/>
      <path class="cls-4" d="M254.45,132.06c-2.33,3.21-6.12,3.57-7.3,4.69-11.57,10.95-17.98,18.31-24.04,33.44-1.92,4.8-3.32,19.2-8.79,20.22-22.73,4.22-10.98-34.95-6.42-45.22,3.6-8.1,22.09-26.34,30.21-29.48,14.66-5.68,27.32,1.25,16.34,16.36Z"/>
    </g>
  </g>
</svg>