<?xml version="1.0" encoding="UTF-8"?>
<svg id="Layer_2" data-name="Layer 2" xmlns="http://www.w3.org/2000/svg" viewBox="0 0 301.05 488.78">
  <defs>
    <style>
      .cls-1 {
        fill: #d16a46;
      }

      .cls-2 {
        fill: #2f5f7d;
      }

      .cls-3 {
        fill: #4d93b9;
      }

      .cls-4 {
        fill: #d7a84a;
      }
    </style>
  </defs>
  <g id="Layer_1-2" data-name="Layer 1">
    <g>
      <path class="cls-2" d="M69.51,224.98c-14.79-2.62.24-21.25,2.47-28.44-9-4.14-17.46-6.64-25.88-12.16C1.24,154.99-12.33,94.71,11.81,47.29,46.62-21.09,138.94-12.8,167.05,55.94c1.89,1.29,8.07-4.88,10.26-6.16,43.1-25.15,91.58-8.45,113.07,35.31,23.57,47.99,7.54,114-42.7,137.06-2.12.98-9.51,2.71-10.23,3.77-1.93,2.84,3.51,14.22,3.6,18.6.22,10.61-11.02,11.07-19.05,10.44-.1,16.38-2.22,32.66-7.29,48.21-5.36,16.46-14.71,32.05-20.73,48.27-9.85,26.54-18.43,57.35-27.27,84.73-2.48,7.68-12.81,48.06-16.18,50.82-2.82,2.31-7.29,2.75-9.02-1.06-2.08-4.58,2.9-14.09,4-18.95,8.16-35.97-.88-63.06-15.35-95.7-21.57-48.69-53.84-79.32-45.23-137.88.4-2.7-.14-5.7.05-8.45-4.72-.57-11.04.79-15.5,0ZM78.78,12.26C11.07,19.96-6.83,112.21,33.98,158.51c61.93,70.26,151.63-10.36,124.73-90.73-11.17-33.37-43.49-59.66-79.93-55.51ZM209.78,51.26c-13.5,1.52-27.49,8.68-37.31,17.77,4.27,24.8,4.02,51.23-6.29,74.63-2.02,4.58-13.04,19.69-13.08,21.79-.15,8.13,17.41,29.63,23.89,35.04,43.19,35.99,95.75,6.26,109.31-42.71,14.18-51.19-17.83-113.15-76.52-106.52ZM141.56,175.02c-.87.2-11.48,9.17-14.23,10.79s-15.14,6.74-15.89,8.18c-2.21,4.22,9.94,19.4,6.05,27.98-2.07,4.57-7.16.47-4.2,10.23,6.04,19.85,30.34,36.78,51.2,34.77,7.09-.68,24-8.37,26.99-15,1.18-2.62.17-6.2.77-9.23s4.81-14.83,4.56-16.13c-.32-1.72-15.58-8.24-18.74-10.21-8.49-5.27-16.5-12.53-22.49-20.51-4.17-5.55-8.38-15.72-12.11-19.89-.62-.69-.77-1.26-1.92-.99ZM78.51,213.98c3.39,1,19.01,0,24,0,3.5,0-1.57-17.71-5.92-17.92-1.39-.07-11.33,1.52-12.28,2.22-1.48,1.09-9.72,14.54-5.8,15.7ZM141.88,276.09c-.27-.43-7.44-3.21-9.18-4.31-11.43-7.22-21.83-18.13-27.55-30.45-2.49-5.35-3.65-11.26-6.66-16.35l-3.28,7.71c-7.84,57.97,32.84,100.4,52.54,152.03,2.32,6.07,4.2,15.78,7.01,20.97.64,1.17-.02,1.69,2.23,1.27,1.73-23.01-3.86-45.71-5.04-68.45-.38-7.37,1.59-27.76-.1-32.9-.88-2.69-9.66-1.04-13.17-3.57-.91-.66-3.55-6.42-3.68-7.66-.66-6.5,8.72-15.36,6.87-18.29ZM223.91,229.08c-.56-.49-13.93-.32-14.94.35-1.24.83-3.79,10.72-2.96,11.54l21,1c-.25-1.83-2.6-12.46-3.1-12.89ZM209,253.98c-1.38-.03-2.71-.24-3.98.52-1.17.69-7.35,9.82-10.53,12.47-4.71,3.91-10.55,6.03-15.47,9.58,12.15,17.29,5.53,27.64-15.01,27.44-1.61,29.24,3.22,57.97,5.02,87,3.85-1.44,1.81-5.62,2.04-7.37.75-5.62,12.14-35.07,15.18-42.9,8.29-21.3,22.98-46,23.66-69.34.15-5-1.92-11.89-.9-17.39ZM172,290.98c1.16-1.11-3.77-10.49-6.49-11-1.82-.35-10.16-.29-11.5.51-.46.28-5.72,8.32-6,9.01-.75,1.86.72,1.28,1.44,1.51,7.75,2.42,14.71-.68,22.54-.03Z"/>
      <path class="cls-1" d="M78.78,12.26c36.44-4.14,68.76,22.14,79.93,55.51,26.9,80.37-62.8,160.99-124.73,90.73C-6.83,112.21,11.07,19.96,78.78,12.26Z"/>
      <path class="cls-3" d="M209.78,51.26c58.69-6.63,90.7,55.33,76.52,106.52-13.56,48.97-66.12,78.71-109.31,42.71-6.49-5.41-24.04-26.91-23.89-35.04.04-2.11,11.06-17.21,13.08-21.79,10.31-23.41,10.55-49.84,6.29-74.63,9.83-9.08,23.82-16.24,37.31-17.77Z"/>
      <path class="cls-4" d="M141.56,175.02c1.15-.26,1.3.3,1.92.99,3.74,4.17,7.94,14.33,12.11,19.89,5.99,7.98,14,15.23,22.49,20.51,3.16,1.96,18.42,8.49,18.74,10.21.25,1.3-3.96,13.12-4.56,16.13s.41,6.61-.77,9.23c-2.99,6.64-19.9,14.32-26.99,15-20.86,2.01-45.16-14.92-51.2-34.77-2.97-9.76,2.12-5.66,4.2-10.23,3.89-8.58-8.26-23.76-6.05-27.98.75-1.43,13.13-6.55,15.89-8.18s13.36-10.59,14.23-10.79Z"/>
      <path class="cls-1" d="M78.51,213.98c-3.92-1.16,4.32-14.61,5.8-15.7.95-.7,10.89-2.29,12.28-2.22,4.35.21,9.43,17.92,5.92,17.92-4.99,0-20.61,1-24,0Z"/>
      <path class="cls-3" d="M223.91,229.08c.5.44,2.85,11.06,3.1,12.89l-21-1c-.83-.82,1.72-10.71,2.96-11.54,1.01-.68,14.38-.85,14.94-.35Z"/>
      <path class="cls-4" d="M172,290.98c-7.83-.65-14.79,2.46-22.54.03-.73-.23-2.19.35-1.44-1.51.28-.69,5.53-8.73,6-9.01,1.34-.8,9.68-.86,11.5-.51,2.72.52,7.65,9.89,6.49,11Z"/>
    </g>
  </g>
</svg>