<?xml version="1.0" encoding="UTF-8"?>
<svg id="Layer_2" data-name="Layer 2" xmlns="http://www.w3.org/2000/svg" viewBox="0 0 305.01 434.06">
  <defs>
    <style>
      .cls-1 {
        fill: #ebb55d;
      }

      .cls-2 {
        fill: #3c788f;
      }

      .cls-3 {
        fill: #d86d57;
      }

      .cls-4 {
        fill: #e59652;
      }
    </style>
  </defs>
  <g id="Layer_1-2" data-name="Layer 1">
    <path class="cls-2" d="M303.57,110.74c-2.29-15.72-7.12-31.45-15.23-45.17-18.22-30.83-49.99-50.68-84.14-59.31C184.46,1.27,160.91-.84,140.56.31,99.3,2.71,58.5,15.08,30.23,46.97,8.02,72.02-1.79,107.17.27,140.26c2.87,46.25,36.65,86.65,67.02,118.89,6.18,6.56,18.89,16.97,22.61,24.28,3.23,6.33,12.62,51.81,13.98,60.84-4.38,1.57-7.87,3.35-9.91,7.83-1.93,4.24-1.32,9.65.47,13.83,1.87,4.35,4.62,6.95,8.5,9.49.73,14.27-.61,39.71,10.66,50.12,10.68,9.86,35.4,8.89,49.2,7.98.46-.03.91-.09,1.37-.15,10.02-.89,20.53-2.62,27.32-10.9,8.91-10.87,9.33-32.9,10.15-46.48,5.27-4.34,8.41-9.13,8.97-16.15.35-4.32-.64-8.4-3.65-11.63-1.86-2-4.43-3.04-6.93-4.01,3.36-12.93,10.34-53.33,15.16-61.54,3.28-5.59,9.64-10.57,14.13-15.28,5.9-6.24,11.67-12.6,17.3-19.07,9.74-11.12,19.16-22.97,27.69-35.05,22.73-32.16,35.13-62.32,29.26-102.53ZM112.84,343.06c-.74-6.09-2.25-12.27-3.5-18.28-2.76-13.53-5.92-26.98-9.47-40.33,10.5.35,21.11.12,31.63.15l.34,58.42c-6.18.52-12.77.05-18.99.04ZM161.91,339.95c-.12,1.14-.29,1.92-.79,2.95-6.22.89-13.32.23-19.63.19.08-19.47-.91-38.95-.64-58.42,8.21,0,16.42.12,24.63.36-2.03,18.14-2.67,36.68-3.57,54.92ZM192.37,336.48l-1.68,6.83c-6.52.17-13.1-.08-19.62-.15l3.7-58.12,29.49.09-11.89,51.36Z"/>
    <path class="cls-1" d="M151.24,8.61c.68-.01,1.35-.04,2.03.06,5.28.84,10.38,6.91,13.21,11.19,10.89,16.5,14.56,35.08,17.32,54.29,6.6,45.93,4,92.48-3.49,138.15-3.53,21.51-9.3,42.39-13.56,63.72-4.35-.34-8.73-.35-13.09-.41l-14.19.09c-5.42-16.64-8.84-33.77-12.06-50.95-10.43-55.67-16.52-120.64-1.31-175.84,4.4-15.94,10.07-31.77,25.14-40.32Z"/>
    <path class="cls-3" d="M138.16,8.82l.43.31c-.38,2.02-3.9,4.89-5.26,6.63-2.11,2.7-4.01,5.69-5.73,8.64-9.06,15.55-12.95,34.06-15.53,51.71-2.28,14.74-3.62,29.62-4.01,44.54-.18,9.7.42,19.37.96,29.05,2.42,42.37,9.19,84.38,20.21,125.37-5.93.08-11.87-.12-17.8-.04-4.46-6.26-7.82-13.67-11.43-20.46-20.17-34.42-36.82-73-41.57-112.88-4.54-35.96,5.43-72.25,27.69-100.85,7.32-9.28,20.74-25.25,32.08-28.93,6.19-2.01,13.5-2.33,19.98-3.09Z"/>
    <path class="cls-3" d="M169.53,10.62c7.33-.18,14.93.98,21.33,4.74,12.67,7.44,31.1,29.14,38.05,41.9,5.2,9.53,9.08,20.13,11.8,30.64,14.55,56.19-7.78,118.16-36.32,166.41-4.57,7-7.9,15.46-13.4,21.71-5.05.11-10.08,0-15.13-.1,8.56-33.21,14.68-67,18.31-101.1,4.47-44.95,5.12-127.9-24.63-164.2Z"/>
    <path class="cls-4" d="M198.13,13.45c3.53.34,7.4,1.84,10.75,2.97,18.16,6.11,35.54,15.67,49.85,28.49,22.14,19.83,35.48,46.69,36.99,76.39.89,17.51-1.56,35.82-8.08,52.16-11.29,28.29-41.43,62.03-61.94,84.65-5.33,6.04-10.64,12.42-16.54,17.9-3.16.11-6.34.07-9.5.08,13.22-24.35,28.55-47.23,38.5-73.29,3.94-10.32,6.67-21.33,9.25-32.05,4.11-17.07,6.52-33.38,6.08-51-.3-11.95-2.03-23.82-5.15-35.37-8.83-32.19-27.2-49-50.21-70.92Z"/>
    <path class="cls-1" d="M102.07,14.63l.78.17c-1.19,2.84-9.86,9.53-12.58,12.15-16.17,15.62-27.72,34.18-33.92,55.82-13.64,47.59-4.89,93.07,16.52,136.77,9.29,18.96,20.57,37.1,30.78,55.58l-9.29-.05c-5.14-4.99-9.95-10.26-14.8-15.52-25.23-26.05-55.35-62.55-66.51-97.57-9.52-29.89-3.98-61.38,10.3-88.68,16.55-31.63,45.93-48.34,78.72-58.67Z"/>
    <path class="cls-4" d="M111.97,375.07c26.93.55,53.79,1.51,80.73,1.56-.73,11.92-1.15,30.32-8.09,40.2-5.66,5.58-14.98,7.43-22.66,7.87-11.44.65-33.97,1.97-42.79-6.42-7.33-6.97-6.94-32.81-7.19-43.21Z"/>
    <path class="cls-4" d="M116.67,351.83c9.89.02,80.84-.47,83.71,1.53.83.58,1.14,2.45,1.21,3.4.2,2.69-.08,8.2-2.18,10.17-2.5,2.35-7.6,1.64-10.75,1.61-12.63-.03-75.83,1.03-82.52-2.26-2.06-1.01-3.63-2.1-4.35-4.37-.59-1.86-.73-6.21.58-7.85,2.12-2.67,10.92-2.13,14.31-2.22Z"/>
  </g>
</svg>