<?xml version="1.0" encoding="UTF-8"?>
<svg id="Layer_2" data-name="Layer 2" xmlns="http://www.w3.org/2000/svg" viewBox="0 0 529.13 568.98">
  <defs>
    <style>
      .cls-1 {
        fill: #325e79;
      }

      .cls-2 {
        fill: #d2862d;
      }

      .cls-3 {
        fill: #dfdacf;
      }

      .cls-4 {
        fill: #687379;
      }
    </style>
  </defs>
  <g id="Layer_1-2" data-name="Layer 1">
    <g>
      <path class="cls-1" d="M391.17,308.78c13.19,8.04,25.04,16.85,40.1,21.41,26.34,7.98,56.44,8.92,82.97,16.03,24.78,6.64,14.17,21.85.26,33.68-4.31,3.67-10.66,6.71-14.51,10.49-9.22,9.06-16.47,25.69-31.7,28.3-12.54,2.15-17.51-4.15-28.26-7.75-.6.48,7.69,5.22,4.24,13.73-2.35,5.78-11.45,5.21-12.24,6.27-.36.47,2.73,6.18-1.14,11.34-6.4,8.54-17.16,3.16-23.77-1.94-16.66-12.85-29.49-29.97-47.77-42.23-1.6-1.07-10.18-6.73-11.02-6.98-5.75-1.67-21.45.22-28.78-.22-8.94-.53-17.86-3.35-26.81-2.78-32.24,28.61-70.44,51.2-112.26,62.74-8.87,17.94-24.92,51.84-47.4,54.61-2.41.3-4.61-1.29-7.06-.09-1.71.84-6.17,8.88-8.01,11.01-7.52,8.68-24.47,24.57-36.48,24.6-4.15.01-10.27-4.08-10.86-3.98-.94.16-11.96,11.16-14.16,12.88-8.52,6.67-27.36,18.31-38,19.02-9.96.67-18.76-4.6-18.51-15.45.25-10.62,26.93-52.96,33.55-65.52,15.97-30.31,28.97-63.33,44.96-93.04,23.49-43.67,50.15-45.21,89.03-67.97,2.55-1.49,19.07-11.56,19.4-12.67.36-1.2-.26-2.04-.69-3.05-2.5-5.98-13.18-21.94-17.4-27.62-4.32-5.82-10.94-14.31-18.41-15.59-10.52-1.8-22.96-1.76-33.79-3.21-8.06-1.08-32.38-2.54-34.42-11.58-6.39-28.3,44.48-34.38,63.13-37.2,7.19-23.51,25.74-40.99,51.11-42.13,38.19-1.71,61.79,34.45,86.94,57,24.89-29.92,22.34-73.39,42.78-105.28,17.45-27.21,59.21-50.76,85.74-70.26,21.07-15.48,42.45-33.7,63.75-48.25,6.99-4.77,18.24-11.85,25.19-2.53,5.17,6.93,2.5,16.64.41,24.12-1.1,3.94-5.87,13.52-6.1,15.93-.09.93,4.57,5.94,5.55,9.1,3.38,10.83-1.95,25.04-6.25,35.18-1.26,2.98-5.22,8.34-5.47,10.63-.45,4.04,2.17,4.14,3.23,6.69,7.49,18.04-16,42.72-28.21,54.23-1.84,1.73-7.47,5.02-8.45,6.55-1.47,2.28-2.9,13.06-4.06,16.94-13.05,43.47-34.59,83.74-59.72,121.29l-.65,3.57ZM417.03,67.92c-19.11,13.98-41.09,26.48-59.91,41.59-44.51,35.72-31.99,91.59-67.12,132.88-3.04,3.57-14.56,16.47-19.49,11.55-5.92-5.9,4.85-11.09,4.45-13.38-22.98-23.73-50.79-63.88-89.14-52.35-11.19,3.36-21.4,12.35-25.65,23.34-1.22,3.14-2.58,5.5-1.02,8.69,4.82,9.88,16.78,16.75,11.09,30.39-1.25,3-6.72,7.23-6.1,9.59.41,1.57,6.77,6.72,8.41,8.69,10.77,12.96,18.15,28.36,28.07,41.93,39.07,53.38,93.79,76.13,159.79,66.96,5.57-.77,17.47-1.89,21.18-5.82,1.45-1.54,2.4-4.92,3.43-5.56,4.44-2.74,21.51,7.96,26.32,10.71,14.44,8.27,31.67,22.58,46.02,28.97,8.2,3.65,15.1-1.48,21.2-7.15,1.78-1.65,6.86-5.68,5.03-8.08l-45.6-16.4c-5.92-1.75-6.71-9.57-.39-10.57,7.56-1.19,35.24,11.74,44.64,14.32,12.43,3.41,18.78-1.54,27.82-9.79,2.35-2.15,8.77-7.02,6.08-10.11-2.05-2.34-53.13-9.32-61.12-10.88-37.33-7.31-46.25-14.12-75.98-35.52l.78-8.73c26.04-40.48,53.33-86.57,63.97-134.03.6-2.66-.17-5.24,1-8,1.1-2.58,9.22-7.77,11.78-10.22,8.16-7.81,25.56-25.92,25.51-37.5,0-1.51.65-2.93-1.52-2.52-5.56,7.29-13.26,15.23-22.3,17.7-3.6.98-9.35,2.89-9.18-3.24.09-3.31,11.71-10.75,14.47-13.47,12.01-11.83,24.99-31.4,26.37-48.63.08-1.04.96-5.5-1.36-4.36-6.18,7.09-19,28.86-27.47,31.55-5.96,1.89-7.59-1.65-7.08-7.06.62-6.54,17.68-23.61,22.45-30.58,7.56-11.04,15.17-26.35,14.58-39.91-.77-.87-5.26,2.48-6.31,3.18-22.66,14.96-45.64,35.68-67.68,51.82ZM151.75,228.23c-2.81-2.27-8.47-.63-12.05-.14-8.82,1.21-37.71,7.83-43.2,13.8-.91.99-1.83,1.42-1.46,3.03,21.69-1.54,43.14-5.26,64.99-4l-8.28-12.69ZM158.03,248.92h-27.5c-3.43,0-14.01,1.43-17.75,2.29-1.85.43-3.31.35-2.74,2.7,8.97-1.34,35.94,6.86,42.55,3.06,1.28-.74,6.89-6.66,5.45-8.06ZM59.03,465.92c-12.38,24.66-28.43,48.58-40.52,72.98-8.23,16.61-10.47,24.78,11.4,14.4,18.77-8.91,36.4-26.8,48.54-43.46,3.74-5.13,5.68-14.44,12.58-14.48,5.68,2.83-1.88,18.88-3.82,23.24-1.22,2.75-4.59,6.99-5.16,8.84-.41,1.33.13,1.86,1.47,1.47,13.6-4.06,28.61-22.62,35.34-34.66,1.76-3.15,7.25-17.65,9.16-18.85,7.9-4.96,6.47,13.55,5.03,17.53,6.2-.97,11.41-6.49,15.51-10.98,10.78-11.82,16.67-26.79,24.5-40.5,24.97-7.31,48.77-17.42,70.91-31.09,6.69-4.13,28.42-18.28,32.65-23.35.8-.96,2.27-3.11,1.43-4.06-.3-.34-6.82-1.97-8.67-2.84-5.85-2.73-15.34-6.38-20.33-9.17-8.52-4.78-23.39-16.61-31.01-23.49-8.18-7.39-14.84-16.71-23.3-23.39-8.36,5.83-17.1,11.1-26.01,16.04-34.28,19.04-57.91,21.67-78.19,58.81-11.78,21.57-20.46,45.07-31.48,67.02ZM424.03,400.92c-.33-2.53-4.14-4.9-6.08-6.41-3.84-2.97-20.8-13.83-24.65-14.42-1.6-.24-4.61.94-5.26,2.34-.78,1.72,1.15,1.52,1.87,2.07,9.83,7.51,22.66,12.03,34.12,16.41ZM433.03,420.91c.47-.66-.92-3.17-1.54-3.95-4.13-5.24-28.35-11.97-36.14-15.86-10.03-5-18.77-15.23-30.32-14.17l1.03,3.46c7.68,5.11,15.06,10.96,21.98,17.02,5.32,4.66,26.8,27.14,30.7,28.31.66.2,2.09.4,2.29.2,2.9-3.01-12.11-13.5-8.99-18.99,7.03,1.19,13.62,6.96,20.99,3.98Z"/>
      <path class="cls-3" d="M417.03,67.92c10.53,12.03,4.04,32.91-.98,46.52-1.77,4.79-7.04,13.52-7.79,17.21-2.78,13.55,1.23,22.56-7.03,36.97-1.3,2.26-5.49,6.32-5.98,8.02-1.6,5.58.32,18.87-.23,25.77-2.05,25.87-17.21,52.07-33.47,71.53-4.66,5.58-12.45,8.74-8.75,17.73,2.27,5.52,20.6,16.19,26.24,20.25,29.73,21.4,38.65,28.22,75.98,35.52,7.99,1.56,59.07,8.54,61.12,10.88,2.69,3.08-3.73,7.96-6.08,10.11-9.04,8.25-15.38,13.2-27.82,9.79-9.4-2.58-37.08-15.51-44.64-14.32-6.32,1-5.53,8.82.39,10.57l45.6,16.4c1.83,2.4-3.24,6.43-5.03,8.08-6.11,5.66-13.01,10.8-21.2,7.15-14.35-6.39-31.58-20.7-46.02-28.97-4.81-2.75-21.88-13.45-26.32-10.71-1.04.64-1.98,4.02-3.43,5.56-3.7,3.93-15.61,5.05-21.18,5.82-65.99,9.17-120.72-13.58-159.79-66.96-9.93-13.56-17.3-28.97-28.07-41.93-1.64-1.97-7.99-7.12-8.41-8.69-.62-2.37,4.85-6.59,6.1-9.59,5.69-13.64-6.28-20.51-11.09-30.39-1.56-3.2-.2-5.55,1.02-8.69,4.25-11,14.46-19.98,25.65-23.34,38.36-11.53,66.16,28.62,89.14,52.35.4,2.29-10.37,7.49-4.45,13.38,4.93,4.92,16.46-7.98,19.49-11.55,35.12-41.3,22.61-97.17,67.12-132.88,18.83-15.11,40.81-27.6,59.91-41.59ZM186.27,237.69c1.13,1.13,6.17,2.29,8,2.05,14.32-1.82,11.73-30.06-2.67-24.8-6.89,2.52-9.81,18.27-5.33,22.75Z"/>
      <path class="cls-4" d="M417.03,67.92c22.05-16.13,45.03-36.86,67.68-51.82,1.05-.7,5.54-4.04,6.31-3.18.59,13.56-7.03,28.86-14.58,39.91-4.77,6.97-21.83,24.04-22.45,30.58-.51,5.41,1.12,8.95,7.08,7.06,8.47-2.69,21.3-24.46,27.47-31.55,2.32-1.14,1.44,3.32,1.36,4.36-1.39,17.22-14.36,36.8-26.37,48.63-2.76,2.72-14.38,10.17-14.47,13.47-.17,6.13,5.59,4.22,9.18,3.24,9.04-2.46,16.74-10.4,22.3-17.7,2.17-.42,1.52,1.01,1.52,2.52.05,11.58-17.35,29.69-25.51,37.5-2.56,2.46-10.68,7.64-11.78,10.22-1.17,2.76-.4,5.34-1,8-10.64,47.46-37.92,93.55-63.97,134.03l-.78,8.73c-5.64-4.06-23.97-14.73-26.24-20.25-3.7-9,4.09-12.15,8.75-17.73,16.26-19.46,31.42-45.66,33.47-71.53.55-6.9-1.37-20.19.23-25.77.49-1.7,4.68-5.77,5.98-8.02,8.27-14.41,4.26-23.41,7.03-36.97.76-3.69,6.02-12.42,7.79-17.21,5.02-13.61,11.52-34.48.98-46.52Z"/>
      <path class="cls-4" d="M249.03,370.92c4.99,2.8,14.48,6.44,20.33,9.17,1.85.87,8.37,2.49,8.67,2.84.84.95-.63,3.1-1.43,4.06-4.23,5.07-25.95,19.22-32.65,23.35-22.13,13.67-45.94,23.78-70.91,31.09-7.83,13.71-13.72,28.69-24.5,40.5-4.1,4.49-9.31,10.02-15.51,10.98,1.44-3.98,2.88-22.49-5.03-17.53-1.91,1.2-7.4,15.71-9.16,18.85-6.73,12.05-21.74,30.6-35.34,34.66-1.33.4-1.88-.14-1.47-1.47.57-1.86,3.94-6.1,5.16-8.84,1.94-4.36,9.5-20.41,3.82-23.24-6.9.04-8.85,9.34-12.58,14.48-12.13,16.67-29.76,34.56-48.54,43.46-21.87,10.38-19.63,2.21-11.4-14.4,12.09-24.4,28.14-48.32,40.52-72.98,17.29-1.51,34.14-7.88,47.47-19.03,3.44-2.87,10.66-11.95,13.78-13.22,4.52-1.84,12.8-1.64,18.53-3.47,13.67-4.37,23.2-13.99,30-26.26,29.89-1.91,58.42-12.24,80.22-33.02Z"/>
      <path class="cls-3" d="M249.03,370.92c-21.8,20.79-50.34,31.12-80.22,33.02-6.8,12.27-16.33,21.89-30,26.26-5.73,1.83-14.01,1.64-18.53,3.47-3.12,1.27-10.34,10.35-13.78,13.22-13.33,11.15-30.18,17.52-47.47,19.03,11.02-21.95,19.7-45.45,31.48-67.02,20.28-37.14,43.91-39.77,78.19-58.81,8.91-4.95,17.65-10.22,26.01-16.04,8.46,6.68,15.12,16,23.3,23.39,7.62,6.88,22.49,18.71,31.01,23.49Z"/>
      <path class="cls-2" d="M433.03,420.91c-7.37,2.97-13.96-2.79-20.99-3.98-3.12,5.49,11.89,15.98,8.99,18.99-.19.2-1.63,0-2.29-.2-3.9-1.17-25.37-23.65-30.7-28.31-6.93-6.06-14.3-11.91-21.98-17.02l-1.03-3.46c11.55-1.06,20.28,9.17,30.32,14.17,7.79,3.88,32.01,10.62,36.14,15.86.62.78,2.01,3.28,1.54,3.95Z"/>
      <path class="cls-2" d="M151.75,228.23l8.28,12.69c-21.85-1.26-43.3,2.46-64.99,4-.37-1.61.56-2.04,1.46-3.03,5.49-5.97,34.37-12.6,43.2-13.8,3.58-.49,9.23-2.13,12.05.14Z"/>
      <path class="cls-2" d="M158.03,248.92c1.44,1.4-4.17,7.32-5.45,8.06-6.61,3.8-33.58-4.4-42.55-3.06-.57-2.35.89-2.28,2.74-2.7,3.75-.86,14.32-2.29,17.75-2.29h27.5Z"/>
      <path class="cls-1" d="M186.27,237.69c-4.48-4.48-1.56-20.23,5.33-22.75,14.4-5.26,17,22.98,2.67,24.8-1.83.23-6.87-.93-8-2.05Z"/>
    </g>
  </g>
</svg>