<?xml version="1.0" encoding="UTF-8"?>
<svg id="Layer_2" data-name="Layer 2" xmlns="http://www.w3.org/2000/svg" viewBox="0 0 360.95 325.62">
  <defs>
    <style>
      .cls-1 {
        fill: #d2862d;
      }

      .cls-2 {
        fill: #dfac4d;
      }

      .cls-3 {
        fill: #325e77;
      }
    </style>
  </defs>
  <g id="Layer_1-2" data-name="Layer 1">
    <g>
      <path class="cls-3" d="M219.02,54.82c8.19-.62,12.98,2.56,18,8.5,1.33,1.57,2.36,5.93,4.44,5.47,18.94-15.31,39.83-35.83,63.3-43.72,55.49-18.66,48.51,39.82,18.26,63.26,39.48,11.27,10.38,53.33-16.01,59.51-.42,3.1,2.44,4.44,2.95,7.54,2.74,16.75-8.24,27.52-21.03,35.87l-24.91,12.57c22.34,6.66,44.45-9.79,65.46-16.02,9.28-2.75,21.4-5.19,28.08,3.99,5.99,8.23,3.37,19.02-2.69,26.39-1.8,2.19-9.95,7-8.84,8.63,14.04,7.43,10.17,25.01-2.31,32.22-21.4,12.36-53.66-.48-75.99-5.02-16.43,11.77-32.92,22.44-52.7,27.83-.84,1.07,14.87,11.97,16.96,12.52,4.61,1.21,17.48-1.04,19.54,2.45,3.13,5.31-2.17,10.98-7.5,11.03-.08,2.6,2.92,3.8,2.93,6.48.02,3.55-3.75,5.91-7.17,5.34-5.08-.85-20.26-16.61-25.28-20.8-3.08-2.57-12.93-11.18-15.76-12.25-1.82-.69-16.68,0-17.75.69-1.21.77-1.14,1.34-.49,2.55,1.11,2.07,8.35,9.69,10.56,10.44,5.32,1.8,13.94-1.82,16.83,3.17,2.4,4.14-.48,6.03.03,8.74.25,1.34,7.33,1,6.09,8.08-.64,3.66-6.28,5.78-9.36,5.26-2.8-.47-12.97-7.92-15.65-10.2-6.53-5.54-21.59-26.33-25.61-28.39-4.23-2.16-16.48-3.08-22.37-4.63-53.63-14.14-93.99-60.63-102.92-115.08-10.8-4.5-47.98-16.2-35.63-33.45,6.19-8.64,22.58-8.86,32.03-9.97,9.91-1.17,7.16-5.02,11.34-12.66,15.15-27.66,46.95-35.64,75.43-24.09,4.2,1.7,7.51,4.54,11.73,5.76-.56-29.26,15-57.92,36.99-76.51,13.77-11.64,43.31-27.62,54.58-4.55,7.19,14.73-1.6,29.06-5.56,43.06ZM172.15,137.68c2.45,1.4,11.76-9.09,13.89-11.33,4.35-4.56,8.59-10.51,12.95-15.05,4.78-4.98,28.91-27.26,29.81-31.18,1.14-4.93-.24-12.39-5.74-13.87-5.02-1.35-27.62,14.64-23.57-.45,1.49-5.55,9.15-16.48,11.71-23.29,6.66-17.71,7.84-39.25-17.87-27.87-28.45,12.59-51.1,50.69-48.29,81.68.96,10.57,9.09,16.53,15.4,24.6,1.86,2.37,10.83,16.26,11.72,16.77ZM292.67,173.48c3.98-4.17,10.87-14.38,1.64-16.44-4.01-.89-21.87,1.77-19.16-7.51,1.08-3.68,21.71-9.32,26.54-11.53,9.62-4.39,23.7-13.24,27.51-23.48,4.61-12.4-3.35-14.94-14.42-13.43-5.72.78-20.75,8.74-24.35,5.83-2.42-1.95-1.77-5.92.02-8.17,2.37-2.97,12.66-8.42,16.49-11.5,11.43-9.18,24.9-22.28,27.63-37.37,2.54-14.05-2.93-18.77-16.6-16.6-33.64,5.33-83.1,57.57-106.98,82.03-8.82,9.04-34.81,41.51-45.73,43.37-5.02.86-6.33-3.5-4.49-7.59.98-2.17,4.45-3.37,2.76-6.19-18.36-27.42-45.74-62.61-83.5-48.54-7.49,2.79-16.95,9.99-21.45,16.55-8.87,12.94-2.1,11.09,2.19,21.68,3.28,8.09,4.01,17.23-.55,24.96-2.8,4.74-9.42,6.93-9.15,11.63.79,13.41,11.51,35.81,18.91,47.19,35.71,54.9,111.21,74.04,168.7,41.64,5.62-3.17,23.5-17.65,26.9-18.14,6.56-.94,26,6.24,34.22,7.68,9.84,1.72,32.86,4.63,40.47-2.67,2.23-2.14,4.12-8.17,1.07-10.12-5.11-3.27-31.12,1.82-29.39-9.39.73-4.74,9.79-4,13.1-4.99,8.15-2.44,24.09-10.24,24.05-20.06s-14.2-3.64-19.87-1.76c-22.43,7.42-40.29,20.67-65.24,15.78-6.08-1.19-13.2-4.71-18.57-5.43-8.8-1.18-32.81,4.74-38.31-3.69-1.65-2.53-1.68-6.23,1.6-7.2,4.87-1.45,16.69.26,22.78-.22,16.16-1.28,49.96-14.61,61.17-26.33ZM11.04,138.85c-1.89,2.69,7.69,8.61,9.68,9.78,4.41,2.58,20.32,9.21,24.84,9.07,9.4-.28,9.19-21.77.51-24.43-4.27-1.31-33.33,3.15-35.04,5.57Z"/>
      <path class="cls-2" d="M292.67,173.48c-11.21,11.73-45,25.06-61.17,26.33-6.09.48-17.91-1.23-22.78.22-3.27.97-3.25,4.66-1.6,7.2,5.5,8.42,29.51,2.51,38.31,3.69,5.38.72,12.49,4.23,18.57,5.43,24.95,4.89,42.8-8.37,65.24-15.78,5.67-1.87,19.83-7.95,19.87,1.76s-15.9,17.62-24.05,20.06c-3.31.99-12.37.25-13.1,4.99-1.74,11.21,24.27,6.12,29.39,9.39,3.05,1.95,1.16,7.98-1.07,10.12-7.61,7.3-30.63,4.39-40.47,2.67-8.22-1.44-27.66-8.62-34.22-7.68-3.4.49-21.28,14.97-26.9,18.14-57.49,32.4-132.99,13.26-168.7-41.64-7.4-11.38-18.12-33.78-18.91-47.19-.28-4.7,6.35-6.9,9.15-11.63,4.56-7.73,3.82-16.87.55-24.96-4.29-10.59-11.06-8.74-2.19-21.68,4.5-6.56,13.96-13.77,21.45-16.55,37.76-14.06,65.14,21.13,83.5,48.54,1.69,2.82-1.78,4.02-2.76,6.19-1.84,4.09-.53,8.45,4.49,7.59,10.92-1.86,36.9-34.33,45.73-43.37,23.88-24.46,73.33-76.7,106.98-82.03,13.67-2.16,19.14,2.55,16.6,16.6-2.73,15.08-16.2,28.19-27.63,37.37-3.83,3.08-14.12,8.53-16.49,11.5-1.8,2.25-2.44,6.23-.02,8.17,3.61,2.91,18.64-5.05,24.35-5.83,11.08-1.51,19.03,1.03,14.42,13.43-3.81,10.24-17.89,19.09-27.51,23.48-4.84,2.21-25.47,7.85-26.54,11.53-2.72,9.28,15.14,6.62,19.16,7.51,9.23,2.05,2.34,12.27-1.64,16.44ZM85.28,146.57c2.35,2.54,10.58,2.85,13.8,1.81,7.26-2.35,6.84-22.13-4.58-22.63-9.44-.41-14.79,14.81-9.22,20.81Z"/>
      <path class="cls-2" d="M172.15,137.68c-.89-.51-9.86-14.4-11.72-16.77-6.31-8.07-14.44-14.03-15.4-24.6-2.81-30.98,19.84-69.09,48.29-81.68,25.71-11.38,24.53,10.16,17.87,27.87-2.56,6.81-10.22,17.75-11.71,23.29-4.05,15.1,18.56-.9,23.57.45,5.5,1.48,6.88,8.94,5.74,13.87-.9,3.92-25.03,26.2-29.81,31.18-4.35,4.54-8.6,10.49-12.95,15.05-2.14,2.24-11.45,12.73-13.89,11.33Z"/>
      <path class="cls-1" d="M11.04,138.85c1.71-2.42,30.77-6.88,35.04-5.57,8.68,2.66,8.88,24.15-.51,24.43-4.52.13-20.43-6.49-24.84-9.07-2-1.17-11.58-7.09-9.68-9.78Z"/>
      <path class="cls-3" d="M85.28,146.57c-5.57-6.01-.22-21.22,9.22-20.81,11.42.49,11.84,20.28,4.58,22.63-3.22,1.04-11.44.73-13.8-1.81Z"/>
    </g>
  </g>
</svg>