<?xml version="1.0" encoding="UTF-8"?>
<svg id="Layer_2" data-name="Layer 2" xmlns="http://www.w3.org/2000/svg" viewBox="0 0 474.18 368.31">
  <defs>
    <style>
      .cls-1 {
        fill: #325e79;
      }

      .cls-2 {
        fill: #d2862d;
      }

      .cls-3 {
        fill: #dfac4d;
      }

      .cls-4 {
        fill: #dfdacf;
      }

      .cls-5 {
        fill: #687379;
      }
    </style>
  </defs>
  <g id="Layer_1-2" data-name="Layer 1">
    <g>
      <path class="cls-1" d="M334.2,185.17c25.66-3.05,56.83-1.89,73.41,21.09,1.66,2.3,4.3,9.41,5.25,9.99,2.39,1.48,22.39,3.59,27.76,5,11.99,3.13,26.93,9.91,31.77,22.23,3.22,8.19,2.88,18.7-7.82,19.66-2.66.24-4.61-.97-6.77-.87-6.84.31-16.15,4.3-24.12,4.89-15.65,1.16-24.04-1.42-40,4-37.73,12.79-60.88,43.41-102.27,54.73-27.83,7.62-55.1,6.66-83.51,4.49-15.26,10.52-39.52,40-59.23,37.82-2.96-.33-6.65-2.12-8.5-4.5-1.22-1.56-2.07-5.52-2.55-5.59-6.08-.89-12.36,6.05-22.14,1.28-6.24-3.05-4.75-9.81-6.22-10.78-1.84-1.22-7.44.57-9.55-4.45-3.81-9.09,6.21-17.09,13.26-20.7,11.57-5.93,25.91-5.57,36.64-11.3,3.53-1.89-9.99-7.12-11.83-5.96-23.71,8.27-48.94,29.11-71.62,6.5-2.58-2.57-5.22-8.08-7.58-9.42-2.49-1.41-6.77-1.57-10.07-2.93-7.51-3.1-18.22-9.92-21.11-17.89-8.46-23.27,23.19-20.49,37.15-22.43,19.59-2.73,39.4-5.49,58.83-9.17,3.52-.67,12.57-1.79,15.1-2.9,1.02-.45,1.99-1,1.71-2.28-.25-1.1-13.74-13.49-15.97-16.04-15.25-17.47-34.06-43.48-37.48-66.52-14.85-5.83-29.88-17.61-34.59-33.41-1.05-3.5-1.31-11.47-2.46-13.54-.65-1.16-12.94-9.22-15.5-11.5-4.36-3.88-12.22-12.15-14.81-17.19-4.24-8.28-5.74-21.21,5.55-24.09,1.92-.49,5.8.69,6.26-1.22C17.35,54.29-6.08,35.03,1.46,16.94c6.08-14.59,31.22-6.33,42.73-3.27,42.56,11.32,107.6,37.17,145.31,59.69,39.22,23.43,26.99,51.43,46.45,81.52.63.97-.11,1.79,2.22,1.28,7.73-14.4,18.22-33.17,30.54-43.97,1.47-1.29,5.34-2.97,5.97-4.03,1.33-2.21.24-12.6.63-16.37,1.01-9.89,5.54-18.75,16.88-17.62-3.55-17.94-4.07-40.74,21-36.99-2.98-20.23,11.15-49.64,34.01-31.52,17.41,13.8,39.35,74.26,38.03,96.05-1.58,26.13-25.24,45.11-39.85,65.15-1.68,2.3-12.78,16.76-11.18,18.31ZM291.19,116.17c-6.15,4.61-6.63,1.8-12.72,3.79-5.72,1.87-22.82,28.07-26.45,34.54-4.38,7.78-9.05,13.35-4.24,21.58,6.3,10.77,17.39,21.07,25.06,31.01l42.72-16.05c9.15-16.66,20.89-32.15,32.65-47.35,12.1-15.64,25.96-25.4,24.97-48-.12-2.77-2.55-15.03-3.89-16.93-.81-1.16-2.92-.6-4.11-.6,3.89-1.74,1.27-6.88.49-9.99-3.35-13.46-14.24-44.57-25.03-52.98-14.7-11.46-16.22,12.55-15.34,22.34.44,4.91,5.41,20.25,4.72,22.9-1.06,4.1-7.36,5.25-10.31,1.69s-8.94-19.99-16.06-12.99c-4.29,4.22,2.38,27.64,4.5,33.54,1.61,4.5,7.86,11.28,1.99,13.97-8.2,3.76-15.9-14.89-21.03-11.07-2.85,2.11-3.58,27.46,2.06,30.58ZM104.19,48.17c-23.31-9.19-59.23-24.93-83.76-27.75-2.91-.33-5.39-.51-8.1.89-.7,12.86,12.41,23.35,21.93,30.3,5.88,4.3,30.79,17.36,32.81,21.19,2.93,5.58.81,9.73-5.49,10.33-8.74.82-23.41-12.12-34.37-8.95,1.18,9.46,9.91,16.89,17.08,22.41,5.52,4.26,35.4,20.48,36.42,22.57,5.43,11.08-13.1,6.28-18.5,5.01,3.82,20.27,24.02,25.92,38.99,35.51.68,1.83-1.75,1.25-1.99,2.14-2.13,8.04,7.25,23.28,11.57,30.27,7.04,11.38,17.83,25.23,26.91,35.09,5.06,5.49,16.62,14.15,19.97,19.04,1.07,1.57,1.66,3.02,1.54,4.95-2.06.67-5.29,3.94-9.22,5.28-31.42,10.67-68.57,10.56-101.14,15.86-11.12,1.81-14.71,3.43-4.11,11.84,3.43,2.72,8.7,5.42,13.12,5.68,15.95.92,38.97-6.63,55.86-6.66,7.06,0,11.94,7.51,4.52,10.53l-46.02,6.48c-1.38,1.15,6.03,7.46,7.25,8.24,13.78,8.8,34.03-5,47.07-10.42,3.01-1.25,10.4-4.62,13.15-4.67,5.86-.1,31.18,13.59,39.27,16.59,32.54,12.06,68.36,14.47,102.28,6.78,40.03-9.08,62.88-36.17,98.3-52.7,2.59-1.21,15.11-5.23,15.59-5.91,1.74-2.49-5.36-9.54-4.9-14.31.42-4.38,7.8-11.4,9.72-16.37,4.79-12.43-11.47-24.19-21.47-28-33.11-12.61-64.01,5.39-94.58,15.94-3.75,1.73.94,5.35-1.58,8.41-5.93,7.2-20.84-11.29-24.61-15.57-16.6-18.86-30.42-40.14-39.23-63.77-10.65-28.54-7.64-44.58-37.23-61.77-24.17-14.04-51.19-24.3-77.02-34.48ZM462.19,250.17c-.96-10.4-11.52-13.85-20-16.49-4.85-1.51-26.75-7-30.01-5.01-1.15.7-2.4,4.81-3.55,6.44-2.99,4.26-8.59,5.4.19,6.93,6.31,1.1,13.26,1.27,19.7,2.3,11.25,1.79,22.35,4.45,33.66,5.83ZM441.2,254.18l-37-4c-.78.69,1.81,4.84,3.02,5.47,5.59,2.92,25.47,1.35,32.5.53,1.49-.17,3.08-.81,1.49-2ZM122.2,350.17c2.99,2.27,16.67-5.64,19.91-7.58,4.17-2.49,29.71-20.9,29.08-23.9-1.11-5.31-18.77,4.76-22.04,5.94-7.77,2.81-16.02,3.88-23.72,6.28-1.13.35-16.04,5.8-13.24,8.25,7.4,1.16,13.77-2.46,21-1.99.81,5.95-5.25,7.7-9.12,10.4-.51.36-3.7,1.2-1.87,2.59ZM193.19,325.18c-2.38,0-4.65-.39-6.96.53-3.35,1.34-14.59,11.32-18.72,14.27-5.31,3.79-15.19,8.47-18.85,13.16-2,2.57-1.13,4.8,1.99,4.97,9.49.52,33.63-23.28,41.61-29.38l.93-3.56Z"/>
      <path class="cls-4" d="M104.19,48.17c25.83,10.18,52.85,20.45,77.02,34.48,29.59,17.19,26.59,33.22,37.23,61.77,8.81,23.63,22.64,44.91,39.23,63.77,3.77,4.28,18.68,22.78,24.61,15.57,2.52-3.06-2.17-6.68,1.58-8.41,30.57-10.55,61.47-28.55,94.58-15.94,10,3.81,26.26,15.56,21.47,28-1.92,4.97-9.3,11.99-9.72,16.37-.46,4.78,6.64,11.82,4.9,14.31-.48.68-13,4.7-15.59,5.91-35.42,16.53-58.26,43.63-98.3,52.7-33.92,7.69-69.74,5.28-102.28-6.78-8.09-3-33.41-16.69-39.27-16.59-2.75.05-10.14,3.42-13.15,4.67-13.03,5.42-33.29,19.21-47.07,10.42-1.22-.78-8.63-7.09-7.25-8.24l46.02-6.48c7.42-3.02,2.54-10.54-4.52-10.53-16.89.02-39.91,7.58-55.86,6.66-4.42-.25-9.69-2.95-13.12-5.68-10.6-8.41-7.01-10.03,4.11-11.84,32.57-5.3,69.73-5.19,101.14-15.86,3.94-1.34,7.17-4.61,9.22-5.28.68-.22,2.07.11,3,0,.33-.04.67.05,1,0,5.87-.87,9.88-.1,14.94-4.56,12.34-10.91-8.94-23.64-15.91-31.97-10.74-12.83-30.17-45.83-31.91-62.09-.41-3.84.69-10.86-.29-13.71-.35-1.02-8.37-6.49-10.35-8.65-10.77-11.79-9.75-23.21-4.42-37.33-16.9-9.19-22.92-28.55-11.07-44.68ZM363.9,220.39c-7.22,2.16-7.91,18.39,1.06,20.58,13.58,3.31,15.16-25.42-1.06-20.58Z"/>
      <path class="cls-5" d="M104.19,48.17c-11.85,16.13-5.84,35.48,11.07,44.68-5.32,14.12-6.35,25.55,4.42,37.33,1.98,2.17,10,7.63,10.35,8.65.98,2.85-.12,9.88.29,13.71,1.73,16.26,21.16,49.26,31.91,62.09,6.97,8.32,28.25,21.06,15.91,31.97-5.06,4.47-9.06,3.7-14.94,4.56h-1c-.93.11-2.32-.22-3,0,.11-1.93-.47-3.38-1.54-4.95-3.35-4.89-14.91-13.55-19.97-19.04-9.08-9.86-19.87-23.71-26.91-35.09-4.32-6.98-13.7-22.22-11.57-30.27.24-.89,2.66-.31,1.99-2.14-14.97-9.59-35.17-15.24-38.99-35.51,5.4,1.27,23.92,6.06,18.5-5.01-1.03-2.1-30.9-18.31-36.42-22.57-7.16-5.53-15.89-12.96-17.08-22.41,10.96-3.17,25.63,9.77,34.37,8.95,6.31-.59,8.42-4.75,5.49-10.33-2.01-3.83-26.92-16.89-32.81-21.19-9.51-6.95-22.63-17.44-21.93-30.3,2.71-1.4,5.19-1.22,8.1-.89,24.53,2.82,60.45,18.56,83.76,27.75Z"/>
      <path class="cls-4" d="M365.19,78.17c1.19,0,3.3-.56,4.11.6,1.33,1.9,3.76,14.16,3.89,16.93.99,22.59-12.87,32.36-24.97,48-11.76,15.2-23.5,30.69-32.65,47.35l-42.72,16.05c-7.67-9.95-18.76-20.24-25.06-31.01-4.82-8.23-.14-13.8,4.24-21.58,3.64-6.46,20.74-32.67,26.45-34.54,6.09-1.99,6.57.82,12.72-3.79,19.7-14.77,47.77-38.02,74-38Z"/>
      <path class="cls-5" d="M291.19,116.17c-5.64-3.12-4.91-28.47-2.06-30.58,5.14-3.81,12.83,14.83,21.03,11.07,5.87-2.69-.38-9.47-1.99-13.97-2.12-5.91-8.8-29.32-4.5-33.54,7.12-7,13.22,9.57,16.06,12.99s9.25,2.4,10.31-1.69c.69-2.65-4.28-17.99-4.72-22.9-.88-9.79.63-33.8,15.34-22.34,10.78,8.41,21.67,39.51,25.03,52.98.77,3.11,3.39,8.25-.49,9.99-26.23-.02-54.3,23.23-74,38Z"/>
      <path class="cls-2" d="M462.19,250.17c-11.31-1.38-22.41-4.03-33.66-5.83-6.44-1.03-13.39-1.2-19.7-2.3-8.79-1.53-3.18-2.67-.19-6.93,1.15-1.64,2.39-5.74,3.55-6.44,3.26-1.98,25.16,3.5,30.01,5.01,8.48,2.64,19.04,6.09,20,16.49Z"/>
      <path class="cls-2" d="M122.2,350.17c-1.82-1.38,1.36-2.23,1.87-2.59,3.87-2.71,9.94-4.46,9.12-10.4-7.22-.47-13.6,3.15-21,1.99-2.8-2.45,12.11-7.9,13.24-8.25,7.69-2.4,15.95-3.47,23.72-6.28,3.27-1.18,20.93-11.26,22.04-5.94.63,3-24.91,21.4-29.08,23.9-3.24,1.94-16.92,9.85-19.91,7.58Z"/>
      <path class="cls-2" d="M193.19,325.18l-.93,3.56c-7.98,6.1-32.12,29.9-41.61,29.38-3.12-.17-3.99-2.4-1.99-4.97,3.66-4.69,13.53-9.37,18.85-13.16,4.14-2.95,15.37-12.94,18.72-14.27,2.31-.92,4.58-.54,6.96-.53Z"/>
      <path class="cls-3" d="M441.2,254.18c1.59,1.19,0,1.82-1.49,2-7.02.82-26.91,2.39-32.5-.53-1.21-.63-3.8-4.78-3.02-5.47l37,4Z"/>
      <path class="cls-1" d="M363.9,220.39c16.22-4.84,14.64,23.89,1.06,20.58-8.98-2.19-8.29-18.42-1.06-20.58Z"/>
      <path class="cls-1" d="M163.19,251.17c-.33.05-.67-.04-1,0h1Z"/>
    </g>
  </g>
</svg>