<?xml version="1.0" encoding="iso-8859-1"?>
<!-- Uploaded to: SVG Repo, www.svgrepo.com, Generator: SVG Repo Mixer Tools -->
<svg height="800px" width="800px" version="1.1" id="Layer_1" xmlns="http://www.w3.org/2000/svg" xmlns:xlink="http://www.w3.org/1999/xlink" 
	 viewBox="0 0 512 512" xml:space="preserve">
	   <g transform="translate(512,0) scale(-1,1)">
<path style="fill:#6E6057;" d="M328.348,358.647l-144.696,12.456c-9.217,0-16.696,7.473-16.696,16.696v35.158
	c0,27.619,22.468,50.087,50.087,50.087h77.913c27.619,0,50.087-22.468,50.087-50.087v-47.614
	C345.043,366.12,337.565,358.647,328.348,358.647z"/>
<path style="fill:#615349;" d="M328.348,358.647L256,364.876v108.168h38.957c27.619,0,50.087-22.468,50.087-50.087v-47.614
	C345.043,366.12,337.565,358.647,328.348,358.647z"/>
<path style="fill:#BF6745;" d="M430.413,97.614v249.99C386.449,376.654,320,397.913,256,404.146
	c-13.133,1.447-26.268,2.115-38.957,2.115C67.117,406.261,0,313.99,0,222.609S67.117,38.957,217.043,38.957
	c12.689,0,25.824,0.668,38.957,2.115C320,47.304,386.449,68.563,430.413,97.614z"/>
<path style="fill:#B1532F;" d="M430.413,97.614v249.99C386.449,376.654,320,397.913,256,404.146V41.071
	C320,47.304,386.449,68.563,430.413,97.614z"/>
<path style="fill:#C5762B;" d="M495.304,72.348c-59.065,0-112.892,34.826-137.119,88.717v123.093
	c24.228,53.891,78.054,88.712,137.119,88.712c9.217,0,16.696-7.473,16.696-16.696V89.043C512,79.821,504.521,72.348,495.304,72.348z
	"/>
<path style="fill:#E3B236;" d="M478.718,223.353h0.109H478.718z M256,140.132c-14.136-0.668-27.27-1.002-38.957-1.002
	C83.144,139.13,0,171.075,0,222.609s83.144,83.478,217.043,83.478c11.687,0,24.821-0.334,38.957-1.002
	c102.511-4.563,256-27.047,256-82.477S358.511,144.696,256,140.132z"/>
<path style="fill:#DA9A2B;" d="M512,222.609c0,55.43-153.489,77.913-256,82.477V140.132C358.511,144.696,512,167.179,512,222.609z"
	/>
	  </g>
</svg>