<?xml version="1.0" encoding="UTF-8"?>
<svg id="Layer_2" data-name="Layer 2" xmlns="http://www.w3.org/2000/svg" viewBox="0 0 466.33 324.44">
  <defs>
    <style>
      .cls-1 {
        fill: #ebb55d;
      }

      .cls-2 {
        fill: #3c788f;
      }

      .cls-3 {
        fill: #d86d57;
      }

      .cls-4 {
        fill: #e59652;
      }
    </style>
  </defs>
  <g id="Layer_1-2" data-name="Layer 1">
    <path class="cls-2" d="M262.64.32c49.45-1.86,106.74,3.86,148.96,32.02,25.95,17.31,47.39,42.11,53.49,73.46,4.75,24.38-4.63,51.45-18.34,71.57-24.76,36.34-72.55,56.54-114.57,64.45.5,3.58.88,7.17,1.15,10.77,1.22,17.91-.31,42.76-12.79,57-9.09,10.37-22.7,13.1-35.87,14-20.7,1.43-62.13,2.88-78.25-11.4-15.95-14.14-18.89-46.29-20.13-66.63l-.46-4.6c-31.78-7.3-56.13-16.31-84.19-33.23-6.73,4.35-13.86,8.86-21.06,12.38-3.59,1.74-7.38,3.01-11.29,3.78-8.22,1.63-33.79,3.31-41.4.4-3.18-1.21-5.47-3.46-6.68-6.65-1.27-3.37-.44-7.49.53-10.85,2.01-6.97,5.52-13.8,8.74-20.29,6.39-12.86,13.7-25.66,19.22-38.89l.25-.62-3.7-5.9c-12.76-1.52-30.46,2.47-41.05-6.65-2.4-2.07-5.08-5.41-5.21-8.73-.17-4.3,1.7-9.63,4.79-12.64,8.92-8.67,33.21-5.81,45.12-5.91-10.19-18.19-26.78-46.33-30.23-66.36-.56-3.26-.51-7.01,1.64-9.73,1.99-2.5,5.18-3.51,8.24-3.9,7.21-.92,15.35-.71,22.61-.26,21.65,1.33,29.03,5.85,46.06,18.71C147.35,11.82,204.05,2.1,262.64.32Z"/>
    <path class="cls-3" d="M71.98,86.55c10.47-15.15,21.06-26.63,36.34-36.9,8.97-6.03,18.45-11.6,28.36-15.95C194.47,8.34,282.6,3.13,344.2,15.3c39.66,7.83,76.53,28.48,99.4,62.56,6.18,7.98,9.51,17.74,12.12,27.37,2.63,11.57,2.11,20.14-.49,31.7-3.1,9.07-6.26,20.41-11.94,28.15-11.39,23.92-45.93,45.2-70.05,54.9-9.92,3.99-20.55,7.53-30.99,9.88-51.68,11.63-125.37,10.04-176.42-4.12-9.86-2.73-19.39-6.43-28.78-10.47-26.34-11.33-58.63-31.56-69.68-59.3-1.74-2.66-4.36-7.98-4.47-11.12-.05-1.4.32-2.56,1.34-3.56,2.4-2.36,6.22-1.87,9.33-1.91,2.3-.58,4.61-1.15,6.88-1.81,5.47-1.61,11.28-4.73,13.9-10.03,1.25-2.53,1.55-5.4.58-8.07-1.95-5.33-7.24-7.69-11.99-9.93-6.78-1.1-13.52-1.71-20.37-2.12,2.25-8.05,4.31-14.17,9.41-20.88Z"/>
    <path class="cls-3" d="M71.98,86.55c10.47-15.15,21.06-26.63,36.34-36.9,8.97-6.03,18.45-11.6,28.36-15.95C194.47,8.34,282.6,3.13,344.2,15.3c39.66,7.83,76.53,28.48,99.4,62.56,6.18,7.98,9.51,17.74,12.12,27.37-29.12-2.17-58-5.86-87.21-7.4-69.6-3.17-139.32-2.02-208.77,3.44-17.63,1.26-35.23,2.98-52.77,5.16-7.86.91-16.32,1.35-24.03,3.12-6.78-1.1-13.52-1.71-20.37-2.12,2.25-8.05,4.31-14.17,9.41-20.88Z"/>
    <path class="cls-1" d="M71.98,86.55c64.77-18.36,132.4-23.38,199.46-24.62,42.06-.78,84.47-.01,126.17,5.98,15.61,2.24,30.67,6.38,45.99,9.96,6.18,7.98,9.51,17.74,12.12,27.37-29.12-2.17-58-5.86-87.21-7.4-69.6-3.17-139.32-2.02-208.77,3.44-17.63,1.26-35.23,2.98-52.77,5.16-7.86.91-16.32,1.35-24.03,3.12-6.78-1.1-13.52-1.71-20.37-2.12,2.25-8.05,4.31-14.17,9.41-20.88Z"/>
    <path class="cls-3" d="M67.38,155.99c11.07,2.45,21.85,5.96,32.81,8.85,20.92,5.62,42.08,10.31,63.41,14.07,72.71,12.23,154.97,12.6,227.57.12,17.2-2.96,36.28-6.38,52.13-13.93-11.39,23.92-45.93,45.2-70.05,54.9-9.92,3.99-20.55,7.53-30.99,9.88-51.68,11.63-125.37,10.04-176.42-4.12-9.86-2.73-19.39-6.43-28.78-10.47-26.34-11.33-58.63-31.56-69.68-59.3Z"/>
    <path class="cls-1" d="M73.57,139.4c6.18,2.07,40.62,1.97,50.45,2.6,26.89,1.72,53.7,3.74,80.63,4.78,43.15,1.44,86.33,1.27,129.47-.5,20.69-.8,41.36-2.15,61.98-4.04,19.57-1.92,39.47-4.98,59.13-5.3-3.1,9.07-6.26,20.41-11.94,28.15-15.85,7.55-34.93,10.98-52.13,13.93-72.6,12.48-154.87,12.11-227.57-.12-21.33-3.76-42.49-8.46-63.41-14.07-10.95-2.89-21.74-6.39-32.81-8.85-1.74-2.66-4.36-7.98-4.47-11.12-.05-1.4.32-2.56,1.34-3.56,2.4-2.36,6.22-1.87,9.33-1.91Z"/>
    <path class="cls-1" d="M196.35,242.28c41.54,6.03,83.7,6.43,125.35,1.18.16.64.31,1.29.45,1.94,3.77,17.05,1.9,40.73-7.69,55.68-.78.97-1.63,1.89-2.49,2.8-8.66,9.16-24.67,9.88-36.49,10.15-16.99.4-50.9,2.09-63.73-10.67-11.43-11.36-15.06-45.23-15.4-61.09Z"/>
    <path class="cls-4" d="M56.12,157.27c2.62,1.77,4.88,7.39,6.47,10.17,7.67,13.42,18.45,24.35,30.5,33.9-7.97,7.07-16.52,12.35-27.06,14.39-8.12,1.04-24.47,2.82-32.09,1.08-1.54-.35-2.86-.83-3.72-2.22-.34-2.42.11-4.48.89-6.78,2.21-6.5,5.94-12.96,8.98-19.12,5.19-10.53,10.25-21.2,16.03-31.42Z"/>
    <path class="cls-4" d="M35.74,36.21c22.03-1.47,37.43,1.46,54.39,15.8-7.96,8.12-15.93,16.14-23.16,24.94-4.62,5.86-8.12,12.63-11.79,19.1-8.83-15.61-24.13-41.04-25.9-58.51,2.13-.59,4.29-.95,6.46-1.34Z"/>
    <path class="cls-4" d="M27.95,117.35c10.38-.44,44.86-.49,54.03,2.5,1.85.6,3.05,1.22,3.95,2.98-.1.47-.14.82-.42,1.24-3.1,4.67-14.28,5.43-19.33,6.02-13.85,1.59-42.49,3.99-54.45-2.39-1.54-.82-2-1.54-2.54-3.16.22-1.62.97-2.7,2.08-3.86,3.6-3.77,11.77-3.26,16.69-3.34Z"/>
  </g>
</svg>