<?xml version="1.0" encoding="UTF-8"?>
<svg id="Layer_2" data-name="Layer 2" xmlns="http://www.w3.org/2000/svg" viewBox="0 0 461.52 293.58">
  <defs>
    <style>
      .cls-1 {
        fill: #667d8b;
      }

      .cls-2 {
        fill: #edba5e;
      }

      .cls-3 {
        fill: #4f9ca7;
      }

      .cls-4 {
        fill: #eece97;
      }

      .cls-5 {
        fill: #57bbb8;
      }

      .cls-6 {
        fill: #a5ccda;
      }

      .cls-7 {
        fill: #3a7c93;
      }

      .cls-8 {
        fill: #e99153;
      }
    </style>
  </defs>
  <g id="Layer_1-2" data-name="Layer 1">
    <path class="cls-7" d="M249.83.26c25.98-1.02,71.15.83,95.88,7.37,8.16,2.16,16.31,5.34,23.36,10.03,21.27,14.13,30.05,40.46,33.79,64.56,1.27,8.2,1.68,16.66,3.39,24.77l.13.61c3.74,4.4,10.05,6.94,14.84,10.12,5.08,3.37,9.67,7.96,13.53,12.65,15.73,19.14,19.34,41.12,16.93,65.25,1.82,1.06,3.66,2.21,5.23,3.63,3.45,3.1,4.57,7.15,4.62,11.66.07,6.73-.21,14.18-5.33,19.2-8.43,8.25-31.02,5.71-42.34,5.73-.93,12.44-5.49,23.96-13.03,33.88-9.45,12.44-23.63,21.43-39.25,23.41-15.78,2-31.32-2.53-43.84-12.26-14.22-11.05-21.9-26.43-24.03-44.1l-79.48.1c-12.25.06-24.5-.24-36.75-.07-1.3,10.37-4.6,20.2-10.38,28.96-8.59,13.01-22.21,22.64-37.58,25.63-16.06,3.13-32.26.34-45.84-8.92-15.98-10.89-23.32-26.51-26.8-44.97-10.26.05-20.65.42-30.89,0-7.29-.29-17.42-1.62-22.5-7.4-4.21-4.8-3.59-11.8-3.16-17.74.42-5.81,2.6-9.02,6.86-12.7,4.74-43.98,9.96-70.13,56.62-85.05,9.65-3.08,19.75-4.66,29.5-7.41,5.91-1.66,13.82-3.61,18.06-8.34,4.92-5.48,7.15-14.12,9.73-20.91,7.15-18.78,14.6-38.01,28.75-52.78C173.88.11,217.3.87,249.83.26Z"/>
    <path class="cls-5" d="M37.87,137.01c8.51-6.73,17.62-11.12,27.97-14.35,14.54-4.54,39.94-6.91,51.11-16.97,8.67-7.81,14.62-32.37,19.7-43.62,6.79-15.04,15.18-30.16,29.46-39.25,29.68-18.91,120.35-15,156.21-10.76,21.24,2.51,40.68,7.05,54.5,24.54,12.26,15.51,16.89,36.55,19.06,55.86.68,6.06.63,13.46,3.05,19.1,2.98,6.94,13.47,10.16,19.39,14.39,4.07,2.91,7.45,6.7,10.53,10.59,13.01,16.44,16.48,35.43,13.96,55.97-1.15,9.37-3.68,20.07-11.44,26.26-4.74,3.78-10.14,4.77-16.05,4.9-4.19-18.96-12.63-34.14-29.47-44.8-12.7-8.04-29.31-11.13-43.97-7.64-16.23,3.95-30.22,14.2-38.9,28.48-5.35,8.81-8.44,18.5-9.56,28.73l-22.34-.02h-9.16s-52.89.04-52.89.04c-10.53,0-21.13.26-31.66-.2-2.38-18.2-9.98-36.14-24.89-47.61-12.25-9.43-27.98-13.07-43.24-11-15.38,2.09-29.79,11.65-39.05,23.93-7.89,10.45-12,22.18-13.6,35.09-9.49-.15-40.52,2.13-46.55-4.22-1.78-1.87-1.76-7.35-1.59-9.85.17-2.38.84-4.91,2.68-6.56,6.5-5.86,35.61,3.37,37.97-4.66-.48-1.92-1.27-3.14-3.03-4.14-.79-.45-1.72-.84-2.62-.96-2.68-.35-5.65.09-8.38.05-5.86-.1-11.78-.43-17.63-.89.2-2.31.38-4.59.79-6.87,9.2-.06,17.24-2.37,23.84-9.04,6.24-6.31,9.82-15.7,9.57-24.55-.17-6.11-2.4-11.62-6.93-15.78-1.95-1.79-4.5-2.96-6.84-4.16Z"/>
    <path class="cls-7" d="M266.94,111.86c.67-13.66,1.19-27.33,1.56-41.01.31-10.57-.12-22.23,2.08-32.6.68-3.18,1.67-6.47,4.21-8.67,8.1-7.04,37.7-3.89,48.56-2.78,14.59,1.49,29.37,6.23,38.88,18.04,10.76,13.36,17.35,41.2,15.2,57.96-.38,2.92-1.24,6.61-3.82,8.43-1.92,1.35-4.73,1.6-7.03,1.81-10.28.93-21.09.4-31.41.43l-60.93.11c-2.66-.05-4.83-.76-7.29-1.72Z"/>
    <path class="cls-6" d="M283.45,34.64c15.62-.93,40.14-1.23,54.97,4.03,10.52,3.73,18.05,10.9,22.76,20.97,4.15,8.87,10.48,35.29,7.14,44.47-2.53.76-5.32.53-7.94.54-28.08.53-56.18.34-84.27.68-.01-10.19.43-60.92,3.39-67.52.87-1.93,2.06-2.53,3.94-3.17Z"/>
    <path class="cls-3" d="M266.94,111.86c2.46.96,4.63,1.67,7.29,1.72-.38,10.59-1.43,21.14-1.84,31.72-.26,6.61-1.88,81.67-1.3,83.11h-9.16c1.76-11.32,1.51-24.94,1.67-36.49.37-26.9-.22-53.3,3.34-80.06Z"/>
    <path class="cls-7" d="M212.88,26.21c6.57-.7,33.15-1.88,38.01,2.05,2.23,1.8,2.96,5.74,3.39,8.45,1.67,10.44.33,22.47.09,33.08-.27,11.99.14,25.93-1.52,37.73-.29,2.05-.59,4.14-1.86,5.83-6.5,1.21-14.31.44-21,.48l-48.15.17c-10.99-.06-27.74,1.66-37.92-.55-.35-.29-.69-.58-1.03-.88-2.49-2.2-3.87-4.35-3.98-7.75-.34-10.61,11.74-39.03,17.07-48.72,2.62-4.77,5.65-9.3,9.3-13.35,12.06-13.38,30.68-15.68,47.61-16.55Z"/>
    <path class="cls-6" d="M219.68,34.73c4.88-.19,9.83-.34,14.71-.23,2.46.05,8.34.03,9.89,2.06,3.93,5.15.94,59.15.34,68.92l-70.29.07c-6.66.04-19.7,1.22-25.57-.66-.61-.83-.8-1.16-.87-2.23-.43-6.59,12.02-35.44,15.38-41.7,2.34-4.36,5.02-8.54,8.35-12.22,12.16-13.42,31.3-13.26,48.06-14.01Z"/>
    <path class="cls-7" d="M220.7,131.61c6.62-.23,20.71-1.51,25.99,1.93.78,1.3.87,1.41.77,2.91-.9,1.54-1.62,2.41-3.06,3.48-6.34.12-20.9,1.72-25.69-1.79-.65-1.26-1.05-2.21-.69-3.66.36-1.47,1.49-2.11,2.68-2.86Z"/>
    <path class="cls-1" d="M348.65,179.49c28.68-2.89,54.31,17.94,57.35,46.6,3.04,28.67-17.65,54.41-46.3,57.6-28.87,3.22-54.85-17.66-57.91-46.54s17.95-54.75,46.86-57.66Z"/>
    <path class="cls-7" d="M351.38,203.5c15.64-1.33,29.41,10.26,30.77,25.9,1.36,15.64-10.2,29.43-25.84,30.82-15.68,1.4-29.52-10.2-30.88-25.89-1.36-15.68,10.26-29.5,25.95-30.83Z"/>
    <path class="cls-6" d="M351.7,212.12c10.9-1.13,20.65,6.79,21.78,17.7,1.13,10.9-6.79,20.65-17.69,21.78-10.9,1.13-20.66-6.79-21.78-17.69-1.13-10.9,6.79-20.66,17.7-21.78Z"/>
    <path class="cls-1" d="M110.48,179.2c28.73-3.72,55.03,16.58,58.7,45.32,3.67,28.74-16.68,55-45.43,58.62-28.67,3.61-54.85-16.68-58.51-45.34-3.66-28.66,16.58-54.88,45.23-58.59Z"/>
    <path class="cls-7" d="M113.13,202.51c10.29-1.4,20.54,2.86,26.81,11.15,6.27,8.28,7.58,19.31,3.44,28.83-4.15,9.53-13.1,16.08-23.44,17.14-15.62,1.6-29.64-9.62-31.5-25.21-1.86-15.59,9.13-29.79,24.69-31.91Z"/>
    <path class="cls-6" d="M115.06,210.88c11.11-1.16,21.06,6.92,22.21,18.03,1.14,11.12-6.95,21.05-18.07,22.18-11.09,1.12-21-6.95-22.14-18.04-1.14-11.09,6.91-21.01,18-22.17Z"/>
    <path class="cls-2" d="M30.35,146.08c.56-.69.74-1.27,1.67-1.42,3.21-.51,7.08,1.73,9.46,3.68,1.21,1,1.87,2.31,2.55,3.69.88,7.23-.56,14.38-4.67,20.47-3.44,5.09-8.45,8.44-14.51,9.5-1.65.29-4.45.92-5.93-.08-.22-.57-.4-1.07-.46-1.69-.73-7.43,6.72-28.4,11.89-34.16Z"/>
    <path class="cls-4" d="M30.35,146.08c.56-.69.74-1.27,1.67-1.42,3.21-.51,7.08,1.73,9.46,3.68,1.21,1,1.87,2.31,2.55,3.69-3.95,2.22-4.56,8.93-7.12,10.03-1.93.83-5.24.32-7.06-.68-5.09-2.8,1.8-11.33.5-15.3Z"/>
    <path class="cls-8" d="M449.04,204.26c.59.32.64.33,1.25.79,2.11,1.6,2.71,4.17,3.03,6.66.47,3.74-.2,8.49-2.63,11.49-2.86,3.53-6.02,3.5-10.2,3.81-1.41.24-2.73.29-4.15.3-.19-.77,2.11-2.89,2.73-3.58,5.61-6.24,7.98-11.37,9.97-19.47Z"/>
  </g>
</svg>