<svg xmlns="http://www.w3.org/2000/svg" viewBox="0 0 1440 180" preserveAspectRatio="none">
  <defs>
    <linearGradient id="skyGrad" x1="0" y1="0" x2="0" y2="1">
      <stop offset="70%" stop-color="#FFDCC9"/>
      <stop offset="100%" stop-color="#FE6B5B"/>
    </linearGradient>
  </defs>

  <!-- Sky background -->
  <rect x="0" y="0" width="1440" height="180" fill="url(#skyGrad)" />

  <!-- Cloud strip across the bottom -->
  <g fill="#fff7e6">
    <!-- Row of big circles overlapping -->
    <circle cx="0" cy="160" r="80"/>
    <circle cx="120" cy="150" r="90"/>
    <circle cx="280" cy="160" r="85"/>
    <circle cx="420" cy="150" r="95"/>
    <circle cx="600" cy="160" r="90"/>
    <circle cx="760" cy="155" r="100"/>
    <circle cx="940" cy="160" r="85"/>
    <circle cx="1100" cy="150" r="95"/>
    <circle cx="1260" cy="160" r="90"/>
    <circle cx="1440" cy="155" r="100"/>
    
    <!-- Row of smaller circles on top to add fluffiness -->
    <circle cx="60" cy="130" r="50"/>
    <circle cx="200" cy="120" r="55"/>
    <circle cx="360" cy="130" r="50"/>
    <circle cx="520" cy="125" r="60"/>
    <circle cx="680" cy="135" r="55"/>
    <circle cx="840" cy="120" r="60"/>
    <circle cx="1000" cy="130" r="55"/>
    <circle cx="1180" cy="125" r="60"/>
    <circle cx="1340" cy="135" r="55"/>
  </g>
</svg>
