<svg id="Layer_2" data-name="Layer 2" xmlns="http://www.w3.org/2000/svg" viewBox="0 0 747.71 423.5" aria-hidden="true" focusable="false">
  <defs>
    <style>
      .cls-1 { fill: #eaeaea; }
      .cls-2 { fill: #f7f7f7; }
    </style>
  </defs>
  <g id="Layer_1-2" data-name="Layer 1">
    <path class="cls-2" d="M644.7,249.71s10.75-202-149.31-242c-185.06-46.25-221.5,130.75-221.5,130.75,0,0-72.19-13.69-117.12,35.13-37.69,40.94-34.13,81-34.13,81,0,0-49.75-10.75-88.81,23.44S.64,344.33.64,344.33l116.12,44.88s586.44,2.94,589.38,1,39.06-58.56,39.06-58.56c0,0-5.88-48.81-40-68.31-34.19-19.5-60.5-13.63-60.5-13.63h0Z"></path>
    <path class="cls-1" d="M61.14,419.46c29.25,1,220.56,4.87,336.63,3.88s292.56.87,317.06-10.69c19.19-9.06,30.63-24.06,32.44-45.06,1.75-20.06-2.12-35.94-2.12-35.94,0,0-27.31,19.75-79.06,20.5-32.19.44-97.56-4.87-84.88-16.56,3.56-3.31,54.12-41.62,51.69-77.06-.56-8.38-45.87,33.19-88.81,50.75-42.94,17.56-83.69,31.12-140.44,27.5-47.81-3.12-68.56-22.56-68.56-22.56,0,0-23.06,27.06-92.37,32.87-69.31,5.87-84.25-20.19-84.25-20.19,0,0-33.56,25.38-89.94,24.62-56.25-.87-67.31-21.13-67.31-21.13,0,0-5.31,36.06,6.44,57.13,12,21.44,33.81,31.31,53.5,31.94h0Z"></path>
  </g>
</svg>
