<?xml version="1.0" encoding="UTF-8"?>
<svg id="Layer_1" data-name="Layer 1" xmlns="http://www.w3.org/2000/svg" xmlns:xlink="http://www.w3.org/1999/xlink" viewBox="0 0 1440 180">
  <defs>
    <style>
      .cls-1 {
        fill: #fff7e6;
      }

      .cls-2 {
        fill: url(#linear-gradient);
      }
    </style>
    <linearGradient id="linear-gradient" x1="414.21" y1="485.31" x2="414.21" y2="484.31" gradientTransform="translate(-595746 87355) scale(1440 -180)" gradientUnits="userSpaceOnUse">
      <stop offset=".7" stop-color="#FFDCC9"/>
      <stop offset="1" stop-color="#FE6B5B"/>
    </linearGradient>
  </defs>
  <rect class="cls-2" x=".07" width="1440" height="180"/>
  <g>
    <circle class="cls-1" cx=".36" cy="135" r="80"/>
    <circle class="cls-1" cx="120.07" cy="150" r="90"/>
    <circle class="cls-1" cx="280.07" cy="160" r="85"/>
    <circle class="cls-1" cx="420.07" cy="150" r="95"/>
    <circle class="cls-1" cx="600.07" cy="160" r="90"/>
    <circle class="cls-1" cx="760.07" cy="155" r="100"/>
    <circle class="cls-1" cx="940.07" cy="160" r="85"/>
    <circle class="cls-1" cx="1100.07" cy="150" r="95"/>
    <circle class="cls-1" cx="1260.07" cy="160" r="90"/>
    <circle class="cls-1" cx="1440.07" cy="155" r="100"/>
    <circle class="cls-1" cx="60.07" cy="130" r="50"/>
    <circle class="cls-1" cx="200.07" cy="120" r="55"/>
    <circle class="cls-1" cx="360.07" cy="130" r="50"/>
    <circle class="cls-1" cx="520.07" cy="125" r="60"/>
    <circle class="cls-1" cx="680.07" cy="135" r="55"/>
    <circle class="cls-1" cx="840.07" cy="120" r="60"/>
    <circle class="cls-1" cx="1000.07" cy="130" r="55"/>
    <circle class="cls-1" cx="1180.07" cy="125" r="60"/>
    <circle class="cls-1" cx="1340.07" cy="135" r="55"/>
  </g>
</svg>