<?xml version="1.0" encoding="UTF-8"?>
<svg id="Layer_2" data-name="Layer 2" xmlns="http://www.w3.org/2000/svg" viewBox="0 0 837.56 685.63">
  <defs>
    <style>
      .cls-1 {
        fill: #ec8f36;
      }

      .cls-2 {
        fill: #efad3d;
      }

      .cls-3 {
        fill: #224969;
      }

      .cls-4 {
        fill: #f0ad3d;
      }
    </style>
  </defs>
  <g id="Layer_2-2" data-name="Layer 2">
    <g>
      <path class="cls-3" d="M725.83,1.8c2.01.43,9.44,4.19,11.61,5.78,7.26,5.29,10.05,14.36,8.64,23.15-3.36,20.96-66.52,71.24-84.69,86.77-3.79,3.24-12.79,5.21-13.26,12.95,7.44,1.62,12.98-4.05,18.8-5.88,31.26-9.85,93.44-23.36,124.66-25.15,13.99-.8,34.56-2.8,41.84,11.29,9.15,17.71,1.71,33.8-9.27,48-12.53,16.2-35.55,36.63-50.72,51.64-17.55,17.36-36.09,33.92-53.91,51.01-1.3,6.96,2.86,1.13,4.05,1.03,21.29-1.86,58.65-6.96,76.24,6.43,10.18,7.74,14.31,22.6,12.27,34.92-4.64,28.03-142.97,126.48-171.3,146.35-72.96,51.18-149.06,94.03-221.46,144.29-68.88,47.83-85.15,86.4-180.75,91-173.26,8.34-299.77-186.46-207.59-343.58,34.94-59.55,88.06-89.37,151.42-104.4,26.94-6.39,19.13-4.97,40.07-19.58,106.08-74.02,222.95-133.23,342.86-178.48,43.12-16.27,115.91-47.09,160.49-37.55ZM803.14,127.45c-20.98-2.18-73.31,9.87-95.24,15.07-20.46,4.85-51.96,17.74-70.48,19.88-18.77,2.17-31.33-9.24-28.35-28.5,2.2-14.25,63.35-58.87,76.72-70.82,10.67-9.54,20.38-20.15,30.32-30.4l.03-4.24c-5.98.47-12.69-.6-18.56-.07-47.37,4.28-104.06,28.11-150.26,46.96-99.82,40.74-197.12,89.02-287.45,148.11l-7.74,7.5c14.1,4.71,29.89,6.36,44.2,10.61,6.67,1.98,14.27,5.26,20.8,7.89,44.35,17.89,81.1,50.09,106,91,1.59,2.61,2.95,7.68,6,8,1.96,4.5,3.8,10.05,6,15,1.25,2.81,1.98,5.66,3.1,8.19.18.41,2.81,5.68,3.9,4.81.15.57-.14,1.41,0,2,.69,2.89,1.25,10.73,4,10,.16.92-.12,2.05,0,3,.21,1.59.99,1.89,1,2,.11.96-.17,2.12,0,3,.4,2.01-1.16,3.52,2,3,.02,1-.04,2,0,3,.04,1.12-.26,2.43,1,3-.04.99,0,2,0,3,0,2.52-.89,4.64,2,4-.01,1,.02,2,0,3-.04,1.78-.34,3.52,1,5-.04,1,.03,2,0,3-.07,2.49-.76,6.02,2,7-.03,2.66,0,5.34,0,8,0,2.95-.75,6.43,1,9-.3,7.62-.32,16.38,0,24-1.67,2.52-1.1,6.11-1,9,.07,2-.07,4,0,6-2.79.99-2.03,4.5-2,7,.02,1.66-.09,3.35,0,5-1.36,1.18-.75,2.74-1,4-.18.9.21,2.16,0,3-2.44,9.95-8.1,22.3-11.08,33.47-3.49,13.08,2.8,8.62,10.25,4.49,19.04-10.54,41.84-29.21,59.83-40.96,1.08-.7,9.53-3.74,9.88-4.14.57-.65-.12-2.61.12-2.86,29.26-13.19,78.5-46.75,105.65-66.36,4.42-3.19,9.03-7.15,12.35-10.64,4.7-2.27,5.63-1.26,9-6,1.19-.47,4.49-.72,4.88-1.15.58-.64-.12-2.52.12-2.85.66-.26,2.23.41,3.69-.3,2.26-1.1,10.91-8.93,12.31-10.7,1.12-.43,4-.12,4.85-1.19.59-.74-.07-2.53.15-2.81,12.76-5.06,26.83-18.19,36-27,1.35-.92,8.8-4.27,11.24-5.97,1.7-1.19,15.02-11.41,15.6-12.21s-.07-2.47.16-2.82c.65-.25,2.63.33,2.99-.01s-.27-2.49.01-2.99c.57-.27,2.41.5,3.68-.3,3.15-1.97,31.92-31.25,35.2-35.39,3.41-4.28,7.37-9.39,3.85-14.06-10.1-13.45-62.55-1.93-79.29-4.18-.73-.1-10.3-5.03-11.45-6.07-20.81-18.66,15.24-45.59,27-59,.36-.41,2.15-.46,2.8-1.18s0-2.59.2-2.82c.25-.27,2.67.31,3,0s-.28-2.68,0-3c9.28-6.72,11.06-8.24,19-17,.68-.75,1.57-1.38,3-3,2.9-2.2,12.09-7.97,13.82-10.19.66-.84-.05-2.46.18-2.81.65-.25,2.63.33,2.98-.01s-.27-2.49.02-2.99c7.67-3.68,10.4-6.54,16-14,2.46-1.76,1.2-.42,3-3,2.52-1.78,1.22-.47,3-3,1-.7,3.11-.16,3-3,3.31-2.25,11.9-10.68,14.03-13.75,1.88-2.71,8.28-14.29,3.65-15.91-1.58-.55-2.37-.21-3.67-.34ZM252.84,259.79C100.22,241.62-18.42,390.18,45.44,536.65c57.67,132.29,228.43,164.24,328.7,60,115.37-119.94,36.56-318.07-121.3-336.86Z"/>
      <path class="cls-2" d="M252.84,259.79c157.86,18.8,236.66,216.93,121.3,336.86-100.27,104.23-271.03,72.28-328.7-60-63.86-146.47,54.78-295.03,207.4-276.86Z"/>
      <path class="cls-1" d="M317.14,249.45c-6.53-2.63-14.13-5.91-20.8-7.89-14.32-4.25-30.11-5.91-44.2-10.61l7.74-7.5c90.33-59.09,187.63-107.37,287.45-148.11,46.2-18.86,102.89-42.69,150.26-46.96,5.87-.53,12.58.54,18.56.07l-.03,4.24c-9.94,10.25-19.65,20.87-30.32,30.4-13.37,11.95-74.52,56.57-76.72,70.82-2.98,19.27,9.58,30.67,28.35,28.5,18.52-2.14,50.02-15.03,70.48-19.88,21.93-5.21,74.26-17.25,95.24-15.07,9.6,9.56-13.6,19.46-14,30-.28.19-2.07-.49-2.78.22s-.03,2.51-.22,2.78c-.27.19-2.06-.49-2.78.22s-.03,2.5-.22,2.78c-.27.19-2.07-.49-2.78.22s-.03,2.53-.22,2.78c-5.9,4.22-11.63,6.53-16,14-3.58,1.72-1.59.88-3,3-9.75,3.76-8.73,7.01-14,13-.32.24-1.98-.49-2.86.19-.54.41.03,2.68-.14,2.81-8.6,6.73-11.2,8.13-19,17-2.39,1.73-2.81,2.85-3,3-1.05.8-3.67,2.39-4.99,3.02l1.99.98c-11.76,13.41-47.81,40.34-27,59-5.15-.9,4.41,5.72,4.82,5.89,17.01,7.41,41.64-.5,60.72.07,10.02.3,15.73,2.69,24.45,7.06.54.56-2.99,7.17-3.34,7.66-8.69,12.24-32.21,28.29-38.65,39.31-.62.3-1.63-.14-2.53.97-.54.66-.27,1.72-.47,2.03-9.92,3.81-19.2,13.5-27,21-4.04,2.75-8.4,6.03-12.74,9.04-7.39,5.12-17.87,10.94-23.26,17.96-7.76,3.08-2.77,1.17-5,4-.64.25-2.28-.38-3.25.03-2.98,1.28-10.66,8.05-12.75,10.97-1.16.46-4.55.75-4.88,1.14-.57.66.13,2.51-.12,2.86-1.19.47-8.23,2.4-8.88,3.14-.57.65.12,2.61-.12,2.86-15.07,7.29-29.1,19.43-43.83,28.96-16.43,10.64-34.69,20.12-51.37,31.07-7.4,4.86-14.15,11.14-22.31,14.96-.65.48-.32,1.82-.5,2-1.47.66-14.03,4.05-10,7-17.98,11.75-40.79,30.42-59.83,40.96-7.45,4.12-13.73,8.59-10.25-4.49,2.97-11.16,8.64-23.52,11.08-33.47l2.99,1.99c.12-1.92.45-9.83,1.17-10.82.6-.82,3.17-.52,4.02-1.21,18.15-14.71,35.82-33.23,53.15-46.6,28.31-21.84,65.93-38.26,91.69-65.12,1.21-5.33,21.01-26.95,14.21-31.25-2.44-1.54-7.09-.41-9.52-1.04-27.54-7.06-34.5-4.29-62.16-2.88-3.24.16-29.65.41-29.57-2.58,8.63-1.17,1.81-2.26,1.02-4.31-3.25-8.46,6.36-10.89,10.25-14.15,29.17-24.42,66.95-44.75,87.67-78.89,2.18-3.59,7.44-13.35,5.86-17.01-9.97-4.98-21.22-6.28-32.35-5.22-25.74,2.47-83.01,32.08-101.44,32.08h-21c-4.87-19.88,17.44-26.58,29.55-36.43,11.07-9,34.48-33.68,38.34-47.4,3.14-11.19-1.91-11.61-12.35-12.21-21.41-1.22-37.33,5.9-56.35,11.93-33.92,10.75-66.4,23.28-97.39,40.14l-52.8,34.97Z"/>
      <path class="cls-4" d="M317.14,249.45l52.8-34.97c30.99-16.86,63.46-29.4,97.39-40.14,19.02-6.03,34.94-13.15,56.35-11.93,10.44.6,15.49,1.02,12.35,12.21-3.85,13.72-27.27,38.39-38.34,47.4-12.11,9.85-34.42,16.55-29.55,36.43h21c18.43,0,75.7-29.6,101.44-32.08,11.12-1.07,22.38.24,32.35,5.22,1.57,3.67-3.69,13.42-5.86,17.01-20.72,34.14-58.5,54.47-87.67,78.89-3.89,3.26-13.5,5.69-10.25,14.15.79,2.05,7.61,3.14-1.02,4.31-.08,2.98,26.33,2.74,29.57,2.58,27.66-1.4,34.62-4.18,62.16,2.88,2.44.63,7.08-.51,9.52,1.04,6.81,4.3-13,25.92-14.21,31.25-25.76,26.86-63.38,43.29-91.69,65.12-17.33,13.37-35,31.89-53.15,46.6-.85.69-3.42.38-4.02,1.21-.72.99-1.05,8.9-1.17,10.82l-2.99-1.99c.21-.84-.18-2.1,0-3,4.28.63,1.04-3.18,1-4-.09-1.65.02-3.34,0-5,5.88,1.08,2.08-4.41,2-7-.07-2,.07-4,0-6,4.43.82,1.09-6.79,1-9-.32-7.62-.3-16.38,0-24,.09-2.2,3.43-9.82-1-9,0-2.66-.03-5.34,0-8,.02-1.72,3.56-6.6-2-7,.03-1-.04-2,0-3,.05-1.22,3.33-5.72-1-5,.02-1-.01-2,0-3,.02-1.63,3.69-4.69-2-4,0-1-.04-2.01,0-3,.04-.83,3.07-3.51-1-3-.04-1,.02-2,0-3s3.51-3.68-2-3c-.17-.88.11-2.04,0-3,1.77-1.65,1.31-2.34-1-2-.12-.95.16-2.08,0-3-.02-.13,1.28-1.13,1.06-2.31l-5.06-7.69c-.14-.59.15-1.43,0-2-1.03-3.81-2.28-7.1-3.84-10.68-.82-1.88.88-2.9-3.16-2.32-2.2-4.95-4.04-10.5-6-15-1.3-2.98-3.14-9.39-6-8-24.9-40.91-61.65-73.11-106-91Z"/>
      <path class="cls-2" d="M692.14,282.45c1.16,1.04,10.72,5.97,11.45,6.07,16.74,2.25,69.19-9.27,79.29,4.18,3.51,4.68-.45,9.78-3.85,14.06-3.29,4.13-32.05,33.42-35.2,35.39-1.28.8-3.11.03-3.68.3-.29.5.34,2.64-.01,2.99s-2.34-.23-2.99.01c-.22.35.45,1.99-.16,2.82s-13.9,11.02-15.6,12.21c-2.44,1.7-9.9,5.05-11.24,5.97-9.17,8.81-23.24,21.94-36,27-.22.29.44,2.08-.15,2.81-.85,1.07-3.73.75-4.85,1.19-1.39,1.77-10.05,9.61-12.31,10.7-1.47.71-3.03.04-3.69.3-.24.34.46,2.22-.12,2.85-.39.42-3.69.67-4.88,1.15-3.37,4.74-4.3,3.73-9,6-3.32,3.49-7.93,7.45-12.35,10.64-27.15,19.61-76.39,53.17-105.65,66.36-.24.25.45,2.21-.12,2.86-.35.4-8.81,3.44-9.88,4.14-4.03-2.95,8.53-6.34,10-7,.17-.18-.15-1.52.5-2,8.16-3.82,14.9-10.11,22.31-14.96,16.68-10.95,34.94-20.43,51.37-31.07,14.73-9.53,28.76-21.67,43.83-28.96.24-.25-.45-2.21.12-2.86.65-.74,7.69-2.67,8.88-3.14.25-.35-.45-2.2.12-2.86.33-.39,3.72-.68,4.88-1.14,2.09-2.92,9.77-9.69,12.75-10.97.97-.41,2.61.21,3.25-.03,2.23-2.83-2.76-.92,5-4,5.39-7.02,15.87-12.84,23.26-17.96,4.34-3.01,8.71-6.29,12.74-9.04,7.8-7.5,17.08-17.19,27-21,.2-.31-.06-1.37.47-2.03.9-1.11,1.91-.67,2.53-.97,6.44-11.02,29.96-27.07,38.65-39.31.35-.49,3.88-7.1,3.34-7.66-8.72-4.38-14.43-6.76-24.45-7.06-19.08-.58-43.7,7.34-60.72-.07-.41-.18-9.97-6.79-4.82-5.89Z"/>
      <path class="cls-2" d="M803.14,127.45c1.31.14,2.1-.21,3.67.34,4.63,1.62-1.77,13.2-3.65,15.91-2.12,3.07-10.72,11.5-14.03,13.75.11,2.84-2,2.3-3,3-1.78,2.53-.48,1.22-3,3-1.8,2.58-.54,1.24-3,3-5.6,7.46-8.33,10.32-16,14-.29.49.34,2.63-.02,2.99s-2.34-.23-2.98.01c-.23.34.48,1.96-.18,2.81-1.73,2.22-10.93,8-13.82,10.19-1.43,1.62-2.32,2.25-3,3-7.94,8.76-9.72,10.28-19,17-.28.32.31,2.7,0,3s-2.75-.27-3,0c-.2.22.46,2.09-.2,2.82s-2.44.77-2.8,1.18l-1.99-.98c1.31-.62,3.94-2.22,4.99-3.02.19-.15.61-1.27,3-3,7.8-8.87,10.4-10.27,19-17,.17-.13-.4-2.4.14-2.81.88-.68,2.54.06,2.86-.19,5.27-5.99,4.25-9.24,14-13,1.41-2.12-.58-1.28,3-3,4.37-7.47,10.1-9.78,16-14,.19-.25-.49-2.06.22-2.78s2.51-.03,2.78-.22c.19-.27-.49-2.06.22-2.78s2.51-.03,2.78-.22c.19-.27-.49-2.07.22-2.78s2.5-.03,2.78-.22c.4-10.54,23.6-20.44,14-30Z"/>
      <path class="cls-1" d="M435.14,363.45c4.04-.58,2.35.44,3.16,2.32,1.55,3.58,2.81,6.87,3.84,10.68-1.09.88-3.72-4.4-3.9-4.81-1.12-2.53-1.84-5.38-3.1-8.19Z"/>
      <path class="cls-1" d="M442.14,378.45l5.06,7.69c.22,1.18-1.09,2.18-1.06,2.31-2.75.73-3.31-7.11-4-10Z"/>
      <path class="cls-1" d="M455.14,486.45c.08,2.59,3.88,8.08-2,7-.03-2.5-.79-6.01,2-7Z"/>
      <path class="cls-1" d="M455.14,430.45c-2.76-.98-2.07-4.51-2-7,5.56.4,2.02,5.28,2,7Z"/>
      <path class="cls-1" d="M455.14,438.45c4.43-.82,1.09,6.8,1,9-1.75-2.57-1-6.05-1-9Z"/>
      <path class="cls-1" d="M456.14,471.45c.09,2.21,3.43,9.82-1,9-.1-2.89-.67-6.48,1-9Z"/>
      <path class="cls-1" d="M423.14,340.45c2.86-1.39,4.7,5.02,6,8-3.05-.32-4.41-5.39-6-8Z"/>
      <path class="cls-1" d="M450.14,408.45c5.69-.69,2.02,2.37,2,4-2.89.64-1.99-1.48-2-4Z"/>
      <path class="cls-1" d="M452.14,415.45c4.33-.72,1.05,3.78,1,5-1.34-1.48-1.04-3.22-1-5Z"/>
      <path class="cls-1" d="M447.14,396.45c5.51-.68,1.98,1.96,2,3-3.16.52-1.6-.99-2-3Z"/>
      <path class="cls-1" d="M453.14,498.45c.04.82,3.28,4.63-1,4,.25-1.26-.36-2.82,1-4Z"/>
      <path class="cls-1" d="M449.14,402.45c4.07-.51,1.04,2.17,1,3-1.26-.57-.96-1.88-1-3Z"/>
      <path class="cls-1" d="M446.14,391.45c2.31-.34,2.77.35,1,2-.01-.11-.79-.41-1-2Z"/>
    </g>
  </g>
</svg>