<?xml version="1.0" encoding="iso-8859-1"?>
<!-- Uploaded to: SVG Repo, www.svgrepo.com, Generator: SVG Repo Mixer Tools -->
<svg height="800px" width="800px" version="1.1" id="Layer_1" xmlns="http://www.w3.org/2000/svg" xmlns:xlink="http://www.w3.org/1999/xlink" 
	 viewBox="0 0 512 512" xml:space="preserve">
<path style="fill:#B7C5D2;" d="M283.977,439.75c-9.222,0-16.704-7.477-16.704-16.705v-66.818c0-9.228,7.483-16.705,16.704-16.705
	c9.222,0,16.705,7.477,16.705,16.705v66.818C300.681,432.273,293.199,439.75,283.977,439.75z"/>
<path style="fill:#A4B5C5;" d="M417.613,439.75c-9.222,0-16.705-7.477-16.705-16.705v-66.818c0-9.228,7.483-16.705,16.705-16.705
	s16.704,7.477,16.704,16.705v66.818C434.317,432.273,426.835,439.75,417.613,439.75z"/>
<path style="fill:#BF6745;" d="M499.183,272.704H350.795c-9.211,0-16.704-7.494-16.704-16.705V139.068h-33.409H16.705
	C7.483,139.068,0,146.545,0,155.773v33.409c0,7.667,5.22,14.345,12.648,16.204l175.147,43.789
	c7.46,1.865,12.659,8.526,12.659,16.204c0,59.303,48.254,107.551,107.557,107.551h116.388c20.467,0,39.728-8.009,54.224-22.55
	c12.104-12.132,19.587-27.584,21.769-44.268c0.445-3.402,0.752-6.838,0.743-10.326C501.116,287.926,500.325,280.258,499.183,272.704
	z"/>
<path style="fill:#B1532F;" d="M356.363,272.704v100.227h68.036c20.467,0,39.728-8.009,54.224-22.55
	c12.104-12.132,19.587-27.584,21.769-44.268c0.445-3.402,0.752-6.838,0.743-10.326c-0.019-7.861-0.811-15.529-1.952-23.083
	L356.363,272.704L356.363,272.704z"/>
<path style="fill:#A4B5C5;" d="M317.386,172.477c-9.222,0-16.704-7.477-16.704-16.705V88.955c0-9.228,7.482-16.705,16.704-16.705
	s16.705,7.477,16.705,16.705v66.818C334.09,165,326.608,172.477,317.386,172.477z"/>
<path style="fill:#CCD5E0;" d="M16.705,239.295C7.483,239.295,0,231.819,0,222.591V122.364c0-9.228,7.483-16.705,16.705-16.705
	s16.705,7.477,16.705,16.705v100.227C33.409,231.819,25.927,239.295,16.705,239.295z"/>
<path style="fill:#6E6057;" d="M499.132,272.704c-10.803-71.495-69.714-127.4-142.769-133.079c-4.12-0.445-8.241-0.557-12.361-0.557
	h-43.32V256c0,27.618,22.495,50.114,50.114,50.114h149.56c0.445-3.452,0.781-6.793,0.781-10.357
	C501.135,287.961,500.355,280.277,499.132,272.704z"/>
<path style="fill:#615349;" d="M501.135,295.757c0,3.564-0.334,6.905-0.781,10.357H356.363V139.625
	c73.056,5.68,131.966,61.584,142.769,133.079C500.355,280.277,501.135,287.961,501.135,295.757z"/>
<path style="fill:#E2E7EC;" d="M461.886,439.75H217.159c-9.222,0-16.705-7.477-16.705-16.705c0-9.228,7.483-16.704,16.705-16.704
	h244.728c9.211,0,16.704-7.494,16.704-16.705c0-9.228,7.483-16.704,16.705-16.704S512,380.408,512,389.636
	C512,417.27,489.52,439.75,461.886,439.75z"/>
<g>
	<path style="fill:#CCD5E0;" d="M495.295,372.932c-9.222,0-16.705,7.477-16.705,16.704c0,9.211-7.494,16.705-16.704,16.705H356.363
		v33.409h105.523c27.634,0,50.114-22.48,50.114-50.114C512,380.409,504.517,372.932,495.295,372.932z"/>
	<path style="fill:#CCD5E0;" d="M484.431,105.659h-334.09c-9.222,0-16.705-7.477-16.705-16.705s7.483-16.705,16.705-16.705h334.09
		c9.222,0,16.704,7.477,16.704,16.705S493.653,105.659,484.431,105.659z"/>
</g>
</svg>