<?xml version="1.0" encoding="UTF-8"?>
<svg id="Layer_2" data-name="Layer 2" xmlns="http://www.w3.org/2000/svg" viewBox="0 0 1197 529.11">
  <defs>
    <style>
      .cls-1 {
        fill: #fbf6e7;
      }

      .cls-2 {
        fill: #99d8e6;
      }

      .cls-3 {
        fill: #578f36;
      }

      .cls-4 {
        fill: #9dba3f;
      }

      .cls-5 {
        fill: #58757a;
      }

      .cls-6 {
        fill: #254825;
      }

      .cls-7 {
        fill: #3e7d32;
      }

      .cls-8 {
        fill: #7da73b;
      }

      .cls-9 {
        fill: #385e67;
      }
    </style>
  </defs>
  <g id="Layer_1-2" data-name="Layer 1">
    <path class="cls-8" d="M1197,265.11v69c-16.42,1.4-33.12,5.97-49,10.5-149.52,42.7-270.03,157.27-428.01,180.98l-7.99,3.51h-281c.59-3.03-1.48-1.76-3.31-2.14-68.32-14.13-126.21-30.11-189.06-60.99-78.32-38.47-144.19-96.35-229.86-121.13-2.86-.83-5.73-1.8-8.76-1.74v-78.56c54.21,8.64,107.51,37.41,157.67,59.38,142.16,62.28,258.21,182.64,426.7,162.05,4.98-.61,30.87-4.49,32.96-6.82.75-.83,1.06-2.66.67-3.04-.84-.82-20.17-1.71-23.38-2.13-46.59-6.04-89.36-17.94-132.87-35.13-8.91-3.52-56.34-23.05-59.81-28.19-.82-1.21-1.19-2.04-.94-3.56,3.17-3.07,30.88,9.45,36.22,11.27,125.17,42.56,215.97,34.19,338.29-10.25,24.07-8.75,47.82-19.81,71.96-28.04,6.66-2.27,30.05-11,14.99,2.99-4.7,4.36-14.43,10.33-20.14,13.86-3.11,1.92-16.8,8.03-17.88,10.18-1.16,2.31,2.08,6.78,4.19,7.86,10.31,5.33,34.49-8.29,44.38-13.36,45.07-23.08,87.92-50.75,132.96-74.04,59.44-30.73,123.63-56.67,191.02-62.48ZM1109,334.11c3.46,3.43,15.2-11.11,17.98-13.51,3.75-3.24,12.05-7.75,14.53-10.46,2.47-2.7,1.92-5.18-1.9-5-7.91.37-31.69,18.93-30.61,28.98ZM66.99,346.11c-.91-12.14-20.45-27.41-31.77-28.82-3.5-.44-7.12,2.17-3.76,4.86,2.33,1.87,10.07,3.8,13.85,6.15,1.76,1.09,4.05,2.95,5.69,4.31,2.1,1.74,13.92,15.64,15.98,13.51ZM1100.67,320.26c-3.26.88-13.4,14.27-8.13,17.85,4.51,1.34,17.06-20.26,8.13-17.85ZM216,397.12c-1.85,1.79,6.53,10.76,7.81,12.68,1.6,2.39,14.45,26.41,15.28,13.82.45-6.75-18.78-30.67-23.09-26.5ZM196,404.12c-.12,1.41-.1,2.65.53,3.97.51,1.09,15.98,15.4,17.54,16.46,1.18.8,3.18,2.56,4.46.59,3.56-5.46-15.6-23.89-22.53-21.02ZM342,483.11c.13-2.46.35-4.28-.94-6.56-2.41-4.23-17.92-15.68-22.83-16.27-4.03-.49-6.9,1.87-3.26,5.37,3.12,3.01,11.26,7.31,15.5,10.49,3.65,2.74,5.78,7.9,11.52,6.97ZM359.99,485.11c2.92-3.05-8.64-21.73-14.99-19.99-2.05,2.12,8.01,15.44,10.02,17.47,1.52,1.54,2.3,3.02,4.97,2.52Z"/>
    <path class="cls-6" d="M961,108.11c26.15,32.87,52.06,65.94,81.51,96,2.54.56,3.94-10.16,5-12.98,7.67-20.5,28.1-33.47,49.76-25.78,3.54,1.25,5.88,4.3,9.72,3.77-.01-2.75-.16-5.48.28-8.22,4.72-29.27,28.28-55.55,60.67-46.23,12.39,3.56,20.65,13.4,29.05,22.45v15c-2.42.53-2.07-1.22-2.82-2.63-2.11-4-3.55-6.64-6.18-10.37-21.9-30.96-60.34-20.58-71.76,13.74-.87,2.61-3.24,10.57-3.24,12.76v19.5c-4.71-.03-7.51-5.71-10.99-8.51-17.72-14.27-39.29-1.87-47.83,16.19-5.64,11.92-6.5,22.96-2.1,35.55.24.67,4.41,2.49.92,5.77-3.75-1.88-16.2-5.75-20.53-6-14.95-.84-36.47,13.91-36.47,29.5v17c0,.3,1.49,1.78,2.3,1.35,35.69-12.16,72.4-21.66,109.52-28.54,29.38-5.44,59.18-10.34,89.19-9.31v7c-7.66.38-15.79-.57-23.39.11-154.18,13.71-293.12,87.64-433.64,144.36-36.24,14.63-72.43,28.57-111.6,33.4-25.42,3.13-59.31,3.07-84.74,0-96.71-11.69-184.88-66.08-273.66-102.34C184.2,285.6,92.31,261.32,0,251.11v-13.56c47.69,3.63,94.32,20.12,140.55,31.61,4.06.5,5.17-6.41,5.28-9.62.04-1.17-.82-2.06-.84-2.43-.49-16.29-6.4-30.48-25.49-28.99-4.08.32-14.01,5.71-15.57,4.56-1.67-1.24-.79-10.71-1.2-13.81-2.93-21.89-23.27-33.77-43.06-21.58-4.95,3.05-8.36,8.89-13.68,9.82v-17.5c0-2.02-2.22-9.52-2.99-12.01-6.05-19.76-21.89-24.47-43.01-26.04v-15c25.64,4.01,42.34,15.52,49.51,40.55,1.57,5.49,2.71,12.47,3.5,18.01,26.38-22.27,53.52-2.3,57.07,27.93,12.94-3.37,26.46-1.93,34.92,9.57,2.51,3.41,3.05,6.84,4.77,10.22,1.63,3.2,5.6-1.13,7.7-2.75,53.59-41.36,103.16-110.62,146.53-162.97,11.32-13.66,22.66-27.8,34.49-41.01,23.33-26.05,33.34-33.42,60.03-5,30.33,32.3,57.61,71.71,86.49,106.01,6.18,7.34,14.44,19.43,20.98,25.51.77.72,1.29,1.6,2.53,1.55,1.49-.01,11.03-12.78,12.95-15.13,1.44-1.75,2.87-3.89,4.54-5.94,15.03-18.39,33.96-45.25,50.46-61.04,7.45-7.13,14.32-11.16,24.22-6.15,10.81,5.48,40.49,47.04,50.32,59.18,14.8,18.29,29.55,38.88,45.49,56.01,1.43,1.54,9.17,9.92,10.5,8.98.08-.87.39-1.84.99-2.47,25.42-26.68,49.77-63.56,72.03-93.52,21.47-28.9,45.44-67.92,69.03-93.47,15.7-17.01,25.74-11.95,39.49,3.46,24.65,27.65,48.78,64.21,72.49,94.01ZM778,123.11c-1.51-.15-2.65.88-3.53,1.96-39.48,55.4-80.85,108.79-136.47,149.03,44.62-.56,89.34,9.77,131.77,22.74,29.34,8.97,58.17,19.74,85.73,33.19,42.1-17.85,84.72-34.77,127.5-50.93,1.88-.71,3.98-.95,5.98-1.02-7.85-32.72,20.57-66.69,54.5-53.96,1.39.01-.68-8.25-1.44-9.56-2.59-4.46-15.99-15.45-20.56-20.44-19.95-21.77-38.59-44.93-56.96-68.03-1.6-2.02-4.36-2.76-4.52-2.98-25.09-33.13-49.76-73.97-78.03-104.47-4.36-4.71-9.76-10.49-16.97-9.53-5.82.78-10.92,7.92-14.4,12.1-25.24,30.37-46.24,66.02-71.15,96.86l-1.46,5.04ZM278,124.11c-1.23-.48-3.19.39-4.07,1.43-30.62,37.39-62.02,75.62-97.91,108.09-7.33,6.63-15.34,12.64-22.73,19.2-.67.59-1.93-.06-1.28,2.28,7.5-1.15,12.5-3.87,20.5-3,3.48.38,13.12,4.99,13.85,4.85.8-.15,9.88-9.06,12.32-10.67,28.29-18.62,64.78-8.31,74.42,24.73,3.07.71,5.64-1.48,8.48-1.82,19.4-2.33,37.26,16.28,38.43,34.91,5.18-2.33,10.32-5.29,15.95-6.55,28.39-6.34,55.4,14.13,65.66,39.63l96.39-34.08c5.6.75,33.37-9.99,41.23-12.27,21.94-6.35,44.35-12.19,67.26-13.73l.47-2.47c-52.72-42.35-97.53-93.33-139.2-146.32-.54-.48-1.21-.14-1.76-.21-.02-1.89-1.06-3.02-2.02-4.47-17.16-25.82-53.42-69.64-75.46-91.54-6.87-6.83-10.92-11.32-21.51-9.99-7.95,1-20.82,16.7-26.51,22.99-21.4,23.65-40.65,49.36-61.53,73.47l-.95,5.54ZM588,83.11c-7.67,3.98-16.06,15.58-21.98,22.52-14.89,17.47-28.65,36.65-42.02,54.48-1.9,2.54-10.01,9.43-10.01,12.52,10.93,15.22,25.28,28.15,37.52,42.48,20.87,17.02,41.35,42.61,63.61,57.39,3.49,2.32,5.36,3.28,9.22,1.45,7.67-3.62,24.93-17.86,32.13-23.86,3.15-2.63,5.75-6.52,8.53-8.97.26-.23,1.67-.23,2.5-.96,11.37-10.15,22.81-21.02,32.54-32.54-11.33-14.6-24.39-28.04-36.04-42.5-18.77-23.3-36.67-52.08-56.49-74.01-3.98-4.41-9.52-10.73-15.96-9.98-2.22.26-2.47,1.43-3.55,1.99ZM393.01,340.11c-.76-8.16-7.53-16.59-13.48-22.02-13.56-12.4-31.83-17.1-49.21-10.15-3.16,1.26-13.91,8.57-15.75,8.12-2.63-.65-1.28-8.73-1.66-11.36-2.23-15.56-20.98-35.3-37.3-25.47-2.27,1.37-4.74,7.33-7.1,6.88-1.83-.35-2.43-17.23-5.02-19.99-15.95-31.62-59.59-25.44-75.01,3-7.69-6.72-12.93-10.16-23.73-8.74-5.22.68-18.86,5.35-13.04,11.53,67.49,17.3,131.82,44.25,195.02,72.97,15.61,1.41,30.84-3.45,46.27-4.77ZM543,298.11c-5.8-.24-37.93,12.2-46,15-29.59,10.28-59.43,23.42-90,31-14.46,3.59-29.2,6.23-44,8.01l1,1.49c82.12,39.74,160.86,69.17,254,61.5,35.63-2.94,66.4-13.56,99-26,19.65-7.5,38.66-15.73,58-24,23.09-9.88,46.56-19.14,68.98-30.5,0-2.63-43.11-18.64-48.46-20.52-81.16-28.54-168.76-44.84-252.52-15.98Z"/>
    <path class="cls-7" d="M1197,387.11v142h-305c-.59-2.64,1.38-1.9,2.91-2.54,14.19-5.87,28.77-10.96,42.76-17.29,45.54-20.61,86.13-49.73,129.03-74.97,40.45-23.8,82.39-44.36,130.3-47.2Z"/>
    <path class="cls-3" d="M1197,334.11v53c-47.91,2.84-89.86,23.4-130.3,47.2-42.89,25.24-83.49,54.37-129.03,74.97-13.99,6.33-28.57,11.42-42.76,17.29-1.53.63-3.5-.11-2.91,2.54h-180l7.99-3.51c157.98-23.72,278.5-138.28,428.01-180.98,15.87-4.53,32.58-9.1,49-10.5Z"/>
    <path class="cls-3" d="M0,333.56c3.04-.07,15.98,1.43,18.84,2.26,85.68,24.78,141.47,91.69,219.79,130.17,62.85,30.88,120.74,46.86,189.06,60.99,1.84.38,3.9-.9,3.31,2.14h-197c.53-2.42-1.23-2.07-2.63-2.82-19.67-10.41-40.57-18.96-60.38-29.67-7.43-4.02-22.57-14.97-28.94-17.06-1.34-.44-2.64-.59-4.04-.46-2.11,2.09,5.69,8.98-8.96,4.46-26.83-8.29-41.38-31.48-63.13-45.87-19.66-13.01-43.81-24.47-65.92-32.58v-71.56ZM99.99,456.11c2.24-2.37-5.66-11.88-7.48-14.01-4.1-4.77-10.81-10.59-16.19-13.81-3.18-1.9-12.51-7.81-14.88-3.19-1.1,1.48.14,2.09,1.05,3.02,3.04,3.11,10.48,6.58,14.42,9.58,6.5,4.97,12.99,12.53,19.04,16.96,1.37,1,2.02,1.89,4.04,1.45Z"/>
    <path class="cls-7" d="M0,386.56c22.1,8.12,46.25,38.13,65.92,51.14,21.76,14.39,36.3,37.58,63.13,45.87,14.65,4.52,6.84-2.36,8.96-4.46,1.4-.13,2.7.02,4.04.46,6.37,2.09,21.51,13.04,28.94,17.06,19.81,10.71,40.71,19.26,60.38,29.67,1.41.74,3.16.39,2.63,2.82H0v-142.56Z"/>
    <path class="cls-7" d="M1188,139.11c2.64,3.73,4.07,6.36,6.18,10.37.74,1.41.4,3.16,2.82,2.63v86c-30-1.02-59.8,3.87-89.19,9.31-37.12,6.88-73.83,16.37-109.52,28.54-.81.42-2.3-1.05-2.3-1.35v-17c0-15.59,21.53-30.34,36.47-29.5,4.33.24,16.78,4.12,20.53,6,.09.05-.33,1.38.73,1.97,2.13,1.2,12.63,1.88,13.83.09,1.36-2.01,1.79-17.17,2.69-21.31,4.49-20.48,28.2-26.12,42.29-10.79l1.43.03c1.72-4.01,5.6-8.85,8.99-11.52,2.64-2.07,6.71-3.11,8.5-5.5,1.97-2.62,2.3-7.19,3.79-10.21,9.7-19.73,30.13-36.46,52.73-37.77Z"/>
    <path class="cls-7" d="M0,161.11c22.09,7.63,29.53,28.48,26.13,50.37,6.88,3.5,13.24,8.27,13.88,16.64,1.22,1.05,10.7-6.19,13.12-7.37,14.02-6.84,30.08-7.33,36.35,9.4,1.09,2.9,2.29,12.15,4.52,13.54,1.93,1.21,12.7-4,16.62-4.46,8.87-1.04,17.86.18,24.89,5.9l9.5,12c.01.37.88,1.26.84,2.43-.11,3.22-1.22,10.12-5.28,9.62-46.24-11.49-92.87-27.98-140.55-31.61v-76.44Z"/>
    <path class="cls-3" d="M0,151.56c21.12,1.57,36.97,6.28,43.01,26.04.76,2.5,2.99,10,2.99,12.01v17.5c5.32-.93,8.73-6.77,13.68-9.82,19.79-12.19,40.14-.31,43.06,21.58.41,3.1-.47,12.57,1.2,13.81,1.56,1.16,11.49-4.24,15.57-4.56,19.09-1.49,24.99,12.69,25.49,28.99l-9.5-12c-7.03-5.72-16.02-6.94-24.89-5.9-3.92.46-14.69,5.66-16.62,4.46-2.22-1.39-3.43-10.64-4.52-13.54-6.27-16.73-22.33-16.24-36.35-9.4-2.42,1.18-11.89,8.42-13.12,7.37-.64-8.36-7-13.13-13.88-16.64,3.4-21.88-4.04-42.74-26.13-50.37v-9.56Z"/>
    <path class="cls-3" d="M1109,334.11c-1.08-10.04,22.69-28.61,30.61-28.98,3.82-.18,4.37,2.3,1.9,5-2.48,2.71-10.79,7.23-14.53,10.46-2.78,2.4-14.52,16.93-17.98,13.51Z"/>
    <path class="cls-3" d="M66.99,346.11c-2.06,2.14-13.88-11.77-15.98-13.51-1.64-1.36-3.93-3.22-5.69-4.31-3.79-2.35-11.52-4.28-13.85-6.15-3.36-2.69.26-5.3,3.76-4.86,11.32,1.42,30.86,16.68,31.77,28.82Z"/>
    <path class="cls-3" d="M342,483.11c-5.75.93-7.88-4.24-11.52-6.97-4.25-3.18-12.38-7.48-15.5-10.49-3.64-3.5-.77-5.85,3.26-5.37,4.91.59,20.42,12.04,22.83,16.27,1.29,2.28,1.07,4.09.94,6.56Z"/>
    <path class="cls-3" d="M216,397.12c4.31-4.17,23.53,19.75,23.09,26.5-.83,12.6-13.68-11.43-15.28-13.82-1.28-1.92-9.66-10.89-7.81-12.68Z"/>
    <path class="cls-3" d="M196,404.12c6.93-2.87,26.09,15.57,22.53,21.02-1.28,1.96-3.28.2-4.46-.59-1.56-1.05-17.03-15.37-17.54-16.46-.63-1.33-.64-2.56-.53-3.97Z"/>
    <path class="cls-3" d="M359.99,485.11c-2.67.5-3.45-.98-4.97-2.52-2.01-2.03-12.07-15.35-10.02-17.47,6.35-1.74,17.9,16.94,14.99,19.99Z"/>
    <path class="cls-3" d="M1100.67,320.26c8.93-2.42-3.62,19.19-8.13,17.85-5.26-3.58,4.87-16.96,8.13-17.85Z"/>
    <path class="cls-8" d="M982,322.12c1.68,1.43-5.28,5.1-5.98,5.51-13.67,8.05-34.02,17.96-48.66,24.34-2.01.87-4.13,2.03-6.35,2.14-1.27-1.22,3.76-5.1,4.67-5.82,6.77-5.43,18.42-11.72,26.31-15.69,4.3-2.17,26.81-13.19,30.02-10.47Z"/>
    <path class="cls-8" d="M299,378.1c-1.05.98-10-3.91-11.67-4.82-6.6-3.61-28.03-16.1-32.35-20.65-1.03-1.09-2.35-1.74-1.98-3.51,8.29-.16,15.21,5.49,21.91,9.58,6.34,3.86,17.32,10.63,22.11,15.89,1.01,1.11,2.35,1.72,1.97,3.52Z"/>
    <path class="cls-9" d="M778,123.11c11.11,1.12,18.66-5.51,27.72-11.78,2.12-1.47,9.54-8.41,11.27-7.22,1.05.73,4.16,21.27,5.54,24.97s2.3,5.78,6.48,6.02c-1.13,14.69-22.22,42.83-18.75,56.26,2.04,7.9,10.33,6.55,16.05,3.54,2.85-1.5,9.06-8.07,11.72-6.36,1.61,1.04,10.81,26.82,12.8,31.24,12,26.58,32.3,50.2,60.96,59.04,10.87,3.35,39.33,10.14,38.26-8.26-.58-9.9-20.06-41.7-25.22-53.78-2.5-5.85-9.95-24.6,2.59-9.59,9.44,11.3,17.73,27.91,26.77,40.23,8.61,11.74,17.92,22.04,28.81,31.69-42.78,16.16-85.4,33.08-127.5,50.93-27.56-13.45-56.39-24.22-85.73-33.19-42.42-12.98-87.14-23.31-131.77-22.74,55.62-40.24,96.99-93.63,136.47-149.03.88-1.08,2.03-2.12,3.53-1.96Z"/>
    <path class="cls-5" d="M331,137.11c9.62-3.52,14.64-14.76,22.57-20.97,1.64-.37,13.48,17.24,15.92,19.98,22.66,25.48,28.2,5.76,31.52-18.02,1.11-.12,1.98-.03,3,.5,4.97,2.62,11.44,10.77,17.47,14.53,20.76,12.94,15.16-3.1,13.53-18.02,3.91-.32,6.23,4.35,8.03,5.45,9.13,5.56,12.6,6.18,22.97,7.55.55.07,1.22-.26,1.76.21,41.67,52.99,86.48,103.97,139.2,146.32l-.47,2.47c-22.91,1.54-45.32,7.38-67.26,13.73-7.86,2.27-35.63,13.01-41.23,12.27-3.98-.53-14.04-4.52-18.27-6.23-45.82-18.6-77.58-57.89-99.75-100.76-3.17-2.99-.78,5.83-.49,7.01,2.75,11.27,19.05,48.45,17.32,56.26-3.38,15.3-20.41,1.59-25.79-4.8-19.55-23.24-15.45-45.02-24.08-69.92-2.58-7.43-4.98-3.41-9.96.93-4.59,4-18.2,19.56-23.49,19.61-7.28.06-5.24-9.83-4.2-14.3,3.95-16.91,15.49-33.77,19.7-50.79-3.93.62-2.48-.94-3-2.01,2.22.66,3.35-.4,5-1ZM507.99,239.11c1.83-1.88-8.21-12.57-9.97-14.52-17.65-19.59-38.88-37.75-57.29-56.71l-3.73-.76c-.3,2.55-.08,4.21.92,6.57,1.8,4.25,15.19,19.71,19.05,23.95,8.47,9.29,20.97,21.33,30.56,29.44,2.32,1.96,18.44,14.1,20.46,12.02Z"/>
    <path class="cls-9" d="M278,124.11c.16.06.45,1.31,1.03,1.48,9.99,2.87,37.31-16.97,38.96-15.48,1.18,3.47,3.79,23.72,5.01,25-.26,2.1-.1,2.26,2,2,.23.36.83.65,1,1,.53,1.07-.93,2.62,3,2.01-4.22,17.02-15.75,33.88-19.7,50.79-1.05,4.47-3.08,14.36,4.2,14.3,5.29-.05,18.9-15.62,23.49-19.61,4.98-4.34,7.38-8.36,9.96-.93,8.63,24.9,4.53,46.68,24.08,69.92,5.38,6.39,22.4,20.1,25.79,4.8,1.73-7.81-14.57-44.99-17.32-56.26-.29-1.18-2.67-10,.49-7.01,22.17,42.88,53.93,82.16,99.75,100.76,4.23,1.72,14.29,5.71,18.27,6.23l-96.39,34.08c-10.26-25.5-37.28-45.97-65.66-39.63-5.63,1.26-10.76,4.22-15.95,6.55-1.17-18.63-19.03-37.24-38.43-34.91-2.84.34-5.41,2.53-8.48,1.82-9.65-33.04-46.13-43.36-74.42-24.73-2.44,1.61-11.52,10.51-12.32,10.67-.73.14-10.37-4.47-13.85-4.85-8-.87-13,1.85-20.5,3-.65-2.34.61-1.69,1.28-2.28,7.4-6.56,15.4-12.57,22.73-19.2,35.9-32.47,67.29-70.7,97.91-108.09.88-1.04,2.84-1.91,4.07-1.43Z"/>
    <path class="cls-5" d="M960,123.11c.16.22,2.92.96,4.52,2.98,18.38,23.1,37.01,46.26,56.96,68.03,4.58,4.99,17.97,15.98,20.56,20.44.76,1.31,2.83,9.58,1.44,9.56-33.93-12.73-62.35,21.24-54.5,53.96-2,.08-4.11.31-5.98,1.02-10.9-9.64-20.21-19.95-28.81-31.69-9.04-12.32-17.33-28.93-26.77-40.23-12.54-15.01-5.1,3.74-2.59,9.59,5.16,12.08,24.64,43.88,25.22,53.78,1.07,18.4-27.39,11.61-38.26,8.26-28.66-8.84-48.96-32.46-60.96-59.04-1.99-4.41-11.19-30.2-12.8-31.24-2.66-1.71-8.87,4.86-11.72,6.36-5.72,3.01-14.01,4.36-16.05-3.54-3.47-13.43,17.62-41.57,18.75-56.26.31.02.7.05,1,0,1.93-.35,9.24-6.62,11.05-8.45,5.66-5.76,10.02-14.49,15.08-19.92,1.7-1.82,2.52-2.87,4.11-.34,4.48,7.15,7.83,15.15,13.25,21.72,4.31,5.23,14.55,15.59,21.91,10.88,5.6-3.58,8.29-29.87,8.6-36.89,1.35-1.55,22.06,16.19,24.67,17.82,6.88,4.28,27.28,14.02,31.32,3.18ZM991.99,222.11c.31-1.71-.48-2.93-1.11-4.38-2.97-6.92-32.77-45.34-38.89-51.11-1.32-1.24-3.57-2.96-5.44-2.48-3.01.77.12,6.36.9,8.02,5.35,11.47,29.47,44.89,40.82,49.18,1.25.47,2.29,1.04,3.72.77Z"/>
    <path class="cls-3" d="M497,313.11l39.05,5.45c65.57,9.92,112.29,58.83,177.46,68.58,1.87.28,4.05-1.25,3.49,1.97-32.6,12.44-63.37,23.06-99,26,.36-3.69.18-2.46-2.32-3.14-24.93-6.74-46.83-20.45-70.01-31.04-42.77-19.53-87.79-33.32-135.22-34.82-1.92-.06-4.01,1.02-3.46-2,30.57-7.58,60.41-20.72,90-31Z"/>
    <path class="cls-4" d="M775,365.11c.6-2.95-1.47-1.76-3.18-2.27-44.05-13.03-81.53-37.59-125.82-50.23-34.09-9.73-67.95-13.03-103-14.5,83.75-28.86,171.36-12.56,252.52,15.98,5.35,1.88,48.46,17.88,48.46,20.52-22.42,11.36-45.89,20.62-68.98,30.5ZM714,321.12c-1.2,1,3.3,4.84,4.06,5.43,4.56,3.55,13.96,8.92,19.26,11.74,2.22,1.18,13.83,8.27,14.67,4.31.3-1.41-2.1-3.17-3.07-3.91-4.29-3.29-25.36-16.36-29.66-17.34-1.74-.4-3.52-.25-5.27-.22Z"/>
    <path class="cls-8" d="M543,298.11c35.05,1.47,68.91,4.77,103,14.5,44.29,12.64,81.77,37.2,125.82,50.23,1.71.51,3.79-.69,3.18,2.27-19.34,8.27-38.35,16.5-58,24,.56-3.22-1.62-1.69-3.49-1.97-65.17-9.76-111.89-58.66-177.46-68.58l-39.05-5.45c8.07-2.8,40.2-15.24,46-15Z"/>
    <path class="cls-1" d="M466,128.11c-10.37-1.37-13.84-1.99-22.97-7.55-1.79-1.09-4.11-5.76-8.03-5.45,1.63,14.92,7.23,30.96-13.53,18.02-6.03-3.75-12.5-11.91-17.47-14.53-1.01-.53-1.88-.62-3-.5-3.32,23.78-8.86,43.5-31.52,18.02-2.43-2.74-14.28-20.35-15.92-19.98-7.93,6.2-12.95,17.45-22.57,20.97l36-115c10.59-1.33,14.64,3.16,21.51,9.99,22.05,21.91,58.3,65.73,75.46,91.54.96,1.45,2,2.58,2.02,4.47Z"/>
    <path class="cls-7" d="M393.01,340.11c-15.43,1.31-30.66,6.18-46.27,4.77-63.21-28.72-127.53-55.67-195.02-72.97-5.82-6.18,7.82-10.85,13.04-11.53,10.79-1.41,16.04,2.02,23.73,8.74,15.42-28.44,59.06-34.62,75.01-3,2.59,2.76,3.19,19.64,5.02,19.99,2.36.45,4.82-5.51,7.1-6.88,16.32-9.83,35.07,9.91,37.3,25.47.38,2.63-.98,10.71,1.66,11.36,1.83.45,12.58-6.86,15.75-8.12,17.38-6.95,35.65-2.25,49.21,10.15,5.95,5.44,12.71,13.86,13.48,22.02Z"/>
    <path class="cls-1" d="M960,123.11c-4.04,10.85-24.45,1.1-31.32-3.18-2.61-1.63-23.33-19.37-24.67-17.82-.31,7.02-3,33.31-8.6,36.89-7.36,4.71-17.6-5.66-21.91-10.88-5.42-6.57-8.77-14.57-13.25-21.72-1.59-2.54-2.41-1.49-4.11.34-5.06,5.43-9.42,14.15-15.08,19.92-1.8,1.83-9.12,8.1-11.05,8.45l35-126c7.21-.97,12.61,4.82,16.97,9.53,28.27,30.51,52.93,71.34,78.03,104.47Z"/>
    <path class="cls-5" d="M566,169.11c10.1-3.31,15.04-13.44,22.64-19.93,8.06,5.38,19.04,25.34,30.67,21.74,1.16-.36,3.69-3.57,3.69-4.31v-16.5c8.75,2.57,15.02,10.24,23.74,13.76,5.21,2.1,12.38,4.91,17.26,1.24,11.65,14.46,24.7,27.9,36.04,42.5-9.73,11.52-21.17,22.39-32.54,32.54-.83.74-2.23.73-2.5.96-11.72-8.72-22.6-18.21-32.51-28.99-3.38-3.68-13.87-18.71-17-20.01-2.6-1.08-1.06,3.11-.81,3.81,3.54,9.8,19.94,30.9,8.83,40.19-12.09,10.1-27.85-12.11-33.92-21.1-1.69-2.51-7.56-14.35-9.22-14.85-3.46-1.04-10.5,11.15-18.74,6.81-3.06-1.61-5.84-6.74-5.6-10.25.32-4.77,7.09-19.35,8.97-25.62.11-.37.72-1.04,1-2Z"/>
    <path class="cls-7" d="M407,344.11c-.56,3.02,1.53,1.94,3.46,2,47.43,1.51,92.46,15.3,135.22,34.82,23.18,10.58,45.08,24.3,70.01,31.04,2.5.68,2.67-.55,2.32,3.14-93.14,7.68-171.89-21.76-254-61.5l-1-1.49c14.8-1.78,29.54-4.42,44-8.01Z"/>
    <path class="cls-9" d="M524,160.11c3.74,3.67,12.69-1.74,16.67-3.83,5.48-2.87,10.51-7.87,16.33-9.17,1.47,1.51.24,23.55,8,24-1.89,6.27-8.65,20.86-8.97,25.62-.24,3.5,2.55,8.64,5.6,10.25,8.24,4.34,15.28-7.85,18.74-6.81,1.66.5,7.53,12.35,9.22,14.85,6.08,8.99,21.83,31.2,33.92,21.1,11.11-9.28-5.3-30.38-8.83-40.19-.25-.71-1.79-4.89.81-3.81,3.13,1.3,13.62,16.33,17,20.01,9.91,10.78,20.79,20.27,32.51,28.99-2.78,2.45-5.38,6.34-8.53,8.97-7.2,6-24.46,20.25-32.13,23.86-3.86,1.82-5.73.87-9.22-1.45-22.27-14.78-42.74-40.36-63.61-57.39-12.24-14.33-26.59-27.25-37.52-42.48,0-3.09,8.11-9.98,10.01-12.52Z"/>
    <path class="cls-3" d="M1053,234.11c3.49-3.28-.69-5.1-.92-5.77-4.4-12.59-3.54-23.63,2.1-35.55,8.55-18.07,30.11-30.46,47.83-16.19,3.48,2.81,6.28,8.48,10.99,8.51v-19.5c0-2.19,2.37-10.15,3.24-12.76,11.42-34.32,49.86-44.7,71.76-13.74-22.6,1.31-43.03,18.04-52.73,37.77-1.49,3.02-1.81,7.59-3.79,10.21-1.79,2.38-5.86,3.42-8.5,5.5-3.4,2.67-7.28,7.51-8.99,11.52l-1.43-.03c-14.1-15.33-37.8-9.69-42.29,10.79-.91,4.14-1.34,19.29-2.69,21.31-1.2,1.79-11.7,1.1-13.83-.09-1.05-.59-.63-1.92-.73-1.97Z"/>
    <path class="cls-1" d="M664,165.11c-4.88,3.68-12.06.86-17.26-1.24-8.72-3.52-14.99-11.19-23.74-13.76v16.5c0,.74-2.53,3.95-3.69,4.31-11.63,3.6-22.61-16.36-30.67-21.74-7.6,6.49-12.54,16.61-22.64,19.93,7.39-24.9,15.89-54.79,21.54-79.97.45-2.02.65-3.97.46-6.03,1.08-.56,1.33-1.73,3.55-1.99,6.44-.75,11.98,5.57,15.96,9.98,19.82,21.93,37.72,50.71,56.49,74.01Z"/>
    <path class="cls-2" d="M865,9.11l-35,126c-.3.05-.69.02-1,0-4.18-.24-5.1-2.33-6.48-6.02s-4.48-24.25-5.54-24.97c-1.72-1.19-9.14,5.75-11.27,7.22-9.07,6.27-16.61,12.9-27.72,11.78l1.46-5.04c24.9-30.84,45.9-66.49,71.15-96.86,3.48-4.19,8.57-11.32,14.4-12.1Z"/>
    <path class="cls-2" d="M367,22.11l-36,115c-1.65.6-2.78,1.66-5,1-.17-.35-.77-.64-1-1-1.84-2.91-1.39-1.36-2-2-1.22-1.28-3.83-21.54-5.01-25-1.64-1.49-28.96,18.34-38.96,15.48-.59-.17-.87-1.41-1.03-1.48l.95-5.54c20.88-24.11,40.13-49.82,61.53-73.47,5.69-6.29,18.56-21.99,26.51-22.99Z"/>
    <path class="cls-2" d="M588,83.11c.19,2.06,0,4.01-.46,6.03-5.66,25.18-14.16,55.07-21.54,79.97-.28.96-.89,1.63-1,2-7.76-.45-6.53-22.49-8-24-5.82,1.31-10.85,6.3-16.33,9.17-3.98,2.09-12.93,7.5-16.67,3.83,13.38-17.83,27.14-37,42.02-54.48,5.92-6.95,14.31-18.54,21.98-22.52Z"/>
    <path class="cls-7" d="M99.99,456.11c-2.02.44-2.67-.45-4.04-1.45-6.05-4.42-12.54-11.99-19.04-16.96-3.93-3.01-11.38-6.48-14.42-9.58-.91-.93-2.15-1.54-1.05-3.02,2.37-4.62,11.7,1.29,14.88,3.19,5.38,3.22,12.09,9.04,16.19,13.81,1.83,2.13,9.72,11.64,7.48,14.01Z"/>
    <path class="cls-9" d="M507.99,239.11c-2.02,2.07-18.15-10.06-20.46-12.02-9.59-8.12-22.09-20.15-30.56-29.44-3.86-4.24-17.25-19.71-19.05-23.95-1-2.36-1.22-4.02-.92-6.57l3.73.76c18.41,18.96,39.64,37.12,57.29,56.71,1.76,1.95,11.8,12.64,9.97,14.52Z"/>
    <path class="cls-5" d="M323,135.11c.61.64.16-.91,2,2-2.1.26-2.26.1-2-2Z"/>
    <path class="cls-9" d="M991.99,222.11c-1.43.27-2.47-.29-3.72-.77-11.35-4.29-35.46-37.71-40.82-49.18-.78-1.67-3.91-7.25-.9-8.02,1.87-.48,4.12,1.24,5.44,2.48,6.12,5.77,35.92,44.19,38.89,51.11.62,1.46,1.42,2.67,1.11,4.38Z"/>
    <path class="cls-8" d="M714,321.12c1.75-.03,3.53-.18,5.27.22,4.3.98,25.37,14.06,29.66,17.34.97.74,3.37,2.5,3.07,3.91-.84,3.95-12.44-3.13-14.67-4.31-5.3-2.81-14.7-8.18-19.26-11.74-.76-.59-5.26-4.43-4.06-5.43Z"/>
    <path class="cls-4" d="M1197,245.11v20c-67.4,5.81-131.58,31.75-191.02,62.48-45.04,23.28-87.89,50.95-132.96,74.04-9.89,5.07-34.07,18.68-44.38,13.36-2.1-1.09-5.35-5.55-4.19-7.86,1.08-2.15,14.78-8.27,17.88-10.18,5.71-3.53,15.45-9.5,20.14-13.86,15.06-13.99-8.33-5.26-14.99-2.99-24.14,8.22-47.89,19.29-71.96,28.04-122.32,44.45-213.12,52.81-338.29,10.25-5.35-1.82-33.05-14.34-36.22-11.27-.25,1.51.11,2.34.94,3.56,3.47,5.13,50.9,24.67,59.81,28.19,43.51,17.19,86.29,29.08,132.87,35.13,3.22.42,22.55,1.3,23.38,2.13.39.39.08,2.21-.67,3.04-2.09,2.33-27.98,6.22-32.96,6.82-168.49,20.59-284.54-99.77-426.7-162.05-50.16-21.97-103.46-50.74-157.67-59.38v-20c92.31,10.21,184.2,41.05,269.97,76.09,88.78,36.27,176.95,90.65,273.66,102.34,25.44,3.07,59.32,3.13,84.74,0,39.17-4.83,75.36-18.77,111.6-33.4,140.52-56.72,279.46-130.65,433.64-144.36,7.6-.68,15.73.27,23.39-.11ZM982,322.12c-3.21-2.72-25.72,8.31-30.02,10.47-7.89,3.98-19.53,10.26-26.31,15.69-.9.72-5.94,4.6-4.67,5.82,2.22-.11,4.34-1.27,6.35-2.14,14.65-6.37,34.99-16.29,48.66-24.34.7-.41,7.66-4.08,5.98-5.51ZM299,378.1c.38-1.8-.97-2.41-1.97-3.52-4.78-5.26-15.77-12.03-22.11-15.89-6.7-4.09-13.62-9.74-21.91-9.58-.37,1.78.95,2.43,1.98,3.51,4.31,4.55,25.75,17.05,32.35,20.65,1.67.91,10.62,5.81,11.67,4.82Z"/>
  </g>
</svg>