<?xml version="1.0" encoding="iso-8859-1"?>
<!-- Uploaded to: SVG Repo, www.svgrepo.com, Generator: SVG Repo Mixer Tools -->
<svg height="800px" width="800px" version="1.1" id="Layer_1" xmlns="http://www.w3.org/2000/svg" xmlns:xlink="http://www.w3.org/1999/xlink" 
	 viewBox="0 0 512 512" xml:space="preserve">
<path style="fill:#6E6057;" d="M156.859,412.875c-7.533,0-14.369-5.13-16.217-12.772L94.294,208.707
	c-2.174-8.962,3.337-17.983,12.294-20.157c9.032-2.196,18,3.342,20.163,12.299l46.348,191.397
	c2.174,8.962-3.337,17.983-12.294,20.157C159.478,412.723,158.152,412.875,156.859,412.875z"/>
<path style="fill:#615349;" d="M356.185,411.832c-1.282,0-2.576-0.152-3.88-0.462c-8.968-2.13-14.511-11.136-12.369-20.104
	l45.609-191.587c2.13-8.978,11.119-14.505,20.108-12.375c8.968,2.13,14.511,11.136,12.369,20.104l-45.609,191.587
	C370.587,406.668,363.739,411.832,356.185,411.832z"/>
<path style="fill:#A7E2E2;" d="M422.065,150.261C413.717,66.003,342.372,0,256,0S98.283,66.003,89.935,150.261
	c-0.558,5.454-0.892,11.019-0.892,16.696c0,5.565,0.334,11.242,0.892,16.696c0.333,3.562,0.778,7.123,1.335,10.574
	c0.78,5.009,1.892,9.906,3.117,14.692c17.475,68.118,75.798,117.315,144.918,124.104c5.454,0.557,11.019,0.89,16.696,0.89
	s11.242-0.334,16.696-0.89c68.674-6.79,126.997-55.652,144.696-123.214l0.557-2.226c1.113-4.341,2.002-8.793,2.783-13.245
	c0.555-3.562,1.002-7.123,1.335-10.685c0.557-5.565,0.892-11.13,0.892-16.696C422.957,161.28,422.623,155.715,422.065,150.261z"/>
<path style="fill:#6E6057;" d="M272.696,333.023v62.108c0,9.238-7.456,16.696-16.696,16.696s-16.696-7.457-16.696-16.696v-62.108
	c5.454,0.557,11.019,0.89,16.696,0.89S267.242,333.579,272.696,333.023z"/>
<path style="fill:#8AC8C8;" d="M272.696,333.023c68.674-6.79,126.997-55.652,144.696-123.214l0.557-2.226
	c1.113-4.341,2.002-8.793,2.783-13.245c0.555-3.562,1.002-7.123,1.335-10.685c0.557-5.565,0.892-11.13,0.892-16.696
	c0-5.677-0.334-11.242-0.892-16.696C413.717,66.003,342.372,0,256,0v333.913C261.677,333.913,267.242,333.579,272.696,333.023z"/>
<path style="fill:#615349;" d="M272.696,395.13v-62.108c-5.454,0.557-11.019,0.89-16.696,0.89v77.913
	C265.239,411.826,272.696,404.369,272.696,395.13z"/>
<path style="fill:#8C6D50;" d="M311.196,512H200.804c-24.587,0-45.359-17.603-49.402-41.854l-12.043-72.272
	c-0.805-4.843,0.554-9.794,3.729-13.538s7.826-5.901,12.739-5.901h200.348c4.913,0,9.565,2.157,12.739,5.902
	s4.532,8.696,3.729,13.538l-12.043,72.272C356.555,494.397,335.783,512,311.196,512z"/>
<path style="fill:#765B43;" d="M356.174,378.435H256V512h55.196c24.587,0,45.359-17.603,49.402-41.854l12.043-72.272
	c0.805-4.843-0.554-9.794-3.729-13.538C365.738,380.592,361.087,378.435,356.174,378.435z"/>
<path style="fill:#6E6057;" d="M272.696,166.957v166.066c-5.454,0.557-11.019,0.89-16.696,0.89s-11.242-0.334-16.696-0.89V166.957
	c0-9.238,7.456-16.696,16.696-16.696S272.696,157.718,272.696,166.957z"/>
<path style="fill:#615349;" d="M272.696,333.023V166.957c0-9.238-7.456-16.696-16.696-16.696v183.652
	C261.677,333.913,267.242,333.579,272.696,333.023z"/>
<path style="fill:#E8C870;" d="M422.957,166.957c0,5.565-0.334,11.13-0.892,16.696H89.935c-0.558-5.454-0.892-11.13-0.892-16.696
	c0-5.677,0.334-11.242,0.892-16.696h332.13C422.623,155.715,422.957,161.28,422.957,166.957z"/>
<path style="fill:#DFB562;" d="M256,150.261v33.391h166.065c0.557-5.565,0.892-11.13,0.892-16.696
	c0-5.677-0.334-11.242-0.892-16.696H256z"/>
</svg>