<?xml version="1.0" encoding="UTF-8"?>
<svg id="Layer_2" data-name="Layer 2" xmlns="http://www.w3.org/2000/svg" viewBox="0 0 353.45 556.04">
  <defs>
    <style>
      .cls-1 {
        fill: #305f7c;
      }

      .cls-2 {
        fill: #d7a84a;
      }

      .cls-3 {
        fill: #d16946;
      }
    </style>
  </defs>
  <g id="Layer_1-2" data-name="Layer 1">
    <g>
      <path class="cls-1" d="M282.96,353.03c.43-.27,3.25-7.46,4.32-9.18,9.48-15.38,22.19-24.28,41.21-20.59,21.49,4.18,35.01,28.6,15.61,44.41-9.76,7.95-24.33,8.55-36.5,7.47-4.57-.41-13.3-4.03-16.08-3.97-.88.02-1.5.15-1.94.98l-8.49,34.01c10.11,1.07,29.15-5.48,37.53.98,4.84,3.73,5.5,11.31,3.71,16.76-.94,2.86-16.11,28.44-18.24,30.76-6.7,7.27-18.68,3.23-23.82-4.16-3.64-5.23-5.13-14.07-8.29-18.71-.57-.83-1.06-1.95-2.36-1.62s-7.51,11.91-9.08,13.93c-4.92,6.37-13.41,15.12-19.42,20.58-3.45,3.14-23.39,17.44-24.01,19-.73,1.85.81,1.28,1.39,1.58,4.57,2.4,10.15,3.32,14.54,6.47,7.22,5.17,11.29,14.88,6.07,22.94-1.95,3.01-24.63,20.03-27.96,21.04-16.82,5.08-20.78-12.66-22.03-25.06-.33-3.24.39-6.88-.01-10-.15-1.17.43-1.99-1.45-1.44-3.56,1.04-11.53,5.73-15.22,7.79-10.8,6.02-28.66,17.5-35.17,27.83-3.74,5.94-6.19,21.41-13.69,21.22-12.43-.32.05-24.42,3.33-29.58,6.13-9.63,19.55-19.69,29.27-25.73,5.24-3.26,12.06-7.58,17.92-8.58.34-1.67-.45-2.04-1.64-2.85-2.99-2.06-8.68-3.11-12.3-5.7-7.58-5.42-10.1-14.13-4.06-21.93,3.56-4.6,24.87-16.62,30.58-17.41,19.98-2.77,17.98,15.85,19.42,29.9.74.86,12.37-7.44,13.91-8.58,11.01-8.18,18.59-16.27,27.07-26.66,1.93-2.36,6.9-6.43,8-9.27.58-1.49-.22-1.57-1.49-1.5-9.89.56-18.34,6.86-28.73,1-.27-.15-4.29-4.03-4.47-4.28-1.59-2.21-1.64-9.24-1.07-11.98.83-4.01,11.84-24.8,14.79-28.2,6.99-8.04,13.58-7.09,21.45-.5,1.78,1.49,12.87,15.69,14.52,13.97l8.06-31.47c.01-.9-.48-1.42-1.04-2.04-1.58-1.75-17.41-8.96-21.26-11.52-12.71-8.41-15.14-16.82-24.23-25.99-5.34-5.38-26.17-13.16-34.54-17.46C132.37,276.41,68.69,241.09,2.05,211.69.7,209.63,0,207.1,0,204.65c0-12.66,4.16-30.41,5.07-44.01,2.86-42.73,1.55-85.22,0-127.98-.3-8.36-2.16-17.59-1.04-26.06C4.86.31,11.94-.73,17.35.4c67.59,21.09,140.8,32.52,207.95,54.04,5.93,1.9,12.95,3.89,13.81,11.19,1.98,16.89-.33,40.27-.06,58.06.87,59.16-2.04,122.52.99,181.01.91,17.48,6.01,25.52,19.57,36.43,3.06,2.46,20.44,13.74,23.36,11.9ZM31.09,18.16l82.66,111.9,105.31-63.4L31.09,18.16ZM101.95,140.03c.66-1.96-.23-3.53-1.03-5.23-5.41-11.43-21.3-30.57-29.43-41.57-14.45-19.56-33.96-47.66-50.39-64.61-1.13-1.17-2.16-2.78-4.02-2.47.92,32.81,3.21,65.63,2.04,98.54-.5,14.19-1.91,28.77-3.05,42.95-.71,8.82-2.82,17.57-1.99,26.5l87.87-54.12ZM226.07,77.16l-102.86,65.32,103.85,155.67-.99-221ZM213.07,303.15c1.27-1.39-7.66-14.89-9.18-17.31-29.03-46.29-61.1-90.91-92.46-135.63l-90.29,55.52.52,2.5c41.21,17.08,80.84,37.91,120.42,58.41,23.6,12.22,46.56,26.06,70.97,36.52ZM295.1,360.13c11.04,2.44,22.82,5.09,33.95,1.5,19.25-6.22,14.6-23.72-4.48-25.46-15.18-1.38-28.08,8.99-29.47,23.96ZM265.07,413.15c.45-1.73-.72-2-1.49-3-1.77-2.3-17.69-18.02-19-18.03-3.4,0-10.36,14.93-11.68,18.36-.8,2.08-3.19,6.66-.88,8.23,3.9,2.64,27.11-5.44,33.05-5.56ZM280.08,418.16c-1.16,1.19,8.05,22.29,9.78,24.71,3.75,5.26,5.96,2.97,9.06-1.38,1.88-2.65,10.48-16.3,11.38-18.61,3.62-9.32-3.11-5.91-7.73-5.73-7.52.3-14.98.9-22.49,1.01ZM194.08,484.15v-17.5c0-.7-2.07-9-2.49-9.51-.92-1.11-1.58-1.04-2.89-.98-2.24.1-19.66,9.68-21.56,11.54s-3.69,4.01-.8,5.73,26.61,11.91,27.75,10.72ZM202.08,495.15v18.5c0,1.62,1.83,8.89,3.66,9.41,2.03.58,20.71-12.51,21.82-14.93,2.49-5.42-2.44-6.67-6.5-8.46-2.67-1.18-17.3-6.19-18.98-4.52Z"/>
      <polygon class="cls-2" points="226.07 77.16 227.07 298.15 123.22 142.48 226.07 77.16"/>
      <path class="cls-2" d="M213.07,303.15c-24.41-10.46-47.38-24.3-70.97-36.52-39.59-20.5-79.22-41.32-120.42-58.41l-.52-2.5,90.29-55.52c31.35,44.72,63.43,89.34,92.46,135.63,1.52,2.42,10.45,15.92,9.18,17.31Z"/>
      <polygon class="cls-3" points="31.09 18.16 219.06 66.65 113.75 130.06 31.09 18.16"/>
      <path class="cls-3" d="M101.95,140.03L14.09,194.15c-.83-8.93,1.28-17.68,1.99-26.5,1.14-14.19,2.54-28.76,3.05-42.95,1.17-32.9-1.12-65.73-2.04-98.54,1.86-.31,2.89,1.3,4.02,2.47,16.43,16.95,35.94,45.05,50.39,64.61,8.13,11,24.01,30.14,29.43,41.57.8,1.69,1.69,3.26,1.03,5.23Z"/>
      <path class="cls-3" d="M280.08,418.16c7.51-.11,14.97-.71,22.49-1.01,4.62-.18,11.35-3.59,7.73,5.73-.9,2.31-9.5,15.97-11.38,18.61-3.1,4.35-5.3,6.64-9.06,1.38-1.73-2.42-10.94-23.52-9.78-24.71Z"/>
      <path class="cls-3" d="M265.07,413.15c-5.94.12-29.15,8.2-33.05,5.56-2.3-1.56.08-6.15.88-8.23,1.32-3.43,8.27-18.36,11.68-18.36,1.31,0,17.24,15.73,19,18.03.77,1,1.94,1.27,1.49,3Z"/>
      <path class="cls-2" d="M194.08,484.15c-1.14,1.2-24.89-9.02-27.75-10.72s-1.03-3.93.8-5.73,19.32-11.44,21.56-11.54c1.31-.06,1.97-.13,2.89.98.42.5,2.49,8.81,2.49,9.51v17.5Z"/>
      <path class="cls-2" d="M202.08,495.15c1.69-1.67,16.31,3.34,18.98,4.52,4.06,1.79,8.99,3.04,6.5,8.46-1.11,2.42-19.8,15.51-21.82,14.93-1.83-.52-3.66-7.79-3.66-9.41v-18.5Z"/>
    </g>
  </g>
</svg>