<?xml version="1.0" encoding="UTF-8"?>
<svg id="Layer_2" data-name="Layer 2" xmlns="http://www.w3.org/2000/svg" viewBox="0 0 659.31 715.1">
  <defs>
    <style>
      .cls-1 {
        fill: #22496a;
      }

      .cls-2 {
        fill: #edcc7e;
      }
    </style>
  </defs>
  <g id="Layer_2-2" data-name="Layer 2">
    <g>
      <path class="cls-1" d="M320.2,1.09c158.68,15.41,289.08,124.05,328.36,280.91,46.08,183.98-59.41,381.42-252.32,423.82-141.84,31.17-284.02-16.34-371.75-139.85-4.07-5.73-22.23-32.47-23.54-37.17-5.66-20.36,15.14-20.2,28.79-17.97,26.43,4.32,47.81,13.63,78.21,14.97,116.14,5.1,230.67-79.78,243.6-198.48,11.28-103.52-26.42-194.43-117.28-246.62-21.09-12.11-43.03-24.27-67.12-29.85-4.52-10.49-9.82-19.36,2.14-26.01C205.66,4.61,277.49-3.06,320.2,1.09ZM318.2,28.09c-30.39-2.28-68.08-.41-95.5,7.57-2.46.71-5.93.77-8.56,1.11-1.08-.16-.82,1.79-.66,2.44.42,1.71,17.18,7.99,20.21,9.63,173.51,93.91,204.79,348.11,31.08,460.92-66.51,43.19-138.98,50.19-214.03,34.06-2.61-.56-5.61-.36-8.25-1.06-.31,1.53-.02,1.9.73,3.03,136.39,206.69,453.49,186.83,559.18-38.82,99.58-212.6-57.2-461.83-284.21-478.87Z"/>
      <path class="cls-2" d="M318.2,28.09c227.01,17.04,383.79,266.27,284.21,478.87-105.69,225.65-422.79,245.51-559.18,38.82-.74-1.13-1.03-1.5-.73-3.03,2.63.7,5.64.5,8.25,1.06,75.05,16.13,147.52,9.13,214.03-34.06,173.71-112.81,142.43-367.01-31.08-460.92-3.03-1.64-19.79-7.91-20.21-9.63-.16-.66-.42-2.6.66-2.44,2.63-.34,6.1-.39,8.56-1.11,27.42-7.98,65.11-9.85,95.5-7.57Z"/>
    </g>
  </g>
</svg>