<?xml version="1.0" encoding="UTF-8"?>
<svg id="Layer_2" data-name="Layer 2" xmlns="http://www.w3.org/2000/svg" viewBox="0 0 669.55 452.33">
  <defs>
    <style>
      .cls-1 {
        fill: #27475e;
      }

      .cls-2 {
        fill: #d8872e;
      }

      .cls-3 {
        fill: #e8ab3b;
      }
    </style>
  </defs>
  <g id="Layer_2-2" data-name="Layer 2">
    <g>
      <path class="cls-1" d="M365.79,1.38c38.26,4.03,82.57,22.63,113.95,48.02,13.29,10.76,24.97,25.51,37.09,37.59,4.21-.16,8.61.43,12.81.12,42.45-3.08,98.55-.89,127.68,38.15,41.55,55.69-32.87,112.28-72.59,141.4-5.98,4.38-27.22,15.45-30.53,19.96-4.31,5.87-10.61,28.52-14.72,37.31-59.36,127.05-216.7,165.25-331.58,90.03-10.47-6.86-26.89-24.62-38.25-26-16.05-1.95-36.09,1.03-53.12-.85-33.6-3.71-107.94-28.77-115.49-69.55-10.37-56.09,59.28-101.72,99.84-127.49,1.32-.84,8.89-3.14,9.99-4.24,3.6-3.63,7.92-27.4,10.32-33.98C158.57,48.93,258.42-9.94,365.79,1.38ZM373.78,28.39C219.85,5.87,91.77,146.54,148.19,296.24c1.63,4.34,5.71,15.06,10.35,15.87,108.26,3.93,212.2-15.2,308.34-64.98,15.77-8.17,40.94-20.52,54.86-31.46,11.98-9.42,11.19-14.28,9.06-28.85-11.12-76.03-82.06-147.47-157.02-158.43ZM569.08,109.04c-12.05-1.15-25.76.85-38,0,.37,3.45,10.31,22.83,12.04,23.41,11.41,1.81,25.53,3.98,34.61,12.95,28.61,28.27-11.4,65.26-33.45,82.66-98.96,78.08-289.66,124.86-410.77,105.06-43.91-7.18-82.18-41.37-38.19-81.05,2.34-2.11,13.76-10.63,13.76-11.53v-21.5c-14.16,5.51-25.54,14.53-37.35,23.63-16.58,12.77-49.91,42.86-46.57,65.8,6,41.26,82.01,53.92,114.38,55.62,136.49,7.13,324.54-40.58,437.36-122.98,25.34-18.51,84.44-61.77,62.45-97.86-11.99-19.67-51.44-32.41-70.26-34.21ZM117.94,286.26c-1.85-.86-18.78,3.77-17.85,5.76,7.28,5.68,14.83,12.33,23.98,14.02,1.94-2.49-5.18-19.34-6.13-19.79ZM521.08,304.05c-1.46-1.41-32.68,15.13-36.81,16.88-89.66,37.96-165.14,50.92-257.62,66.19-1.96.32-10.02-.57-10.56-.07.13.88-.27,2.36.09,2.9.62.93,16.63,10.86,18.69,12.03,74.71,42.3,169.11,34.1,233.53-24.05,22.57-20.37,40.39-46,52.68-73.88Z"/>
      <path class="cls-3" d="M373.78,28.39c74.96,10.96,145.9,82.41,157.02,158.43,2.13,14.57,2.92,19.44-9.06,28.85-13.92,10.94-39.09,23.29-54.86,31.46-96.14,49.78-200.08,68.91-308.34,64.98-4.64-.81-8.72-11.53-10.35-15.87C91.77,146.54,219.85,5.87,373.78,28.39Z"/>
      <path class="cls-2" d="M569.08,109.04c18.82,1.8,58.27,14.55,70.26,34.21,21.99,36.08-37.11,79.35-62.45,97.86-112.82,82.4-300.87,130.12-437.36,122.98-32.36-1.69-108.37-14.35-114.38-55.62-3.34-22.94,29.99-53.03,46.57-65.8,11.82-9.1,23.19-18.12,37.35-23.63v21.5c0,.9-11.41,9.42-13.76,11.53-43.99,39.68-5.71,73.87,38.19,81.05,121.1,19.8,311.81-26.98,410.77-105.06,22.06-17.4,62.07-54.39,33.45-82.66-9.08-8.97-23.21-11.14-34.61-12.95-1.73-.58-11.67-19.96-12.04-23.41,12.24.85,25.95-1.15,38,0Z"/>
      <path class="cls-3" d="M521.08,304.05c-12.29,27.88-30.1,53.51-52.68,73.88-64.43,58.15-158.82,66.34-233.53,24.05-2.07-1.17-18.08-11.1-18.69-12.03-.36-.55.04-2.02-.09-2.9.55-.5,8.6.39,10.56.07,92.49-15.27,167.96-28.23,257.62-66.19,4.14-1.75,35.36-18.29,36.81-16.88Z"/>
    </g>
  </g>
</svg>