<?xml version="1.0" encoding="iso-8859-1"?>
<!-- Flipped horizontally -->
<svg height="800px" width="800px" version="1.1" id="Layer_1" xmlns="http://www.w3.org/2000/svg" xmlns:xlink="http://www.w3.org/1999/xlink" 
	 viewBox="0 0 512 512" xml:space="preserve">
  <g transform="translate(512,0) scale(-1,1)">
    <path style="fill:#765B43;" d="M50.087,422.957c-9.217,0-16.696-7.473-16.696-16.696V306.087c0-9.223,7.479-16.696,16.696-16.696
      s16.696,7.473,16.696,16.696v100.174C66.783,415.484,59.304,422.957,50.087,422.957z"/>
    <path style="fill:#8C6D50;" d="M50.087,256c-9.217,0-16.696-7.473-16.696-16.696V139.13c0-9.223,7.479-16.696,16.696-16.696
      s16.696,7.473,16.696,16.696v100.174C66.783,248.527,59.304,256,50.087,256z"/>
    <path style="fill:#B7C5D2;" d="M92.413,222.609H50.087C22.468,222.609,0,245.077,0,272.696s22.468,50.087,50.087,50.087h41.956
      c9.217,0,16.696-7.473,16.696-16.696l0.37-66.783C109.108,230.082,101.631,222.609,92.413,222.609z"/>
    <path style="fill:#E2E7EC;" d="M397.907,201.614l-20.098-75.391c-5.837-21.892-25.739-37.18-48.391-37.18h-82.261
      c-22.663,0-42.565,15.293-48.392,37.179l-20.108,75.385c-2.381,8.913,2.913,18.06,11.826,20.434h195.597
      C394.984,219.668,400.288,210.522,397.907,201.614z"/>
    <path style="fill:#CCD5E0;" d="M377.809,126.222c-5.837-21.891-25.739-37.179-48.391-37.179h-40.027v133h96.69
      c8.902-2.375,14.207-11.522,11.826-20.429L377.809,126.222z"/>
    <path style="fill:#E3B236;" d="M495.304,122.435h-33.391c-6.327,0-12.109,3.571-14.935,9.228l-28.772,57.554H150.261
      c-26.522,0-51.718,12.793-67.403,34.217c-7.211,9.853-11.911,20.947-14.266,32.565c-2.196,10.835-2.362,22.124-0.161,33.391h433.786
      l4.892-4.892c3.13-3.13,4.891-7.375,4.891-11.804V256V139.13C512,129.908,504.521,122.435,495.304,122.435z"/>
    <path style="fill:#DA9A2B;" d="M495.304,122.435h-33.391c-6.327,0-12.109,3.571-14.935,9.228l-28.772,57.554H289.391v100.174
      h212.826l4.892-4.892c3.13-3.13,4.891-7.375,4.891-11.804V256V139.13C512,129.908,504.521,122.435,495.304,122.435z"/>
    <path style="fill:#78A8E2;" d="M68.592,256c-2.196,10.835-2.362,22.124-0.161,33.391c8.179,41.879,45.768,66.783,84.646,66.783
      h247.782c22.293,0,43.25-8.68,59.032-24.451l42.326-42.331l4.892-4.892c3.13-3.13,4.891-7.375,4.891-11.804V256H68.592z"/>
    <path style="fill:#6B96C8;" d="M289.391,356.174h111.467c22.293,0,43.25-8.68,59.032-24.451l42.327-42.331l4.892-4.892
      c3.13-3.13,4.891-7.375,4.891-11.804V256H289.391V356.174z"/>
  </g>
</svg>
