<?xml version="1.0" encoding="UTF-8"?>
<svg id="Layer_2" data-name="Layer 2" xmlns="http://www.w3.org/2000/svg" viewBox="0 0 436.66 273.75">
  <defs>
    <style>
      .cls-1 {
        fill: #de6c59;
      }

      .cls-2 {
        fill: #a5ccda;
      }

      .cls-3 {
        fill: #3a7c93;
      }
    </style>
  </defs>
  <g id="Layer_1-2" data-name="Layer 1">
    <path class="cls-3" d="M323.75.34c10.95-1.4,23.98,1.6,32.88,8.2,5.86,4.35,10.06,10.44,11.04,17.8,2.28,17-7.92,30.08-17.57,42.8,13.72,9.72,24.24,18.57,31.54,34.04,5.55,2.96,10.78,6.22,15.83,9.97-2.87-15.49-5.69-34.34-2.35-49.82,1.54-7.13,5.41-14.36,11.76-18.26,3.58-2.2,7.77-3.05,11.85-1.87,4.69,1.35,8.3,4.99,10.58,9.19,9.89,18.24-2.13,51.02-7.47,69.93,4.73,2.47,8.8,5.74,11.58,10.37,3.28,5.42,4.13,11.97,2.35,18.05-2.38,8.17-8.51,13.07-15.6,17.02.92,18.79,4.64,37.39,2.02,56.25-1.03,7.43-3.3,15.92-9.72,20.53-3.95,2.84-8.88,3.65-13.61,2.77-4.34-.8-7.96-3.11-10.4-6.8-8.98-13.64-.03-42.7,3.46-57.94-3.45,3.31-7.07,6.45-10.83,9.4-27.5,21.3-61.19,26.2-94.84,27.82-19.33,1.01-38.7.38-57.92-1.89-7,4.73-13.53,10.27-20.4,15.21-11.02,7.92-22.37,14.93-34.15,21.64-13.76,7.85-30.01,15-45.61,17.77-12.48,2.22-26.6,2.09-37.3-5.58-6.63-4.76-11.33-11.9-12.58-20.02-.72-4.64-.34-9.38,1.11-13.85,4.43-13.7,20.23-33.42,29.11-45.42-21.69-6.07-41.21-13.53-59.19-27.64-9.3,3.47-18.69,6.78-28.78,6.08-6.35-.44-12.83-2.82-16.98-7.84-2.8-3.38-3.93-7.5-3.43-11.84,1.24-10.81,10.86-20.82,19.01-27.18-5.79-24.3-12.18-60.35-.51-83.35,4.37-8.61,11.81-16.14,21.22-19,8.67-2.64,17.73-.61,25.48,3.69,19.29,10.72,27.91,31.9,33.56,52.08,14.25-5.53,29.42-9.48,44.25-13.09,36.98-8.99,73.6-14.62,111.72-15.02C273.55,25.33,295.91,3.55,323.75.34Z"/>
    <path class="cls-1" d="M44.76,24.72c6.06-.47,11.52.59,16.81,3.56,13.25,7.44,22.52,23.76,26.66,37.93,1.4,4.81,1.93,10.19,3.63,14.85.33.9,1,1.95,2.08,1.97,1.18.03,29.92-9.69,33.44-10.68,10.76-3.03,21.71-5.41,32.62-7.82,47.84-10.58,98.55-17.1,146.77-5.03,7.5,1.88,14.63,4.64,21.81,7.45-7.32.42-14.64.95-21.87,2.17-13.89,2.33-27.7,9.02-35.95,20.77-6.01,8.56-8.44,18.85-6.6,29.18,1.58,8.77,6.59,16.55,13.91,21.62,14.35,9.8,35.47,9.28,51.78,6.02,21.26-4.25,38.69-16.26,50.67-34.3,4.97,3.18,9.95,6.25,14.26,10.31-5.82,6.53-10.93,12.62-10.72,22.01.18,8.13,4.56,14.14,10.15,19.51-2.81,4.92-5.87,9.01-9.75,13.14-.49.49-1,.97-1.51,1.45-38.74,36.01-96.69,33.74-145.93,31.85,10.29-8.55,30.01-22.21,31.36-36.02.45-4.54-.98-8.89-3.88-12.39-8.57-10.38-26.27-12.61-38.76-13.99-17.89-1.98-74.5-3.74-88.74,7.21-8.69,6.68-13.16,17.78-21.66,24.43-.13.1-.26.2-.39.3-21.93-4.3-38.44-12.58-57.32-24.22,7.3-5.04,18.29-11.17,22.63-19.18,1.87-3.45,2.33-7.33,1.06-11.07-1.85-5.47-6.39-9.34-11.5-11.71-12.87-5.96-30.43-3.36-43.2,1.49-2.5-24.4-12.94-55.67.99-78.44,4.06-6.64,9.65-10.56,17.16-12.36Z"/>
    <path class="cls-1" d="M184.62,155.36c17.77-1.33,44.04-.21,60.95,5.31,4.88,1.59,11.31,4.29,13.58,9.21.9,1.95.88,4.32.08,6.3-5.55,13.66-66.09,57.01-81.02,66.23-8.26,5.1-16.87,9.24-25.69,13.27-9.07,4.23-19.08,7.51-29,8.94-9.87,1.43-21,.4-29.08-5.97-4.65-3.68-7.55-9.12-8.02-15.02-1.06-11.97,21.43-41,29.51-50.67,3.86-4.62,8.12-8.9,12.02-13.49,3.41-4.01,6.45-8.32,9.89-12.32,1.76-2.05,3.97-4.54,6.32-5.89,8.83-5.1,29.99-5.15,40.47-5.9Z"/>
    <path class="cls-2" d="M317.56,76.34c7.61-.95,20.4-1.12,27.53,1.38,11.33,3.98,23.57,17.83,28.64,28.48-.21.37-.42.73-.64,1.09-10.35,16.93-26.04,26.77-44.99,31.23-1.1.24-2.21.44-3.32.6-13.11,1.9-31.58,2.59-42.67-6.08-5.7-4.45-9.34-11.44-9.96-18.63-.68-7.84,2.39-15.61,7.34-21.6,9.38-11.36,24.05-15.09,38.07-16.47Z"/>
    <path class="cls-1" d="M322.93,9.3c9.88-.85,19.52-.31,27.84,5.64,4.45,3.18,7.78,7.35,8.58,12.89,1.95,13.47-9.54,27.21-17,37.23-8.55-4.89-17.58-8.86-26.96-11.85-15.88-4.89-32.57-7.19-49.09-8.48,16.47-15.16,33.66-31.74,56.62-35.42Z"/>
    <path class="cls-1" d="M47.77,119.36c3.92-.33,8.26-.04,12.12.72,6.5,1.27,10.8,3.85,14.49,9.33-.26.58-.53,1.16-.82,1.73-6.1,11.8-27.78,21.31-39.78,25.19-5.96,1.39-14.07,2.19-19.64-.73-3.42-1.8-4.41-3.74-5.59-7.31,1.17-5.4,3.18-9.68,6.76-13.9,8.64-10.2,19.36-13.88,32.46-15.02Z"/>
    <path class="cls-2" d="M414.02,50.61c.98.12.83.05,1.76.35,2.85.92,5.43,4.06,6.64,6.69,6.33,13.67-.3,33.08-4.16,46.69-1.49,5.26-2.79,10.73-4.76,15.82-2.13-.4-4.3-.44-6.46-.56-3-15.12-7.94-41.32-3.43-55.99,1.83-5.95,4.88-10.11,10.41-13Z"/>
    <path class="cls-2" d="M404.59,169.14l6.51.08c.77,16.01,6.69,48.21-.46,62.72-1.83,3.72-3.9,5.52-7.76,6.92-2.85-.45-5.07-1.26-6.77-3.73-8.12-11.85,5.82-50.88,8.33-65.15l.14-.84Z"/>
    <path class="cls-2" d="M405.03,128.75c3.16-.22,6.19-.36,9.3.44,4.65,1.18,8.87,4,11.24,8.24,1.88,3.36,2.45,7.37,1.27,11.07-1.72,5.38-6.04,8.36-10.79,10.85-4.3,1.18-8.65,1.35-12.81-.45-4.36-1.88-7.74-5.5-9.31-9.99-1.4-4.04-1.09-8.47.86-12.27,2.22-4.24,5.82-6.45,10.24-7.89Z"/>
  </g>
</svg>