<?xml version="1.0" encoding="UTF-8"?>
<svg id="Layer_2" data-name="Layer 2" xmlns="http://www.w3.org/2000/svg" viewBox="0 0 432.82 362.4">
  <defs>
    <style>
      .cls-1 {
        fill: #7e8993;
      }

      .cls-2 {
        fill: #3c788f;
      }

      .cls-3 {
        fill: #986059;
      }

      .cls-4 {
        fill: #d86d57;
      }

      .cls-5 {
        fill: #a5c9d8;
      }
    </style>
  </defs>
  <g id="Layer_1-2" data-name="Layer 1">
    <path class="cls-2" d="M431.07,18.12c-2.59-4.79-8.16-7.53-13.21-8.87C401.42,4.88,381.77-.79,364.68.09c-7.59.55-14.51,2.33-21.6,5.1-11.92,4.65-23.46,10.65-34.94,16.29l-52.82,26.22-73.77,37.22c-12.05,6.13-24.4,11.94-36.2,18.5-2.85-4.5-5.65-7.65-11.12-8.9-9.41-2.16-22.58,2.27-31.24,5.7-6.66-14.14-15.23-38.4-30.93-43.85-6.2-2.1-12.98-1.63-18.82,1.33-5.9,2.94-9.79,8.16-11.69,14.39-5.05,16.63-.86,42.69-.43,60.37-12.1,5.05-35.19,14.29-40.09,27.1-1.17,3.07-1.56,6.64-.03,9.65,2.12,4.19,7.06,6.65,11.37,7.9,12.52,3.63,26.8,1.1,39.38-1,17.5,16.98,33.05,29.07,53.63,42.15-.31,15.33-.52,30.65-.61,45.98-9.93,4.84-31.9,14.77-39.48,21.52-2.12,1.89-3.65,3.96-4.6,6.65-1.28,3.62-.86,7.34.93,10.71,1.54,2.9,3.91,5.22,6.63,7.02,8.96,5.94,28.81,12.81,39.7,15.86,7.58,2.13,16.15,3.65,24.05,2.88,17.21-1.68,46.31-19.58,62.18-27.74l28.18-14.48c6.17-3.23,12.6-7.21,19.17-9.54,6.42,1.22,13.14,1.99,19.47,3.52-.12,7.48-.12,14.97,0,22.46-7.69-1.33-14.26-.85-20.84,3.84-6.59,4.7-10.41,12.13-11.53,20.04-1.32,9.03,1.07,18.22,6.62,25.46,4.49,5.76,10.84,9.14,18.09,9.84,7.12.7,13.88-1.61,19.31-6.19,6.29-5.21,10.21-12.74,10.85-20.88.35-4.17-.21-8.09-.91-12.19,10.12-5.3,20.21-11.04,30.59-15.8,4.96,5.48,10.72,9.7,18.42,10.12,1.87.1,3.75.07,5.62-.02-.18,9.51-1.23,23.03,6.05,30.38,2.35,2.38,5.52,3.42,8.82,3.28,4.42-.2,8.13-2.42,10.92-5.77,12.92-15.52,15.53-49.04,13.93-68.86,14.5-14.28,23.86-30.76,24.03-51.57.1-11.73-2.09-22.32-8.32-32.34,8.21-5.65,26.22-16.45,27.98-26.54.55-3.14-.11-6.26-1.97-8.86-4.65-6.5-14.06-8.06-21.34-9.78-.03-9.03.09-21.79-6.7-28.76-2.17-2.23-4.94-3.41-8.05-3.34-4.46.1-8.3,2.13-11.27,5.38-5.31,5.82-7.92,13.4-11.18,20.43,3.98-24.14,6.3-48.59,9.97-72.79,11.68-6.5,23.41-12.9,35.19-19.21,7.24-3.93,15.32-7.6,21.66-12.88,2.51-2.09,4.44-4.29,5.4-7.47,1-3.32.36-7.49-1.27-10.51ZM135.22,249.62l-19.94,9.65c.08-11.52.3-23.04.65-34.56,9.26,4.71,18.89,9.55,27.87,14.78l.02,5.93c-2.81,1.52-5.71,2.84-8.59,4.21ZM297.69,302.62c-6.92,3.51-13.89,6.85-20.53,10.87-2.07-2.12-4.34-4.07-6.53-6.07.15-8.47-.08-16.97-.1-25.45,11.51,1.93,23.27,2.35,34.75,4.43.99,3.68,1.84,7.41,2.75,11.11-3.49,1.6-6.9,3.39-10.33,5.11ZM309.82,156.52c-2.72-.9-5.32-1.96-7.96-3.09-3.91-7.18-7.91-12.84-13.79-18.55-7.04-5.71-13.61-9.12-22.62-10.4,5.28-3.5,11.25-6.16,16.87-9.08l29.52-15.42c1.22,2.8-1.51,50.52-2.03,56.53ZM349.39,138.44c-8.89,5.32-18.56,9.78-27.7,14.74-.41-.06-.12.01-.7-.54-.11-7.28.58-14.78.84-22.07.45-12.33.68-24.71,1.51-37.03,10.9-6.04,21.88-11.96,32.93-17.73l.87.22c.59,2.84-6.54,57.76-7.74,62.42Z"/>
    <path class="cls-4" d="M361.35,10.08c4.7-.27,9.41-.2,14.1.2,9.61.87,38.03,5.6,45.36,10.4,1.48.97,2.81,2.16,3.08,4,.13.86-.1,1.25-.66,1.92-4.53,5.5-48.85,28.46-58.24,33.6l-124.78,66.86c-19.18,10.32-38.52,20.33-58.02,30.04-10.49,5.34-20.83,11.32-31.58,16.1-3.95,1.76-7.44,2.75-11.72,3.43-4.55.98-8.83.78-13.4.13-7.5-1.07-14.32-3.74-21.62-5.56-7.47-1.86-18.69-2.83-25.24-6.55-1.01-.57-2.46-1.64-2.65-2.86-.32-2.03,1.23-4.04,2.43-5.52,5.54-6.88,13.98-12.86,21.46-17.47,19.6-12.07,40.21-22.55,60.74-32.92l66.64-33.5,63.73-31.96c17.56-8.93,35.44-18.74,53.68-26.17,5.46-2.23,10.82-3.6,16.68-4.18Z"/>
    <path class="cls-4" d="M229.37,141.99c.55,1.5-1.9,6.15-2.53,7.93-2.72,7.61-5.03,18.98-1.17,26.54,2.53,4.94,7.51,7.59,12.66,9.02,2.74.76,5.8,1.12,8.62.66,13.93-2.32,37.69-17.09,50.72-24.35,17.55,8.81,38.09,10.31,55.98,17.99l.21,8.77c-.91.42-1.8.87-2.69,1.34-11.47,6.14-20.84,18.7-24.47,31.06-5.59,19.03-3.2,37.48,6.12,54.72-6.87,2.45-13.18,2.21-20.36,1.77-21.73-.76-44.02-4.41-65.25-8.98.39-3.3.58-6.21-.95-9.29-1.28-2.59-3.49-4.5-5.96-5.91-6.19-3.52-13.95-5.57-20.69-7.92-14.81-5.16-29.75-9.96-44.5-15.29-4.78,2.01-11.53,6.42-16.41,7.19-1,.16-2.61-.74-3.33-1.43-1.06-1.02-.97-2.29-1.01-3.68-.16-6.66.55-13.52.84-20.19.49-10.53.74-21.06.75-31.6,11.74-5.3,23.13-11.51,34.55-17.46,13.08-6.83,26.11-13.44,38.85-20.91Z"/>
    <path class="cls-3" d="M192.59,216.75c14.97,2.85,30.12,9.99,44.39,15.25,6.91,2.55,15.1,4.41,21.41,8.18.62.83,1.17,1.46,1.3,2.54.25,2.18-.88,3.47-2.27,4.93-4.51-.94-9.14-2.9-13.51-4.4-9.15-3.12-18.25-6.36-27.31-9.72-7.7-2.85-15.94-5.16-23.35-8.64-1.43-.67-2.67-1.1-3.22-2.6.38-2.15,1.44-3.7,2.55-5.53Z"/>
    <path class="cls-4" d="M174.88,240.28c5.63.64,54.77,17.41,60.21,20.36,1.68.91,3.07,2,3.63,3.88-2.18,2.64-74.4,42.49-82.11,46.26-24.15,11.79-33.55,11.24-58.51,2.63-6.73-2.61-24.56-8.19-28.44-13.68-.77-1.08-1.03-1.96-.74-3.28.62-2.87,4.4-5.55,6.71-7.09,6.13-4.08,13.43-7.14,20.03-10.44,15.85-7.93,31.87-15.44,47.79-23.22.05,7.85-2.84,31.22-.3,36.85.6,1.33,1.46,2.4,2.9,2.85,1.09.34,2.35.22,3.3-.48,1.03-.75,1.58-1.79,1.87-2.99,1.13-4.71.91-10.26,1.18-15.11l1.52-26.63c6.69-3.73,14.08-6.48,20.97-9.91Z"/>
    <path class="cls-4" d="M63.3,63.92c1.92-.11,3.68.04,5.51.71,3.61,1.31,6.62,4.19,8.88,7.22,5.23,7.02,8.6,16.15,12.47,24,4.89,9.93,10.08,19.68,14.84,29.68-5.12,3.89-10.57,7.44-15.88,11.08-9.12.52-29.14-3.26-38.76-4.79-.3-7.47-.39-14.95-.72-22.42-.55-12.13-3.5-26.61,2.34-37.87,2.36-4.55,6.76-6.11,11.33-7.61Z"/>
    <path class="cls-4" d="M73.02,170.99c3.56.46,7.33,3.26,10.89,4.25,6.23,1.74,12.57,3.22,18.82,4.9,15.08,4.05,27.94,7.71,43.62,4.24,0,15.18-.72,30.51-1.6,45.66l-4.13-2.08c-28.69-15.25-54.99-32.2-79.1-54.12,3.85-.84,7.67-1.89,11.5-2.86Z"/>
    <path class="cls-5" d="M255.24,133.01c4.67-.19,9.1-.2,13.62,1.17,10.23,3.1,18.17,11.44,23.03,20.68-9.57,4.93-18.72,10.62-28.32,15.51-4.32,2.23-8.72,4.5-13.41,5.88-4.08,1.2-8.91,1.82-12.74-.48-2.33-1.4-3.82-3.63-4.46-6.25-1.85-7.51,1.62-19.02,5.8-25.35,4-6.08,9.46-9.59,16.49-11.16Z"/>
    <path class="cls-5" d="M380.62,125.81c.82.03,1.78.02,2.55.33,1.37.55,2.42,1.99,3.04,3.27,2.32,4.81,2.07,11.35,1.88,16.56-.79,22.8-6.73,45.1-14.53,66.43-.52,1.43-.79,2.73-2.22,3.39l-6.77.13c-2.76-20.1-2.83-39.86,1.37-59.78,2.24-10.62,4.93-24,14.67-30.34Z"/>
    <path class="cls-5" d="M361.4,253.58c2.05.41,4.09.97,6.13,1.46,1.04,9.05,1.39,18.54,1.29,27.64-.19,18.02-1.77,45.7-15.24,58.82-.68-.11-1.39-.2-2.04-.43-1.62-.57-2.77-1.96-3.47-3.48-1.78-3.85-1.72-8.76-1.73-12.93-.07-24.08,7.09-48.55,15.06-71.08Z"/>
    <path class="cls-4" d="M43.68,141.9c9.54-.78,25.58,1.42,34.74,4.03-5.88,5.05-9.49,8.67-10.78,16.58-8.29,2.23-16.69,4.01-25.18,5.33-8.6,1.07-18.56,2.3-27.02.09-1.96-.51-4.1-1.32-5.1-3.21-.56-1.04-.34-2.23.1-3.28,2.94-6.97,25.44-16.48,33.23-19.54Z"/>
    <path class="cls-1" d="M251.15,312.42c1.98-.11,3.91-.17,5.88.21,5.71,1.16,10.7,4.61,13.8,9.55,2.92,4.63,3.65,9.96,2.22,15.23-1.86,6.85-6.15,10.91-12.07,14.36-3.28,1-8.05.56-11.18-.77-4.9-2.1-8.38-6.71-10.21-11.61-2.05-5.49-2.26-12.88.33-18.25,2.34-4.85,6.32-7.09,11.22-8.72Z"/>
    <path class="cls-2" d="M254.25,325.41c1.44-.09,3.07.09,4.42.63,1.7.68,3.16,2.07,3.83,3.79.74,1.91.53,4.03-.27,5.89-1.19,2.76-3.09,3.33-5.71,4.33-1.73.16-3.07.12-4.66-.64-1.81-.86-3.2-2.33-3.83-4.24-.64-2.01-.4-4.21.66-6.04,1.36-2.31,3.09-2.99,5.57-3.72Z"/>
    <path class="cls-1" d="M353.64,200.01c1.88,5.95,1.87,13.48,2.86,19.74l-.66.53c-3.99,3.28-6.65,6.72-7.08,12.05-.56,6.95,2.26,12.04,6.65,17.06-1.47,3.52-8.71,20.86-10.52,22.92l-1.03-.29c-1.08-1.05-2.18-2.15-3.12-3.33-7.39-9.3-8.81-23.73-7.47-35.14,1.65-14.06,9.49-24.99,20.36-33.54Z"/>
    <path class="cls-1" d="M386.05,201.1c.14.09.3.16.42.27,3.79,3.16,4.85,15.02,5.01,19.73.54,15.82-4.26,30.79-15.07,42.48h-.77s-.37-1.8-.37-1.8c-.52-2.96-.87-5.9-1.18-8.89,3.29-2.05,6.66-4.82,8.97-7.94,3.03-4.08,4.23-8.9,3.46-13.92-.78-5.12-3.36-9.02-7.46-12.08,1.85-6.12,4.18-12.09,6.97-17.84Z"/>
    <path class="cls-4" d="M354.71,147.34l.9.11c1.36,2.86-1.89,18.71-2.39,22.95-6.53-1.85-13.18-3.32-19.58-5.57-2.63-.61-5.14-1.49-7.68-2.38,8.44-5.89,19.51-10.35,28.75-15.11Z"/>
    <path class="cls-5" d="M364.96,225.94c2.01-.1,4.41-.41,6.36.11,2.44.65,4.88,2.48,6.08,4.71,1.1,2.03,1.26,4.45.44,6.61-1.29,3.5-4.12,5.32-7.39,6.74-2.24.18-4.46.32-6.61-.45-2.5-.88-4.8-2.84-5.91-5.26-.98-2.15-1.04-4.55-.06-6.71,1.38-3.03,4.13-4.59,7.1-5.74Z"/>
    <path class="cls-4" d="M396.48,155.19c4.38.88,10.52,1.91,13.85,5.08,1.07,1.02,1.71,2.31,1.6,3.81-.32,4.42-5.7,8.24-8.87,10.85-3.62,2.56-7.19,5.03-11.06,7.21,2.29-8.77,3.43-17.96,4.48-26.95Z"/>
    <path class="cls-4" d="M127.12,102.47c1.7-.17,3.63-.32,5.31.03,1.98.41,3.83,2.01,4.83,3.71-.74,2.43-17.75,10.8-21.17,12.7-.75.48-1.46.79-2.28,1.11-3.03-1.17-5.66-8.83-7.02-11.67,6.69-2.61,13.33-4.41,20.34-5.88Z"/>
    <path class="cls-1" d="M341.24,284.55c.62,5.03-2.04,15.16-3,20.44-2.21.63-4.61,1.5-6.93,1.37-2.54-.14-5.82-1.22-7.53-3.14l.1-.83c2.68-2.03,6.51-2.4,9.57-3.78,2.13-.96,2.68-2.08,3.44-4.2.07-.19.13-.38.2-.57-.16-1.05-.33-2.12-.67-3.14-.5-1.48-1.35-3.04-2.92-3.6-3.53-1.27-9.36,2.9-12.51,4.55-1.41.74-2.43,1.17-4.02.66-.4-2.12-.85-4.24-1.35-6.34,8.53-.02,17.29.56,25.64-1.42Z"/>
  </g>
</svg>