<?xml version="1.0" encoding="UTF-8"?>
<svg id="Layer_2" data-name="Layer 2" xmlns="http://www.w3.org/2000/svg" viewBox="0 0 288.99 460.22">
  <defs>
    <style>
      .cls-1 {
        fill: #edba5e;
      }

      .cls-2 {
        fill: #de6c59;
      }

      .cls-3 {
        fill: #e2e6e4;
      }

      .cls-4 {
        fill: #a5ccda;
      }

      .cls-5 {
        fill: #3a7c93;
      }

      .cls-6 {
        fill: #e99153;
      }
    </style>
  </defs>
  <g id="Layer_1-2" data-name="Layer 1">
    <path class="cls-5" d="M143.28.11c1.85-.1,3.69-.2,5.53.04,17.85,2.31,44.09,31.76,55.06,46.22,37.56,49.47,48.83,114.3,40.43,174.98,19.06,10.74,33.71,27.4,40.62,48.34,7.84,23.78,3.81,59.96-7.56,82.02-1.98,3.83-4.67,8.3-9.08,9.57-2.32.68-4.82-.04-6.42-1.85-3.22-3.67-5.06-9.81-6.72-14.3-6.58-17.73-14.19-33.82-31.19-43.56-7.13,1.83-14.12,3.38-21.46,4.12,7.58,17.84,11.47,35.75,10.05,55.22-.8,10.98-8.08,44.13-17.02,51.29-1.13.9-2.51,1.53-3.99,1.21-4.91-1.09-8.96-11.86-11.25-15.95-.8,1.93-1.58,3.87-2.33,5.81-6,15.22-22.98,50.4-38.05,56.95-1.51-.05-2.88-.13-4.26-.8-16.13-7.85-29.53-42.86-34.86-59.96-2.78,4.84-6.14,14.77-11.42,17.07-1.39.6-2.71.52-4.05-.13-4.63-2.22-8.22-13.22-9.84-17.69-12.55-34.72-8.59-61.45,6.83-93.99-5.93-.53-11.39-1.65-17.1-3.37-15.01,8.52-24.99,24.38-31.04,40.11-2.32,6.03-4.18,14.2-9.13,18.67-1.45,1.31-3.15,2.23-5.16,1.94-3.4-.48-6.17-4.52-7.8-7.24C.21,335.01-2.88,297.73,2.67,275.76c6.05-23.95,21.63-41.37,42.39-53.9-5.03-59.14.38-114.07,34.85-164.28C91.98,40,122.15,4,143.28.11Z"/>
    <path class="cls-3" d="M78.92,74.97c32.83,6.73,101.47,6.51,133.47-.17,2.94,5.39,5.54,11.09,8.04,16.7,22.42,50.35,21.33,108.61,9.44,161.44-3.21,14.24-6.62,27.62-11.85,41.28-15.98,4.32-33.83,4.31-50.26,4.14.05-5.04.31-10.11.48-15.15,0-3.24-.1-6.48-.33-9.72-.84-12.03-3.82-28.1-13.7-36.26-3.11-2.57-6.92-3.98-10.98-3.53-5.01.55-9.08,3.77-12.15,7.58-11.47,14.26-11.76,38.96-9.7,56.11-17.29.34-34.39.3-51.32-3.72-1.71-4.35-3.27-8.75-4.7-13.19-2.8-8.86-4.66-18.11-6.52-27.2-9.46-46.2-11.03-95.95,3.57-141.27,4.17-12.93,10.27-25,16.49-37.03Z"/>
    <path class="cls-5" d="M142.02,101.33c26.92-1.92,50.27,18.41,52.07,45.34,1.8,26.93-18.64,50.19-45.57,51.87-26.77,1.67-49.85-18.61-51.64-45.37-1.79-26.76,18.39-49.93,45.14-51.84Z"/>
    <path class="cls-4" d="M143.3,110.2c21.95-1.23,40.73,15.6,41.9,37.55,1.17,21.96-15.72,40.69-37.68,41.79-21.87,1.1-40.51-15.7-41.67-37.57-1.17-21.87,15.58-40.55,37.44-41.78Z"/>
    <path class="cls-1" d="M91.12,305.88c1.78.08,3.55.24,5.33.38,8.37.18,16.74.25,25.12.23.54,13.04,5.25,42.64,14.8,51.41,2.23,2.05,4.91,3.27,7.97,2.96,3.97-.41,7.32-3.24,9.62-6.33,8.48-11.39,11.27-33.57,12.95-47.61,5.63.03,11.3.21,16.92-.12,3.17-.4,6.52-.33,9.73-.44,1.4,2.58,2.52,5.3,3.61,8.02,8.39,21.23,9.49,44.65,3.12,66.57-2.04,6.99-4.92,13.65-7.79,20.33-2.99-4.53-4.68-9.85-7.76-14.27-1.3-1.86-3.34-4.07-5.79-4.18-3.28-.15-4.32,3.63-5.13,6.08-6.93,20.83-18.41,47.58-35,62.66-14.98-12.81-23.92-33.62-29.39-52.2-1.31-4.45-1.96-13.06-4.99-16.4-.96-1.05-1.57-1.08-2.93-1.11-6.02,3.12-9.92,17.07-13.53,23.24-3.28-5.29-5.5-11.54-7.15-17.51-7.86-28.45-4.29-56.04,10.29-81.71Z"/>
    <path class="cls-6" d="M96.45,306.26c8.37.18,16.74.25,25.12.23.54,13.04,5.25,42.64,14.8,51.41,2.23,2.05,4.91,3.27,7.97,2.96,3.97-.41,7.32-3.24,9.62-6.33,8.48-11.39,11.27-33.57,12.95-47.61,5.63.03,11.3.21,16.92-.12.76,5.29,2.19,10.47,2.8,15.79,1.09,9.46.58,28.46-1.9,37.34-.94,3.36-2.45,6.14-4.17,9.13-3.86-2.2-8.75-8.84-12.92-9.38-4.54,3.14-9.25,22.56-11.85,28.56-2.43,5.61-7.64,15.67-13.78,17.8-1.7.59-3.37.28-4.89-.61-8.92-5.18-16.33-29.87-18.71-39.73-1.19-4.93-1.84-9.97-2.96-14.92-1.97.74-3.94,1.48-5.68,2.69-2.48,1.73-6.98,7.54-9.84,7.61-10.58-10.11.51-41.06-3.32-54.34-.05-.16-.1-.32-.15-.48Z"/>
    <path class="cls-2" d="M142.97,8.55c1.35-.08,2.73-.17,4.09-.07,13.8.98,37.55,27.3,46.26,38.14,4.92,6.12,9.07,12.88,14.13,18.86l.47.55c-17.12,4.72-40.62,4.64-58.5,4.96-10.48.05-58.35-.54-64.98-4.4l-.14-.96c10.93-16.93,39.97-50.32,58.66-57.07Z"/>
    <path class="cls-6" d="M242.54,230.16c12.44,6.77,22.68,18.02,29.33,30.42,11.74,21.88,10.58,50.7,3.48,73.93-1.24,4.07-4.54,14.98-8.29,16.98l-.74-.62c-2.78-5.27-4.58-11.38-6.75-16.95-6.76-17.32-16.4-30.58-32.4-40.36,7.12-16.11,13.69-45.57,15.35-63.4Z"/>
    <path class="cls-6" d="M45.34,231.81c1.6.84,1.57,2.88,1.74,4.55,1.91,19.2,7.4,39.44,13.79,57.62-21.29,13.39-30.5,34.31-39.01,56.78-.59,1.04-.17.67-1.23,1.14-.53-.34-.92-.69-1.27-1.21-10.06-14.73-13.03-49.74-9.92-67.13,4.11-22.95,17.16-38.83,35.9-51.75Z"/>
    <path class="cls-6" d="M143.59,241.43c2.11.3,3.74.82,5.44,2.15,7.31,5.68,9.31,18,10.17,26.62,1.93,19.24-1.69,65.67-13.91,80.63-.73.14-1.46.08-2.2.07-1.69-1.09-2.65-2.49-3.59-4.25-9.79-18.33-13.25-70.58-7.11-89.9,2.04-6.44,4.99-12.07,11.2-15.31Z"/>
  </g>
</svg>