<?xml version="1.0" encoding="UTF-8"?>
<svg id="Layer_2" data-name="Layer 2" xmlns="http://www.w3.org/2000/svg" viewBox="0 0 545.26 741.43">
  <defs>
    <style>
      .cls-1 {
        fill: #dfceb1;
      }

      .cls-2 {
        fill: #2a5b84;
      }

      .cls-3 {
        fill: #27465e;
      }

      .cls-4 {
        fill: #d7872e;
      }

      .cls-5 {
        fill: #d5662c;
      }

      .cls-6 {
        fill: #e7aa3b;
      }

      .cls-7 {
        fill: #417298;
      }
    </style>
  </defs>
  <g id="Layer_2-2" data-name="Layer 2">
    <g>
      <path class="cls-2" d="M67.83,1.46C65.19.23,37.09-.22,32.57.1c-6.1.44-9.59,2.8-13.29,7.67C6.44,24.66.32,71.17.05,92.59c-1.05,84.99,14.28,155.43,50.63,231.46,5.95,12.44,13.46,23.51,19.68,35.36,4.03,7.67,7.1,15.94,11.54,23.43-16.35,44.18-24.02,90.2-7.52,135.51,13.07,35.87,36.27,67.11,59.53,95.42,8.18,9.95,16.66,22.15,27.33,28.72,1.6.99,4.12,2.88,5.74,3.2,4.55.91,14.56.98,19-.2,4.13-1.09,12.32-12.8,13.05-16.92,1.99-33.17-4.6-72.92,4.38-104.62.56-1.96,2.49-3.87,2.56-6.24,1.28-1.85,16.69-.95,19.43-1.61.76-.18.62-1.79,1.37-1.96,3.64-.82,10.81-.04,14.66-1.01,1-.25.13-2.99,2.63-2-.09,2.18,2.32,2.55,3,3.77,1.16,2.07,2.56,7.09,4.04,9.43,3.39,5.33,15.58,19.54,17.14,24.17,1.25,3.73.19,7.02.86,9.94,1.87,8.22,3.71,18.32,6.08,27.09,8.1,30.07,30.59,70.82,54.23,92.24.98.89,3.13.57,3.95,1.3,14.76,13.07,21,20.42,39.95,27.13,1.11.39.98,3.19,6.08,1.88.72-.18.52-1.54,1.42-1.91,1.02-.42,2.72.27,4.28-.58.83-.46.76-2.57,2.93-3.09,5.01-1.21,7.33,3.24,10.87,5.53,16.4,10.62,37.07,20.45,55.42,28.16,5.8,2.44,6.49,1.63,12.07,2.95.84.2.28,1.81,2.13,2.05,2.16.28,10.98.32,12.86-.11.72-.17.74-1.53,1.48-1.9,1.17-.59,3.2-.46,4.02-1.27s.65-2.89,1.28-4c7.08-12.39,6.02-16.9,8.94-30.11.18-.8,1.83-.25,2.06-2.11,2.76-21.57.91-43.78-5.03-63.29-.45-1.48-1.52-12.81-1.05-13.28,3.91-.13,8.52.61,12.21-1.07.73-.33,8.61-9.01,8.75-9.65.47-2.13.49-19.5,0-21.57-1.12-4.8-5.74-14.62-7.89-19.47-18.11-40.77-45.8-72.78-80.28-102.25-10.35-8.85-13.2-11.8-18.71-23.76-3.88-8.42-7.48-17.06-10.16-25.45-.21-.67-1.72-.71-1.89-1.47-.3-1.35-.34-5.44-.11-6.83.36-2.28,12.53-11.38,12.1-15.67,2.43-1.11,4.12-6.28,6-7.22,2.15-1.07,10.86-.25,13.26.48,10.26,3.12,22.8,7.56,32.95,12.03,16.44,7.24,31.65,18.86,47.98,27,1.25.62,7.99,4.77,8.5,4.89,2.15.5,13.31.42,15.85.11.33-.04,5.45-2.83,5.72-3.03,5.9-4.3,7.31-8.45,7.77-15.5,1.48-22.56-12.19-49.05-20.97-68.32-6.9-15.13-15-29.86-25.09-43.5-23.57-31.87-60.38-60.59-95.78-72.63-12.03-4.09-26.02-6.26-37.9-9.07-6.71-1.59-9.36,1.03-17.09-2.95-1.16-.6-3.31-.46-4.01-1.29-.63-.74-.41-2.82-1.23-4.05-16.66-25.11-33.39-50.35-52.58-73.15-30.79-36.59-70.85-67.95-109.57-92.92-28.63-18.46-55.54-31.83-87.29-41.74-7.81-2.44-18.98-2.42-25.82-5.6Z"/>
      <path class="cls-3" d="M67.83,1.46c6.84,3.17,18.01,3.16,25.82,5.6,31.74,9.91,58.66,23.28,87.29,41.74,38.73,24.97,78.78,56.33,109.57,92.92,19.18,22.8,35.91,48.04,52.58,73.15.82,1.23.6,3.31,1.23,4.05.7.83,2.85.69,4.01,1.29,7.73,3.99,10.38,1.36,17.09,2.95,11.88,2.82,25.87,4.98,37.9,9.07,35.39,12.05,72.2,40.77,95.78,72.63,10.09,13.64,18.19,28.36,25.09,43.5,8.78,19.27,22.45,45.76,20.97,68.32-.46,7.05-1.87,11.19-7.77,15.5-.27.2-5.39,2.99-5.72,3.03-2.54.32-13.7.4-15.85-.11-.5-.12-7.25-4.27-8.5-4.89-16.33-8.14-31.55-19.76-47.98-27-10.15-4.47-22.69-8.91-32.95-12.03-2.4-.73-11.11-1.55-13.26-.48-1.88.94-3.57,6.12-6,7.22.43,4.29-11.73,13.39-12.1,15.67-.22,1.39-.19,5.48.11,6.83.17.76,1.68.8,1.89,1.47,2.67,8.39,6.27,17.03,10.16,25.45,5.52,11.96,8.37,14.92,18.71,23.76,34.48,29.47,62.17,61.49,80.28,102.25,2.16,4.85,6.77,14.67,7.89,19.47.48,2.07.46,19.44,0,21.57-.14.64-8.02,9.31-8.75,9.65-3.69,1.68-8.3.94-12.21,1.07-.47.47.6,11.8,1.05,13.28,5.94,19.51,7.8,41.72,5.03,63.29-.24,1.86-1.89,1.31-2.06,2.11-2.92,13.21-1.86,17.73-8.94,30.11-.63,1.11-.44,3.16-1.28,4s-2.85.69-4.02,1.27c-.74.37-.76,1.73-1.48,1.9-1.88.43-10.71.39-12.86.11-1.85-.24-1.28-1.85-2.13-2.05-5.59-1.33-6.27-.52-12.07-2.95-18.36-7.71-39.02-17.54-55.42-28.16-3.54-2.29-5.86-6.74-10.87-5.53-2.17.52-2.1,2.63-2.93,3.09-1.55.85-3.26.16-4.28.58-.9.37-.71,1.73-1.42,1.91-5.1,1.31-4.97-1.49-6.08-1.88-18.95-6.71-25.2-14.06-39.95-27.13-.82-.73-2.97-.42-3.95-1.3-23.64-21.42-46.13-62.18-54.23-92.24-2.36-8.77-4.2-18.87-6.08-27.09-.66-2.92.39-6.21-.86-9.94-1.56-4.63-13.75-18.84-17.14-24.17-1.49-2.34-2.88-7.36-4.04-9.43-.69-1.22-3.09-1.59-3-3.77-2.5-1-1.63,1.74-2.63,2-3.86.97-11.02.19-14.66,1.01-.75.17-.61,1.78-1.37,1.96-2.74.66-18.15-.24-19.43,1.61-.07,2.36-2.01,4.27-2.56,6.24-8.98,31.7-2.39,71.45-4.38,104.62-.73,4.12-8.92,15.82-13.05,16.92-4.44,1.18-14.46,1.11-19,.2-1.62-.32-4.14-2.22-5.74-3.2-10.66-6.57-19.15-18.78-27.33-28.72-23.27-28.31-46.47-59.55-59.53-95.42-16.51-45.31-8.83-91.33,7.52-135.51-4.44-7.48-7.52-15.75-11.54-23.43-6.22-11.85-13.73-22.92-19.68-35.36C14.33,248.02-1,177.58.05,92.59.32,71.17,6.44,24.66,19.28,7.77,22.98,2.9,26.47.54,32.57.1c4.53-.33,32.62.13,35.26,1.36ZM66.83,28.46c-.65-.3-12.21-1.3-14.19-1.36-5.78-.2-14.49-1.9-16.95,4.13-13.58,33.21-12.17,96.98-6.46,132.3.78,4.85,1.43,5.9,7.18,4.57.7-.16.71-1.67,1.48-1.87,5.68-1.47,10.08-2.18,15.44-4.18,35.86-13.4,69.06-31.86,100.01-56.88l25.75-24.54c.88-3.73-1.41-1.77-2.62-2.78-18.71-15.55-54.52-33.65-76.8-40.79-9.8-3.14-24.7-4.84-32.83-8.59ZM203.74,94.52c-5.35-3.34-11.32,4.93-15.27,9.04-42.55,44.12-86.9,70.29-142.16,88.49-3.99,1.31-9.81-.05-10.32,5.53,9.12,47.61,25.54,91.48,47.94,134.23,17.83,34.03,37.94,66.52,62.17,96.11,14.37,17.55,42.78,50.59,61.25,62.24.69.43.65,1.79,1.43,1.97,5.84,1.35,6.27-1.78,7-1.95,30.34-7.18,49.51-14.97,76-30.04,3.01-1.71,8.96-2.57,9.67-3.07,27.06-18.83,54.21-39.1,75.64-65.14,3.22-3.91,8.62-6.33,8.08-12.31-.27-3-1.53-3.96-1.98-6.07-5.73-26.74-16.54-52.99-28.18-78.62-32.28-71.12-76.54-138.29-139.15-189.75-3.75-3.09-7.79-7.94-12.13-10.65ZM366.09,250.16c-.15-.12-2.11-.39-2,.5-.19,4.31,2.16,4.62,2.94,6.26,15.34,32.34,27.29,63.79,39.65,98.16.62,1.73,1.41,7.2,3.37,8.59,1.75,1.24,5.23,0,7.37.49,9.34,2.11,20.19,4.94,29.43,7.91,20.03,6.44,39.47,15.1,57.04,26.99,2.4-.39,15.21,8.21,16.2,7.08-.22-1.99.43-4.44-.02-6.31-.17-.73-1.69-.57-1.93-1.41-2.51-8.99-3.28-15.67-7.12-24.51-23.18-53.39-64.67-101.18-120.37-117.86-2.37-.71-8.36-2.7-9.24-2.9-3.74-.85-11.13-.12-14.67-1-.98-.25-.56-1.92-.66-2ZM100.92,412.34c-.83-.49-1.91-.11-2.81-.21-4.39,28.31-10,57.62-2.74,86.24,7.68,30.25,36.16,77.11,57.1,101.35,2.56,2.97,15.22,16.12,17.69,17.72,1.1.71,1.49.97,2.93.7.63-22.79-2.29-45.69-.99-68.49.49-8.58,2.37-18.34,4.26-26.74,1.16-5.11,6.02-15.39,4.72-20.05-20.12-15.47-34.74-36.02-52.99-53.51-6.35-9.37-14.22-17.98-21.01-26.99-1.21-1.6-5.67-9.73-6.18-10.02ZM377.47,450.81c-1.04-2.88-2.55-12.42-5.87-12.72-4.24-.37-5.62,4.04-8.28,6.08-30.09,23.08-54.01,37.39-86,53.9-2.94,1.52-9.41,1.96-8.2,6.4.18.65,1.49.68,1.88,1.46,1.85,3.68,4.13,10.05,6.62,13.14,1.76,2.18,6.48.86,8.69-.01,21.87-8.62,56.33-31.97,76.03-47.92,3.29-2.66,15.58-12.66,16.5-15.76,1.34-4.48-1.21-4.1-1.38-4.57ZM403.85,487.42c-1.14-.53-4.81-.87-3.74,1.2.5.96,2.35,1.12,3.06,2.21,18.2,28.08,32.04,57.57,33.98,91.76.79,14,1,33.98-3.87,46.18-.39.97-2.66,5.83-3.12,6.66-2.37,4.29-10.79,7.82-15.55,7.79-5.35-.03-11.35-2.16-16.14-3.92-43-15.84-75.05-46.36-96.28-87.95-.94-1.85-2.28-6.01-3.08-8.23-3.6-3.69-3.15,12.07-3,13.51,4.18,41.65,23.58,81.3,56.66,106.39,3.83,2.91,7.61,5.07,11.59,7.16,1.12.59.38,2.57,3.19,1.95.32-.07,3.33-4.34,4.29-5.05.86-.63,2.44-.52,3.5-1.03.74-.36.75-1.72,1.48-1.89,7.18-1.68,6.01,2,9.62,4.61,15.42,11.13,30.22,22.25,46.88,31.43,10.22,5.62,19.97,9.58,30.58,13.82,4.96,1.98,6.42.34,8.26-4.34,6.95-17.65,1.44-57.23-1.81-76.3-2.17-12.76-4.81-17.19-9.16-28.04-1.85-4.63-6.37-15.86-2.78-19.98.54-.62,5.86-2.93,7.06-2.88,3.48.13,3.27,2.04,4.42,2.56,3.07,1.42,7.44,2.69,10.45,4.15,1.18.57,3.7,4.47,6.77,2.43-2.45-2.32-2.07-6.18-3.09-8.72-1.37-3.4-5.17-7.64-7.07-11.11-18.06-32.96-38.33-58.77-68.13-79.66-.65-.45-4.64-4.58-4.95-4.73ZM378.78,499.5c-2.58-1.73-5.13-1.6-7.91-.29-.91.43-4.58,4.36-5.47,4.94-14.39,9.4-29.62,17.94-44.08,26.93-1.85,1.15-4.63-.13-5,3.74-.43,4.51,2.01,4.53,2.69,6.09,9.75,22.41,26.5,40.15,46.34,54.22,13.39,9.5,23.62,14.34,40.07,18.02.79.18.79,3.14,3.65,1.97-.44-3.16,2.5-4.65,3.1-6.45,9.12-27.44-5.49-71.91-20.73-94.38-1.08-1.6-2.86-4.88-3.3-5.44-.73-.92-8.7-8.92-9.36-9.36Z"/>
      <path class="cls-1" d="M203.74,94.52c4.34,2.71,8.38,7.56,12.13,10.65,62.61,51.46,106.86,118.63,139.15,189.75,11.64,25.63,22.45,51.88,28.18,78.62.45,2.11,1.71,3.08,1.98,6.07.54,5.98-4.86,8.4-8.08,12.31-21.43,26.04-48.58,46.31-75.64,65.14-.71.49-6.66,1.35-9.67,3.07-26.49,15.07-45.66,22.86-76,30.04-.74.17-1.16,3.3-7,1.95-.79-.18-.74-1.54-1.43-1.97-18.47-11.64-46.88-44.69-61.25-62.24-24.23-29.59-44.33-62.08-62.17-96.11-22.41-42.75-38.82-86.62-47.94-134.23.51-5.58,6.33-4.21,10.32-5.53,55.26-18.19,99.61-44.37,142.16-88.49,3.96-4.1,9.92-12.38,15.27-9.04ZM199.82,178.46c-10.01-3.7-38.27-.98-47.93,2.77-3.34,1.3-17.41,9.8-20.47,12.25-7.18,5.74-17.59,20.74-21.12,29.35-2.86,6.96-5.08,17.08-6.15,24.86-1.08,7.9,2.73,16.51,3.27,24.62,14.83,44.75,58.59,64.81,102.31,48.99,24.6-8.9,44.09-38.62,45.36-64.68,1.93-39.84-21.39-65.62-55.27-78.16Z"/>
      <path class="cls-5" d="M66.83,28.46c8.12,3.76,23.03,5.45,32.83,8.59,22.27,7.14,58.09,25.24,76.8,40.79,1.22,1.01,3.5-.94,2.62,2.78l-25.75,24.54c-30.95,25.02-64.14,43.48-100.01,56.88-5.36,2-9.76,2.71-15.44,4.18-.77.2-.78,1.71-1.48,1.87-5.74,1.33-6.39.28-7.18-4.57-5.71-35.32-7.12-99.09,6.46-132.3,2.47-6.03,11.18-4.32,16.95-4.13,1.98.07,13.54,1.06,14.19,1.36Z"/>
      <path class="cls-4" d="M403.85,487.42c.31.14,4.31,4.27,4.95,4.73,29.81,20.89,50.08,46.7,68.13,79.66,1.9,3.47,5.7,7.71,7.07,11.11,1.02,2.53.64,6.4,3.09,8.72-3.07,2.04-5.59-1.86-6.77-2.43-3.01-1.46-7.37-2.74-10.45-4.15-1.15-.53-.94-2.43-4.42-2.56-1.19-.05-6.51,2.26-7.06,2.88-3.58,4.12.93,15.35,2.78,19.98,4.34,10.85,6.98,15.28,9.16,28.04,3.25,19.07,8.76,58.64,1.81,76.3-1.84,4.68-3.3,6.32-8.26,4.34-10.62-4.24-20.37-8.2-30.58-13.82-16.66-9.17-31.46-20.29-46.88-31.43-3.62-2.61-2.45-6.29-9.62-4.61-.73.17-.74,1.53-1.48,1.89-1.06.51-2.64.39-3.5,1.03-.96.71-3.97,4.98-4.29,5.05-2.81.63-2.08-1.36-3.19-1.95-3.98-2.1-7.76-4.26-11.59-7.16-33.08-25.1-52.48-64.74-56.66-106.39-.14-1.44-.6-17.2,3-13.51.8,2.22,2.14,6.38,3.08,8.23,21.24,41.58,53.29,72.11,96.28,87.95,4.79,1.76,10.79,3.89,16.14,3.92,4.76.03,13.19-3.5,15.55-7.79.46-.83,2.73-5.69,3.12-6.66,4.88-12.2,4.67-32.18,3.87-46.18-1.93-34.19-15.78-63.68-33.98-91.76-.71-1.09-2.56-1.25-3.06-2.21-1.07-2.08,2.6-1.73,3.74-1.2Z"/>
      <path class="cls-5" d="M366.09,250.16c.1.08-.33,1.76.66,2,3.54.88,10.94.15,14.67,1,.88.2,6.87,2.19,9.24,2.9,55.71,16.68,97.19,64.46,120.37,117.86,3.84,8.84,4.61,15.52,7.12,24.51.23.84,1.76.68,1.93,1.41.44,1.87-.2,4.31.02,6.31-.99,1.13-13.8-7.47-16.2-7.08-17.57-11.89-37.01-20.55-57.04-26.99-9.24-2.97-20.09-5.8-29.43-7.91-2.14-.48-5.62.75-7.37-.49-1.96-1.39-2.75-6.85-3.37-8.59-12.36-34.37-24.31-65.82-39.65-98.16-.78-1.64-3.13-1.96-2.94-6.26-.1-.88,1.86-.62,2-.5Z"/>
      <path class="cls-5" d="M100.92,412.34c.51.3,4.97,8.42,6.18,10.02,6.8,9.01,14.66,17.62,21.01,26.99,18.25,17.49,32.87,38.04,52.99,53.51,1.29,4.66-3.57,14.94-4.72,20.05-1.9,8.4-3.77,18.16-4.26,26.74-1.31,22.8,1.62,45.7.99,68.49-1.44.27-1.84,0-2.93-.7-2.48-1.6-15.13-14.75-17.69-17.72-20.94-24.25-49.42-71.1-57.1-101.35-7.26-28.61-1.65-57.93,2.74-86.24.9.1,1.98-.27,2.81.21Z"/>
      <path class="cls-6" d="M378.78,499.5c.66.44,8.63,8.44,9.36,9.36.44.56,2.22,3.84,3.3,5.44,15.24,22.47,29.85,66.94,20.73,94.38-.6,1.81-3.55,3.29-3.1,6.45-2.86,1.17-2.86-1.79-3.65-1.97-16.45-3.68-26.67-8.52-40.07-18.02-19.83-14.07-36.59-31.81-46.34-54.22-.68-1.56-3.12-1.59-2.69-6.09.37-3.87,3.15-2.59,5-3.74,14.46-9,29.68-17.53,44.08-26.93.89-.58,4.56-4.51,5.47-4.94,2.78-1.31,5.33-1.44,7.91.29Z"/>
      <path class="cls-5" d="M377.47,450.81c.17.48,2.71.09,1.38,4.57-.93,3.1-13.21,13.1-16.5,15.76-19.7,15.94-54.16,39.3-76.03,47.92-2.21.87-6.93,2.19-8.69.01-2.49-3.09-4.76-9.46-6.62-13.14-.39-.78-1.7-.81-1.88-1.46-1.22-4.44,5.25-4.88,8.2-6.4,31.98-16.51,55.91-30.82,86-53.9,2.66-2.04,4.04-6.45,8.28-6.08,3.32.29,4.83,9.84,5.87,12.72Z"/>
      <path class="cls-3" d="M199.82,178.46c33.88,12.54,57.2,38.32,55.27,78.16-1.26,26.05-20.76,55.78-45.36,64.68-43.72,15.82-87.48-4.23-102.31-48.99-.53-8.11-4.35-16.72-3.27-24.62,1.07-7.78,3.29-17.89,6.15-24.86,3.54-8.61,13.94-23.61,21.12-29.35,3.07-2.45,17.13-10.95,20.47-12.25,9.66-3.75,37.92-6.48,47.93-2.77ZM189.82,202.47c-9.11-3.99-31.32,3.3-39.01,8.62-11.72,8.12-21.27,28.46-19.63,42.47,2.18,18.58,14.35,37.04,31.28,43.75,1.54.61,6.58,2.54,7.37,2.78,11.3,3.39,23.94.02,33.07-4.87,14.22-7.62,23.89-20.25,26.16-36.63,1.58-11.42-4.09-28.54-10.71-37.23-8.22-10.8-17.7-14.15-28.53-18.89Z"/>
      <path class="cls-7" d="M189.82,202.47c10.83,4.74,20.31,8.1,28.53,18.89,6.61,8.68,12.29,25.8,10.71,37.23-2.27,16.38-11.94,29.01-26.16,36.63-9.12,4.89-21.76,8.26-33.07,4.87-.79-.24-5.83-2.17-7.37-2.78-16.93-6.7-29.1-25.17-31.28-43.75-1.65-14.02,7.91-34.36,19.63-42.47,7.68-5.32,29.9-12.61,39.01-8.62Z"/>
    </g>
  </g>
</svg>