<?xml version="1.0" encoding="UTF-8"?>
<svg id="Layer_2" data-name="Layer 2" xmlns="http://www.w3.org/2000/svg" viewBox="0 0 659.33 319.81">
  <defs>
    <style>
      .cls-1 {
        fill: #27475f;
      }

      .cls-2 {
        fill: #e8ab3b;
      }

      .cls-3 {
        fill: #d9882d;
      }

      .cls-4 {
        fill: #e7aa3b;
      }
    </style>
  </defs>
  <g id="Layer_2-2" data-name="Layer 2">
    <g>
      <path class="cls-1" d="M160.93.15c64.69,3.83,126.67,26.15,187.93,50.49l57.82,29.22,2.56-.57c-.87-16.99-7.16-48.73,4.7-62.38,8.65-9.95,18.33-8.75,29.48-5.02,21.86,14.05,38.79,35.01,61.4,47.87,2.67-.37,24.67-23.06,28.81-26.53,9.71-8.15,32.57-27.88,44.12-28.41,43.54-1.99,20.54,66.67,16.59,89.6-.95,5.54-4.42,23.1-3.74,27.41.51,3.23,3.81,6.33,6.03,8.54,15.06,15,41.84,29.38,55.66,44.14,8.48,9.05,8.63,18.69,3.96,29.81-6.18,14.72-19.97,15.42-33.32,17.51-10.72,1.68-26.24,4.14-37.15,5.04-8.2.68-27.5-.97-34.28,1.22-5.54,1.78-33.57,73.36-47.96,85.58-8.15,6.93-17.16,8.03-26.5,3.02-17.84-9.57-29.69-71.91-39.92-92.08-4.86-9.59-24.15-5.9-33.46-6.75-111.36-10.18-227.99,31.16-334.73,48.96-16.35,2.73-38.44,10.2-54.33-1.42-9.51-6.95-5.89-23,.32-31.41,19.71-26.68,56.77-44.76,82.55-64.24,2.63-1.98,6.08-4.58,7.76-7.47-.24-1.5-14.95-8.62-17.37-9.68-20.66-9-43.17-14.23-62.81-24.93-2.95-1.61-20.28-13.37-21.86-15.62-2.37-3.36-3.82-12.69-2.91-16.54.14-.6,8.11-8.25,8.76-8.67,21.21-13.47,59.25-11.03,82.64-18.15l57.56-2.93v-2.97c-1.12-.17-2.87-.12-3.74-.72-10.15-7.05-33.63-22.84-39.9-32.67-4.83-7.57-3.97-14.9,3.37-20.66C118.67,1.17,148.8-.57,160.93.15ZM394.23,125.81c4.11-3.1,10.03-7.01,13.61-10.37,1.23-1.16,3.7-2.81,2.86-4.64-.46-.99-16.08-10.72-18.25-11.93-60.97-33.96-162.77-70.1-228.66-75.14-6.11-.47-24.73-.92-30.08.07-1.26.23-3.06.44-1.48,1.99,12.58,7.42,24.48,16.17,36.81,23.94,8.66,5.46,36.13,16.05,35.26,27.58-.24,3.21-4.24,7.15-6.86,8.42-13.27,6.39-48.21,2.92-64.77,4-28.86,1.88-60.78,5.22-88.19,11.01-5.06,1.07-10.29,1.16-15.25,3.08-1.44,1.06,12.42,8.25,13.82,8.88,30.51,13.77,71.11,21.75,99.37,37.21,10.4,5.69,14.11,12.05,3.01,19.86-4.89,3.44-16.13,6.91-21.4,10.07-24.09,14.47-47.27,31.7-69.48,48.32l-18.31,19.64c9.55-.28,19.82-1.33,29.29-3.03,14.26-2.55,31.64-7.96,45.46-10.9,67.33-14.32,131.68-27.81,197.96-39.04,4.22-.71,9.98.1,14.49-1.14,3.18-1.08,4.76-10.9,6.35-13.88.29-.55,2.13-1.62,3.45-4.02.19-.35-.43-1.66.23-2.8.7-1.19,3.72,1.34,4.77-6.2,17.23-15.16,38.51-27.81,56-41ZM581.22,29.81c-1.35-1.57-17.98,10.37-20.19,12.03-9.42,7.1-45.53,42.19-52.18,44.13-8.59,2.51-12.41-1.46-18.83-6.14-10.55-7.7-44.2-41.02-52.59-43.95-2.67-.93-5.39-1.27-8.21-1.08.22,7.13-.31,14.34.03,21.48.84,17.81,6.32,39.94,6.02,57-.07,3.82-.12,6.66-1.74,10.23-.72,1.57-23.39,19.49-26.65,21.93-2.86,2.14-10.26,5.32-12.91,7.33-5.74,4.34-39.56,30.01-40.62,33.69-2.04,7.03,17.86,4.79,22.44,5.28,15.79,1.69,35.11,3.63,50.88,5.15,8.81.85,16.7-1.59,24.91,3.82,6.38,10.73,29.89,89.66,36.38,92.12,2.72,1.03,7.53-6.31,9.15-8.88,12.71-20.17,20.99-51.22,33.78-69.87,6.3-9.18,13.37-7.09,22.63-8.3,23.24-3.04,50.15-2.16,72.46-7.89,3.97-1.02,11.51.73,8.38-6.64-.56-1.31-5.99-6.57-7.51-8.07-15.6-15.41-38.79-28.6-54.2-43.79-6.64-6.54-7.29-9.22-6.16-18.83,2.57-22.01,12.68-46.88,14.64-69.36.62-7.07-.21-14.31.11-21.39Z"/>
      <path class="cls-3" d="M333.23,175.81c-1.33,2.4-3.16,3.47-3.45,4.02-1.59,2.98-3.17,12.8-6.35,13.88-4.51,1.23-10.27.42-14.49,1.14-66.28,11.22-130.63,24.72-197.96,39.04-13.82,2.94-31.2,8.34-45.46,10.9-9.46,1.69-19.74,2.75-29.29,3.03l18.31-19.64c22.21-16.62,45.4-33.85,69.48-48.32,5.27-3.16,16.5-6.63,21.4-10.07,11.1-7.81,7.39-14.17-3.01-19.86-28.26-15.45-68.86-23.43-99.37-37.21-1.39-.63-15.25-7.82-13.82-8.88,4.96-1.92,10.19-2.01,15.25-3.08,27.42-5.78,59.34-9.13,88.19-11.01,16.56-1.08,51.49,2.4,64.77-4,2.62-1.26,6.62-5.21,6.86-8.42.86-11.53-26.61-22.12-35.26-27.58-12.33-7.77-24.23-16.52-36.81-23.94-1.58-1.55.21-1.75,1.48-1.99,5.35-.99,23.97-.54,30.08-.07,65.89,5.04,167.69,41.18,228.66,75.14,2.18,1.21,17.8,10.94,18.25,11.93.84,1.83-1.63,3.48-2.86,4.64-3.59,3.36-9.5,7.27-13.61,10.37-3.9-1.89-9.88,5.39-12.5,5.1l-11.27-5.01c-23.2-6.62-113.89-12.98-130.55-.11-3.58,2.77-2.05,5.15,0,7.87,9.76,13.01,63.75,25.11,78.76,27.23,6.09.86,14.27.47,20.56.93.24,1.76-.77,3.36-1,4.99-1.55,1.37-7.86,5.69-5,9Z"/>
      <path class="cls-4" d="M581.22,29.81c-.32,7.08.51,14.32-.11,21.39-1.96,22.48-12.07,47.35-14.64,69.36-1.12,9.61-.47,12.29,6.16,18.83,15.41,15.19,38.6,28.38,54.2,43.79,1.52,1.5,6.96,6.76,7.51,8.07,3.13,7.36-4.41,5.61-8.38,6.64-22.31,5.74-49.22,4.86-72.46,7.89-9.26,1.21-16.33-.87-22.63,8.3-12.79,18.65-21.07,49.7-33.78,69.87-1.62,2.57-6.44,9.91-9.15,8.88-6.49-2.46-30-81.39-36.38-92.12-8.21-5.41-16.1-2.97-24.91-3.82-15.77-1.52-35.1-3.46-50.88-5.15-4.58-.49-24.48,1.75-22.44-5.28,1.06-3.67,34.88-29.34,40.62-33.69,2.65-2.01,10.06-5.19,12.91-7.33,3.26-2.44,25.94-20.36,26.65-21.93,1.62-3.56,1.68-6.41,1.74-10.23.3-17.06-5.18-39.2-6.02-57-.34-7.13.19-14.35-.03-21.48,2.82-.19,5.54.14,8.21,1.08,8.38,2.93,42.03,36.25,52.59,43.95,6.42,4.69,10.24,8.65,18.83,6.14,6.66-1.94,42.77-37.03,52.18-44.13,2.2-1.66,18.83-13.61,20.19-12.03Z"/>
      <path class="cls-2" d="M338.23,166.81c.23-1.64,1.24-3.23,1-4.99-6.29-.46-14.47-.07-20.56-.93-15.01-2.12-69-14.22-78.76-27.23-2.04-2.73-3.58-5.11,0-7.87,16.66-12.87,107.34-6.51,130.55.11l11.27,5.01c2.62.3,8.61-6.99,12.5-5.1-17.49,13.19-38.77,25.84-56,41-1.05,7.54-4.07,5.01-4.77,6.2s-.04,2.45-.23,2.8c-2.86-3.31,3.45-7.63,5-9Z"/>
    </g>
  </g>
</svg>