<?xml version="1.0" encoding="UTF-8"?>
<svg id="Layer_2" data-name="Layer 2" xmlns="http://www.w3.org/2000/svg" viewBox="0 0 591.12 557.52">
  <defs>
    <style>
      .cls-1 {
        fill: #efad3d;
      }

      .cls-2 {
        fill: #224969;
      }
    </style>
  </defs>
  <g id="Layer_2-2" data-name="Layer 2">
    <g>
      <path class="cls-2" d="M307.34.79c41.35,6.42,69.19,112.88,91.5,147.96,9.37,14.73,17.32,9.01,32.37,10.62,28.49,3.05,58.54,7.61,86.88,11.15,18.18,2.27,54.8.58,65.9,17.21,8.15,12.21,10.11,44.7,1.65,56.94-19.53,18.66-40.51,38.14-59.01,56.53-6.93,6.89-54.74,53.14-55.72,57.01-1.21,4.74,1.93,24.61,2.84,30.63,5.11,33.52,29.52,114.13,20.23,142.44-8.51,25.95-39.38,30.4-61.53,23.06-.88-.29-6.52-4.32-7.62-4.79-44.22-18.53-86.54-43.36-128.9-66.07l-4.82-.1c-14.82,8.16-29.73,16.14-44.64,24.16-20.04,10.79-41.24,21.76-61.04,32.96-3.91,2.21-17.13,13.07-19.59,13.88-22.48,7.38-66.96-1.82-70.26-30.39-3.11-26.95,13.13-93.7,18.16-122.98,2.52-14.67,6.84-27.6,7.9-42.83L8.62,247.69c-15.75-22.04-10.18-61.58,18.84-70.13,11.84-3.49,25.46-2.46,37.75-4.04,34.61-4.45,70.85-9.18,105.16-14.03,9.28-1.31,18.19,2.09,24.06-7.76,5.22-8.76,12.44-28.48,17.12-39.08C230.82,68.95,246.31-8.68,307.34.79ZM304.28,27.83c-21.65-7.99-33.01,15.37-40.8,30.99-16.05,32.15-29.19,69.03-45.28,100.65-15.78,31.01-24.1,22.66-55.11,26.9-24.46,3.35-50.42,7.92-74.88,11.15-13.71,1.81-31.76,1.32-45.11,3.85-.9.17-13.43,6.47-13.8,7.3-1.04,2.34-.23,4.9-.69,7.08-.2.95-2.74.37-1.97,3.19.48,1.79,3.18,7.2,3.4,11.17,31.3,35.39,72.28,66.65,103.67,101.07,24.01,26.33,15.12,39.62,8.91,72.56-5.49,29.13-19.08,71.65-20.93,102.24-1.16,19.18,11.69,28.98,30.14,24.36,11.16-2.79,59.83-31.45,74.05-38.95,25.09-13.24,56.2-40.42,84.99-28.85l127.62,67.8c36.01,5.52,32.01-20.7,27.92-46.13-4.39-27.36-27.95-113-22.25-133.75,3.62-13.21,26.1-30.03,35.22-39.27,26.89-27.25,54.32-54.93,82.29-81.48,3.86-7.61,5.46-12.14,1.55-20.29s-11.92-7.68-18.84-8.98c-43.19-8.16-91.9-10.15-135.42-16.93-19.92-3.1-23.98-2.82-34.74-22.11-19.01-34.1-32.13-78.88-51.64-113.13-2.59-4.55-13.81-18.77-18.28-20.42Z"/>
      <path class="cls-1" d="M304.28,27.83c4.47,1.65,15.69,15.87,18.28,20.42,19.51,34.25,32.63,79.03,51.64,113.13,10.76,19.29,14.81,19,34.74,22.11,43.53,6.78,92.23,8.77,135.42,16.93,6.92,1.31,14.74.45,18.84,8.98s2.31,12.68-1.55,20.29c-27.98,26.56-55.4,54.24-82.29,81.48-9.12,9.24-31.59,26.06-35.22,39.27-5.69,20.75,17.86,106.39,22.25,133.75,4.08,25.44,8.09,51.65-27.92,46.13l-127.62-67.8c-28.79-11.57-59.89,15.6-84.99,28.85-14.21,7.5-62.89,36.15-74.05,38.95-18.45,4.62-31.3-5.18-30.14-24.36,1.84-30.58,15.44-73.11,20.93-102.24,6.21-32.94,15.09-46.23-8.91-72.56-31.39-34.42-72.37-65.68-103.67-101.07-.22-3.96-2.91-9.38-3.4-11.17-.76-2.81,1.78-2.24,1.97-3.19.46-2.18-.35-4.74.69-7.08.37-.83,12.9-7.12,13.8-7.3,13.35-2.53,31.4-2.04,45.11-3.85,24.46-3.23,50.43-7.81,74.88-11.15,31-4.24,39.33,4.11,55.11-26.9,16.09-31.63,29.23-68.5,45.28-100.65,7.79-15.61,19.15-38.98,40.8-30.99Z"/>
    </g>
  </g>
</svg>