<?xml version="1.0" encoding="UTF-8"?>
<svg id="Layer_2" data-name="Layer 2" xmlns="http://www.w3.org/2000/svg" viewBox="0 0 328.19 326.52">
  <defs>
    <style>
      .cls-1 {
        fill: #3b85a7;
      }

      .cls-2 {
        fill: #fbd474;
      }
    </style>
  </defs>
  <g id="Layer_1-2" data-name="Layer 1">
    <g>
      <path class="cls-1" d="M148.12,60.94c88.1-7.79,151.63,77.04,110.72,157.72-34.87,68.77-131.57,76.4-181.03,19-54.74-63.53-13.65-169.29,70.31-176.71ZM238.66,105.3c-31.38-38.4-87.69-46.57-129.52-21.55-6.05,3.62-10.78,8.3-16.18,12.02-4.47,3.08-13.22,14.86-16.16,19.86-27.3,46.39-14.34,104.1,28.01,134.03,22.74,16.07,54.42,20.64,81.51,14.5,71.01-16.08,98.1-102.85,52.34-158.85Z"/>
      <path class="cls-2" d="M33.04,61.81c2.54-.73,5.63.59,7.95,1.66,5.81,2.67,22.69,13.19,27.82,17.18,4.09,3.18,7.31,7.59,3.56,12.56-4.56,6.03-12.5.97-17.18-1.93-4.31-2.67-26.51-18.45-26.9-22.17-.24-2.33,2.54-6.66,4.75-7.3Z"/>
      <path class="cls-2" d="M168.57,1.91c5.1-4.76,10.06.19,10.74,6.24.96,8.53.52,27.5-1.05,35.94s-12.43,8.78-15.19,2.3c-2.23-5.25.41-22.57,1.52-28.98.54-3.14,2.36-13.98,3.99-15.51Z"/>
      <path class="cls-2" d="M243.02,22.85c4.69-1.42,9.24.64,8.78,5.92-.51,5.86-17.41,34.78-22.74,37.12-7.32,3.2-13.15-4.58-9.94-11.92,2.32-5.29,14.56-21.12,18.78-26.23,1.1-1.34,3.64-4.43,5.12-4.88Z"/>
      <path class="cls-2" d="M94.02,14.82c2.79-.85,5.65-.06,7.73,1.89,3.38,3.17,17.46,29.05,18.33,33.66,1.63,8.65-6.43,13.61-12.81,7.81-2.82-2.56-16.66-32.35-16.92-36.17-.17-2.51,1.03-6.4,3.67-7.2Z"/>
      <path class="cls-2" d="M45.04,190.94c4.38,3.63,3.54,10.68-1.7,13.23-4.38,2.13-26.58,8.06-31.53,8.47-5.75.47-14.54-1.23-10.99-8.97,1.92-4.18,26.88-11.55,32.29-12.72,3.51-.76,8.93-2.48,11.92,0Z"/>
      <path class="cls-2" d="M5.03,126.86c2.2-.51,4.45-.28,6.67-.09,5.73.47,26.52,3.84,31.2,5.8,7.56,3.16,5.82,15.04-4.07,15.08-5.49.02-27.99-5.43-33.07-7.95-6.46-3.2-7.92-11.15-.74-12.83Z"/>
      <path class="cls-2" d="M196.03,279.82c9.02-1.42,11.29,13.61,12.8,19.81,1.24,5.08,5.73,21.81,2.05,25.07s-8.45,1.82-10.77-2.35c-2.17-3.89-10.02-28.03-10.55-32.48s1.71-9.3,6.46-10.05Z"/>
      <path class="cls-2" d="M263.65,90.98c2.5-2.61,28.94-16.23,32.63-16.93,6.09-1.15,8.76,4.33,6.51,9.58-.37.85-3.96,4.14-5,4.99-3.16,2.61-23.09,14.96-26.21,15.78-9.89,2.6-14.06-7.02-7.93-13.42Z"/>
      <path class="cls-2" d="M279.04,203.84c1.66-.36,2.88-.29,4.52.02,3.41.65,27.46,9.77,30.45,11.58,7.56,4.58,5.83,13.11-2.92,12.94-6.18-.12-33.54-8.31-37.22-12.79-3.39-4.12.45-10.72,5.16-11.75Z"/>
      <path class="cls-2" d="M303.12,143.94c4.93-.34,18.77-1.29,22.51.89,4.24,2.47,2.74,7.34-.94,9.67-2.61,1.65-28.45,6.74-32.87,7.12-4.7.4-9.62.77-11.75-4.26-1.53-3.62.08-8.18,3.33-10.15,2.72-1.64,15.73-3,19.72-3.28Z"/>
      <path class="cls-2" d="M258.9,280.06c-4.05-4.11-16.13-15.52-17.16-20.41s6.29-9.44,11.33-7.25c4.63,2.01,16.42,16.6,19.67,21.33,2.69,3.92,9.93,13.09,2.56,16.39-7.22,3.24-12.24-5.85-16.4-10.06Z"/>
      <path class="cls-2" d="M108.04,275.84c6.94-1.53,11.05,3.32,10.05,10.05-.32,2.14-10.95,27.48-12.37,29.67-3.83,5.91-11.97,4.88-13.25-1.66-.93-4.76,8.51-30.66,11.62-34.97,1.19-1.65,1.74-2.6,3.94-3.09Z"/>
      <path class="cls-2" d="M37.66,263.99c3.07-3.55,19.91-18.3,23.67-19.84,9.64-3.95,15.87,6.25,8.49,13.5-7.75,3.71-18.93,17.2-26.47,19.55-9.07,2.83-11.41-6.6-5.69-13.22Z"/>
      <path class="cls-2" d="M238.66,105.3c45.77,56.01,18.68,142.78-52.34,158.85-27.1,6.13-58.77,1.57-81.51-14.5-42.36-29.93-55.32-87.64-28.01-134.03,2.94-5,11.7-16.78,16.16-19.86,5.4-3.72,10.13-8.4,16.18-12.02,41.83-25.02,98.13-16.85,129.52,21.55ZM123.05,146.82c-14.42,2.98-3.71,31.63,8.28,16.34,5.2-6.64.34-18.13-8.28-16.34ZM208.04,149.93c-8.51-7.29-19.63,5.56-12.74,15.23,8.08,11.34,22.7-6.7,12.74-15.23ZM150.2,178.77c-4.89-3.08-6.7,4.8-4.81,9.25.64,1.5,6.48,8.78,7.66,9.66,4.86,3.61,17.48,4.23,22.54,1,.78-.5,7.59-7.19,8.18-8.08,1.41-2.13,3.42-6.64,1.3-8.7-5.09-4.97-7.75,5-10.82,7.18-4.45,3.17-15.66,3.75-19.38-.49-1.19-1.35-4.21-9.53-4.67-9.82Z"/>
      <path class="cls-1" d="M150.2,178.77c.46.29,3.48,8.47,4.67,9.82,3.73,4.24,14.93,3.66,19.38.49,3.07-2.18,5.73-12.15,10.82-7.18,2.11,2.06.1,6.56-1.3,8.7-.59.89-7.39,7.57-8.18,8.08-5.06,3.24-17.68,2.61-22.54-1-1.17-.87-7.02-8.16-7.66-9.66-1.89-4.45-.09-12.33,4.81-9.25Z"/>
      <path class="cls-1" d="M208.04,149.93c9.96,8.53-4.66,26.57-12.74,15.23-6.89-9.67,4.23-22.52,12.74-15.23Z"/>
      <path class="cls-1" d="M123.05,146.82c8.63-1.78,13.49,9.71,8.28,16.34-11.99,15.29-22.7-13.36-8.28-16.34Z"/>
    </g>
  </g>
</svg>