<?xml version="1.0" encoding="UTF-8"?>
<svg id="Layer_2" data-name="Layer 2" xmlns="http://www.w3.org/2000/svg" viewBox="0 0 436.51 327.55">
  <defs>
    <style>
      .cls-1 {
        fill: #30607c;
      }

      .cls-2 {
        fill: #d7c8aa;
      }

      .cls-3 {
        fill: #d7a84a;
      }
    </style>
  </defs>
  <g id="Layer_1-2" data-name="Layer 1">
    <g>
      <path class="cls-1" d="M72.51,295.5c-3.32-3.46-9.16-14.96-11.72-19.78-1.43-2.68-7.87-18.2-8.71-18.82-1.26-.92-5.95,3.19-9.49-.98-3.03-3.56-.37-5.32-.36-8.64.01-2.99-9.32-11.4-12.05-13.96-13.42-12.61-33.03-21.85-9.93-39.9,14.4-11.25,30.75-12.5,48.34-10.51,3.15.36,6.01,3.18,9.33,1.2,10.45-9.54,20-20.04,30.23-29.79,4.13-3.94,12.2-9.46,15.58-13.41.93-1.09,1.69-1.9,1.5-3.49L11.69,47.81C1.58,38.78-4.92,30.87,4.75,17.93,9.85,11.09,24.32.86,32.79.14c19.26-1.65,49.77,11.95,68.62,18.95,45.07,16.75,89.03,36.84,134.26,52.84,11.09-3.37,21.66-9.19,32.52-13.56,20.07-8.06,40.42-15.82,60.72-23.28,23.43-8.61,53.56-21.11,77.26-26.74,15.34-3.65,33.28.34,29.94,19.94-1.33,7.78-19.62,23.34-25.93,29.06-11.43,10.36-24.13,21.07-36,31-20.71,17.31-42.94,33.05-62.85,51.18,2,10.78,4.09,21.58,6.32,32.32,7.77,37.3,18.98,74.74,26.02,111.98,2.77,14.62,4.68,27.93-9.01,38.01-17.31,12.74-33.75,1.98-46.01-10.98-26.82-28.36-50.25-62.36-76.97-91.03-1.94-2.08-11.29-11.93-12.99-11.97l-73.04,33.97c-1.76,1.44-2.96,2.97-4,5-8.18,15.87-12.31,55.11-37,54.08-4.16-.17-9.28-2.43-12.14-5.41ZM218.16,79.85c-34.56-13.9-68.92-28.49-103.75-41.76-15-5.72-30.6-12.19-45.73-17.27-11.55-3.88-28.52-10.43-40.23-6.19-5.41,1.96-19.67,13.22-12.82,19.24l121.27,95.8,2.95-.59c24.68-16.82,50.23-32.4,76.65-46.4l1.65-2.83ZM423.02,20.97c-2.58-3.98-15.83.45-19.63,1.59-81.78,24.48-170.98,60.83-242.14,107.86-25.82,17.06-48,36.27-69.93,58.09-.21.62-.39,1.86-.1,2.28,1.13,1.66,17.5,4.61,20.41,8.09,6.75,8.05-7.06,18.08-12.55,22.38-5.71,4.47-35.55,22.23-36.74,26.31-.38,1.3-.22,2.25.03,3.52.87,4.49,13.66,29.47,16.79,33.27,2.64,3.21,5.97,4.38,9.96,2.94,13.21-4.77,16.21-46.27,28.11-54.89l72.47-34.53c1.19-1.14.11-1.68-.5-2.56-1.9-2.72-5.83-5.05-7.25-8.74-2.5-6.52,1.58-11.19,6.3-15.14,14.93-12.5,40.44-26.88,57.61-37.39,9.9-6.07,40.44-26.3,49.28-28.72,4.87-1.33,6.92-.42,9.08,3.98,1.84,3.74,1.86,15.34,6.93,13.03,32.35-26.36,66.67-51.26,97.03-79.97,3.88-3.67,18.36-15.95,14.85-21.38ZM294.08,122.92c-3.19-.64-5.89,1.42-8.58,2.75-13.53,6.72-30.12,17.6-43.25,25.75-11.23,6.97-33.56,19.36-42.44,27.56-4.65,4.29-1.36,6.14,1.37,10.33,34.12,35.77,63.76,77.71,97.46,113.54,3.96,4.21,9.02,10.29,14.99,11,14.67,1.75,20.63-7.74,18.42-21.41-12.91-56.46-27.11-112.62-37.98-169.53ZM46.94,195.12c-5.94.71-24.93,6.64-23.81,14.16.31,2.07,6.1,7.24,8.02,9.07,2.47,2.35,20.35,18.01,21.73,18.37,2.46.65,37.64-24.83,42.18-28.53.39-1.39.22-1.95-.91-2.84-2.58-2.03-17.85-7.22-21.76-8.23-8.53-2.2-16.58-3.07-25.44-2Z"/>
      <path class="cls-3" d="M423.02,20.97c3.52,5.43-10.96,17.71-14.85,21.38-30.36,28.71-64.68,53.61-97.03,79.97-5.07,2.31-5.09-9.29-6.93-13.03-2.16-4.4-4.21-5.32-9.08-3.98-8.83,2.42-39.37,22.65-49.28,28.72-17.17,10.52-42.68,24.9-57.61,37.39-4.72,3.95-8.8,8.62-6.3,15.14,1.42,3.69,5.35,6.02,7.25,8.74.62.88,1.69,1.42.5,2.56l-72.47,34.53c-11.91,8.62-14.91,50.12-28.11,54.89-3.99,1.44-7.32.27-9.96-2.94-3.13-3.8-15.91-28.77-16.79-33.27-.25-1.28-.41-2.22-.03-3.52,1.19-4.08,31.03-21.84,36.74-26.31,5.49-4.29,19.3-14.33,12.55-22.38-2.92-3.48-19.29-6.43-20.41-8.09-.28-.42-.11-1.65.1-2.28,21.93-21.82,44.11-41.02,69.93-58.09,71.16-47.03,160.36-83.38,242.14-107.86,3.8-1.14,17.05-5.57,19.63-1.59Z"/>
      <path class="cls-2" d="M294.08,122.92c10.87,56.91,25.06,113.07,37.98,169.53,2.21,13.68-3.75,23.16-18.42,21.41-5.97-.71-11.02-6.79-14.99-11-33.71-35.83-63.34-77.77-97.46-113.54-2.74-4.2-6.02-6.04-1.37-10.33,8.87-8.2,31.21-20.59,42.44-27.56,13.13-8.15,29.72-19.03,43.25-25.75,2.69-1.34,5.4-3.39,8.58-2.75Z"/>
      <path class="cls-2" d="M218.16,79.85l-1.65,2.83c-26.41,14-51.97,29.58-76.65,46.4l-2.95.59L15.63,33.87c-6.85-6.02,7.41-17.28,12.82-19.24,11.71-4.25,28.67,2.31,40.23,6.19,15.13,5.08,30.73,11.55,45.73,17.27,34.83,13.27,69.18,27.86,103.75,41.76Z"/>
      <path class="cls-3" d="M46.94,195.12c8.86-1.06,16.9-.19,25.44,2,3.91,1.01,19.19,6.21,21.76,8.23,1.13.89,1.3,1.44.91,2.84-4.53,3.7-39.71,29.18-42.18,28.53-1.38-.36-19.25-16.02-21.73-18.37-1.92-1.83-7.71-7-8.02-9.07-1.11-7.52,17.87-13.45,23.81-14.16Z"/>
    </g>
  </g>
</svg>