<?xml version="1.0" encoding="UTF-8"?>
<svg id="Layer_2" data-name="Layer 2" xmlns="http://www.w3.org/2000/svg" viewBox="0 0 718.67 539.44">
  <defs>
    <style>
      .cls-1 {
        fill: #727f88;
      }

      .cls-2 {
        fill: #26465f;
      }

      .cls-3 {
        fill: #5a98b7;
      }

      .cls-4 {
        fill: #6d889a;
      }

      .cls-5 {
        fill: #e7aa3b;
      }
    </style>
  </defs>
  <g id="Layer_2-2" data-name="Layer 2">
    <g>
      <path class="cls-2" d="M386.21,1.01c24.36,2.25,63.05,17.54,84.49,29.74,61.71,35.11,105.36,107.26,109.96,178.3,1.6,3.92,25.61,8.39,31.4,10.52,50.69,18.62,116.61,60.5,105.33,123.47-12.09,67.54-135.63,108.49-194.1,119.71-68.21,86.32-216.46,105.4-297.68,28.19-5.64-5.36-14.09-19.43-19.39-22.61-11.87-7.13-42.27-10.82-57.25-15.59-66.53-21.17-194.47-84.15-132.49-172.31,26.42-37.58,80.12-55.84,121.69-70.05.53-12.15,1.81-24.38,4.27-36.28,4.64-22.42,20.63-57.89,33.43-77.08C221.08,29.19,304.05-6.6,386.21,1.01ZM375.21,28.01c-13.89-.89-39.63-1.55-53.13.62-4.45.72-11.67,2.54-15.93,3.98-1.16.39-.5,2.98-.65,3.05-1.57.72-2.71-2.86-6.32-.86-1.92,1.07-1.21,3.39-2.39,3.87-74.6,30.6-126.43,89.99-131.33,173.44-.49,8.27-1.07,33.55,1.42,40.18,3.71,8.44,59.26,22.75,61.64,20.37-3.25-44.89-6.74-90.47,15.09-131.19,27.1-50.57,77.37-73.91,134.47-65.89,21.21,6.15,41.12,13.16,58.63,27.07,52.67,41.81,60,106.42,58.81,170.01,8.16-3.98,49.74-12.57,53.73-18.23,4.59-6.5,3.86-40.03,3.29-49.29-.42-6.93-3.03-14.92-4.08-20.1-.27-1.34,1.45-3.63,1.04-5.36-.05-.21-2.78.59-3.07-.55-.46-1.8.39-4.76-.38-7.5-17.23-61.22-56.78-107.91-117.36-131.87-7-2.77-15.44-6.42-22.7-8.07-1.1-.25.38,2.31-1.47,1.98-.23-.04.73-1.98-3.76-2.71-6.32-1.03-20.2-2.58-25.57-2.93ZM379.2,103.01c-43.77-7.29-84.08,3.77-107.65,42.46s-19.04,88.78-17.82,134.04c64.49,11.66,132.88,9.28,198.34,2.23l16.1-5.37c1.41-39.25-.12-81.11-18.28-116.59-12.38-24.19-43.1-52.18-70.69-56.77ZM139.51,252.66c-.52-2.93-.43-8.75-1-12-1.88-1.79-36.11,9.91-41.22,12.07-3.32,1.4-27.99,13.72-29.66,15.07-.55.44.11,2.66-.12,2.86-3.89,2.45-4.25,2.16-9,6-95.28,77.06,51.01,130.98,107.95,150.04.25.08-.51,2.6.71,2.99,3.99,1.27,9.49-.28,10.34-.03.15.04-.14,2.97.01,3,1.15.29,10.4-.15,10.99,0,.14.04-.17,2.92.03,2.97,2.13.58,4.89-1.31,6.3-.98,8.18,1.92,20.77,6.7,29.38,8.02,3.74.58,8.29-4.1,8.85,2.06,11.19.05,22.76-.07,33.92.95,114.58,10.51,241.64,8.21,347.66-40.16,98.84-45.1,106.35-112.87-.47-155.03-4.59-1.81-32.45-12.12-34.67-9.84,2.48,28.7-22.66,41.88-45.81,49.89-89.06,30.83-274.27,33.36-361.36-3-18.55-7.74-29.23-14.76-32.82-34.89ZM473.51,471.67c-24.26,2.64-47.19,5.24-71.46,6.03-51.57,1.68-103.71.24-154.94-4.05-.98-.1-.78,2.1-.62,2.52.56,1.48,23.03,16.92,25.82,18.43,50.66,27.31,139.89,26.66,186.86-9.3,4.62-3.53,10.11-9.44,14.34-13.62Z"/>
      <path class="cls-4" d="M139.51,252.66c3.6,20.12,14.27,27.14,32.82,34.89,87.09,36.36,272.31,33.83,361.36,3,23.14-8.01,48.28-21.2,45.81-49.89,2.22-2.28,30.08,8.03,34.67,9.84,106.82,42.16,99.31,109.93.47,155.03-106.03,48.38-233.08,50.67-347.66,40.16-11.17-1.02-22.74-.9-33.92-.95-.56-6.16-5.11-1.48-8.85-2.06-8.61-1.33-21.2-6.11-29.38-8.02-1.41-.33-4.16,1.56-6.3.98-.19-.05.12-2.94-.03-2.97-.59-.15-9.84.29-10.99,0-.15-.04.14-2.96-.01-3-.86-.25-6.35,1.3-10.34.03-1.22-.39-.46-2.9-.71-2.99-56.94-19.07-203.23-72.99-107.95-150.04,4.58.05,6.21-3.51,9-6,20.7-13.01,45.22-22.68,69.01-27,.45,3.66-1.96,8.22,2.99,9ZM116.23,298.01c-57.51-1.85-57.01,85.29,1.76,80.62,49.61-3.94,46.43-79.07-1.76-80.62ZM604.25,298.01c-49.73-.63-54.87,77.27-3.27,80.68,56.74,3.75,58.89-79.97,3.27-80.68ZM277.19,340.02c-65.68-10.85-63.16,88.99-.42,79.59,41.87-6.27,42.37-72.66.42-79.59ZM463.41,339.83c-42.12-9.69-71.59,42.12-37.5,70.47,41.96,34.89,91.77-27.3,54.55-62.57-1.02-.97-8.52-1.85-8.94-2.04-.2-.1.19-2.93-.01-3.01-.36-.15-3.86,1.21-7.4.09-.81-.26-.48-2.87-.7-2.92Z"/>
      <path class="cls-3" d="M375.21,28.01c5.37.34,19.24,1.9,25.57,2.93,4.49.73,3.53,2.67,3.76,2.71,1.85.33.37-2.23,1.47-1.98,7.26,1.65,15.71,5.3,22.7,8.07,60.58,23.96,100.12,70.65,117.36,131.87.77,2.74-.08,5.7.38,7.5.29,1.14,3.02.35,3.07.55.4,1.73-1.31,4.02-1.04,5.36,1.05,5.18,3.66,13.18,4.08,20.1.56,9.27,1.3,42.79-3.29,49.29-4,5.66-45.57,14.25-53.73,18.23,1.18-63.58-6.14-128.2-58.81-170.01-17.51-13.9-37.42-20.92-58.63-27.07-57.09-8.01-107.37,15.32-134.47,65.89-21.82,40.72-18.34,86.3-15.09,131.19-2.38,2.38-57.93-11.94-61.64-20.37-2.49-6.63-1.9-31.91-1.42-40.18,4.9-83.44,56.73-142.84,131.33-173.44,1.18-.48.47-2.81,2.39-3.87,3.61-2,4.75,1.58,6.32.86.14-.07-.51-2.66.65-3.05,4.26-1.44,11.47-3.26,15.93-3.98,13.5-2.17,39.23-1.51,53.13-.62Z"/>
      <path class="cls-5" d="M379.2,103.01c27.59,4.59,58.31,32.58,70.69,56.77,18.16,35.48,19.69,77.34,18.28,116.59l-16.1,5.37c-65.46,7.05-133.85,9.43-198.34-2.23-1.22-45.26-6.76-93.72,17.82-134.04s63.88-49.74,107.65-42.46ZM333.19,160.01c-19.52-6.38-28.25,33-13.27,37.84,29.16,9.43,26.44-33.53,13.27-37.84ZM417.21,160c-2.32-.58-4.59-.55-6.94-.26-10.99,3.92-15.23,35.78-3.86,38.5,31.3,7.48,26.43-34.34,10.8-38.23ZM405.21,223c-2.02-.48-3.91-.65-5.96-.27-9.36,5.22-11.79,13.96-23.22,14.96-21.04,1.85-23.27-14.36-34.76-12.81-6.43.87-10.34,7.88-9.71,14.18,2.52,25.02,65.44,28.59,79.53,4.18,4.21-7.29,3.77-17.94-5.89-20.24Z"/>
      <path class="cls-1" d="M473.51,471.67c-4.24,4.19-9.73,10.09-14.34,13.62-46.97,35.96-136.2,36.61-186.86,9.3-2.79-1.5-25.26-16.95-25.82-18.43-.16-.42-.36-2.62.62-2.52,51.23,4.29,103.37,5.73,154.94,4.05,24.27-.79,47.2-3.38,71.46-6.03Z"/>
      <path class="cls-3" d="M67.51,270.66c.22-.2-.43-2.42.12-2.86,1.68-1.36,26.35-13.67,29.66-15.07,5.11-2.16,39.34-13.86,41.22-12.07.57,3.26.47,9.08,1,12-4.96-.79-2.55-5.35-2.99-9-23.78,4.32-48.31,14-69.01,27-2.79,2.49-4.42,6.05-9,6,4.75-3.84,5.11-3.55,9-6Z"/>
      <path class="cls-2" d="M463.41,339.83c.22.05-.11,2.67.7,2.92,3.54,1.12,7.04-.24,7.4-.09.2.08-.19,2.92.01,3.01.41.2,7.91,1.07,8.94,2.04,37.22,35.28-12.59,97.46-54.55,62.57-34.09-28.34-4.62-80.16,37.5-70.47ZM461.12,364.05c-35.15-12.09-36.37,41.78-.72,32,12.45-3.42,13.19-27.71.72-32Z"/>
      <path class="cls-2" d="M604.25,298.01c55.62.71,53.46,84.44-3.27,80.68-51.59-3.41-46.45-81.32,3.27-80.68ZM612.2,322.01c-11.02-3.16-23.69,2.67-25.25,14.63-1.99,15.18,15.78,24.53,27.77,16.98,10.9-6.87,10.28-27.93-2.51-31.61Z"/>
      <path class="cls-2" d="M116.23,298.01c48.19,1.55,51.37,76.69,1.76,80.62-58.77,4.66-59.27-82.48-1.76-80.62ZM120.14,322.05c-16.97-5.71-30.79,10.71-22.25,26.23,9.93,18.05,43.22,2.94,32.02-17.55-.34-.63-9.15-8.47-9.77-8.68Z"/>
      <path class="cls-2" d="M277.19,340.02c41.95,6.93,41.45,73.31-.42,79.59-62.74,9.4-65.26-90.44.42-79.59ZM269.25,361.01c-7.28-.47-16.85,6.18-18.63,13.25-7.55,29.99,42.68,29.73,34.55-1.27-1.02-3.9-12.11-11.73-15.92-11.98Z"/>
      <path class="cls-2" d="M405.21,223c9.66,2.3,10.1,12.95,5.89,20.24-14.09,24.41-77.01,20.84-79.53-4.18-.63-6.3,3.28-13.31,9.71-14.18,11.5-1.55,13.73,14.66,34.76,12.81,11.43-1,13.85-9.74,23.22-14.96,2.05-.38,3.94-.21,5.96.27Z"/>
      <path class="cls-2" d="M333.19,160.01c13.17,4.31,15.89,47.28-13.27,37.84-14.99-4.85-6.25-44.23,13.27-37.84Z"/>
      <path class="cls-2" d="M417.21,160c15.63,3.89,20.5,45.72-10.8,38.23-11.37-2.72-7.13-34.58,3.86-38.5,2.35-.29,4.62-.32,6.94.26Z"/>
      <path class="cls-5" d="M461.12,364.05c12.46,4.29,11.73,28.58-.72,32-35.65,9.78-34.42-44.09.72-32Z"/>
      <path class="cls-5" d="M612.2,322.01c12.8,3.67,13.42,24.74,2.51,31.61-11.99,7.55-29.75-1.8-27.77-16.98,1.56-11.96,14.23-17.79,25.25-14.63Z"/>
      <path class="cls-5" d="M120.14,322.05c.62.21,9.43,8.05,9.77,8.68,11.2,20.49-22.09,35.6-32.02,17.55-8.54-15.52,5.28-31.94,22.25-26.23Z"/>
      <path class="cls-5" d="M269.25,361.01c3.81.24,14.89,8.07,15.92,11.98,8.14,31-42.1,31.26-34.55,1.27,1.78-7.06,11.35-13.71,18.63-13.25Z"/>
    </g>
  </g>
</svg>